<?xml version="1.0" encoding="UTF-8"?>
<svg version="1.1" xmlns="http://www.w3.org/2000/svg" width="528" height="606">
<path d="M0 0 C174.24 0 348.48 0 528 0 C528 199.98 528 399.96 528 606 C353.76 606 179.52 606 0 606 C0 406.02 0 206.04 0 0 Z " fill="#010100" transform="translate(0,0)"/>
<path d="M0 0 C1.75 1.75 1.75 1.75 3 4 C2.67714832 8.0227997 0.39979049 9.95846556 -2.37893677 12.70605469 C-3.06731355 13.39298464 -3.06731355 13.39298464 -3.76959693 14.09379196 C-5.30961861 15.62704518 -6.86007629 17.14929382 -8.41064453 18.671875 C-9.51652673 19.76872608 -10.62171437 20.86627783 -11.72625732 21.96447754 C-14.10611561 24.32807075 -16.49045257 26.6870189 -18.87823868 29.04260254 C-22.65081512 32.76512392 -26.41090637 36.50008454 -30.16891479 40.23730469 C-40.18104185 50.19021517 -50.20908504 60.1270376 -60.24571025 70.05524063 C-66.84073355 76.57911794 -73.428629 83.11000985 -80.00306785 89.65463638 C-83.74043151 93.37389301 -87.488975 97.08138834 -91.24613595 100.78063965 C-93.57680131 103.08046769 -95.89704601 105.39058755 -98.21443939 107.70378113 C-99.29411472 108.77726983 -100.37811532 109.84642769 -101.46661758 110.91096497 C-102.94780001 112.36072297 -104.41295599 113.82495677 -105.87503052 115.29394531 C-107.11335475 116.51951141 -107.11335475 116.51951141 -108.37669563 117.76983643 C-110.17692362 119.80512946 -110.17692362 119.80512946 -110.06693459 121.9624567 C-108.53814437 124.88201363 -106.38081626 127.02129782 -104.05401611 129.30674744 C-103.27398417 130.0906243 -103.27398417 130.0906243 -102.478194 130.89033705 C-100.73112398 132.64235442 -98.97353577 134.38342357 -97.21582031 136.12475586 C-95.96207343 137.37765662 -94.70898658 138.63121816 -93.45651245 139.88539124 C-90.04980744 143.29295868 -86.63391507 146.69118102 -83.21634007 150.08784175 C-79.6418617 153.64357511 -76.07586846 157.20779714 -72.50897217 160.77113342 C-65.74587764 167.52489365 -58.97517362 174.27097182 -52.20171809 181.01433903 C-44.51222784 188.67040075 -36.83115806 196.33488619 -29.1508317 204.00013912 C-16.01846084 217.10644262 -2.8797949 230.20640757 10.26596069 243.29928589 C10.82213931 243.85324573 11.37831793 244.40720556 11.95135045 244.97795206 C12.97054648 245.99304875 13.98979053 247.00809722 15.00909686 248.02308315 C19.32911194 252.32554064 23.63950549 256.63756479 27.94641113 260.95314026 C28.69491837 261.70309265 29.4434256 262.45304504 30.21461487 263.22572327 C31.02099899 264.03367844 31.82738312 264.84163361 32.65820312 265.67407227 C41.42463661 274.45686496 50.19361249 283.23711434 58.96407318 292.01588535 C64.2682603 297.32523497 69.57149802 302.63552661 74.87255859 307.94799805 C79.50948477 312.5949 84.14817396 317.24003358 88.78897619 321.88306469 C91.24119044 324.33657954 93.69252447 326.79095921 96.14173889 329.24746895 C98.8723572 331.98615731 101.60690842 334.72089778 104.34179688 337.45532227 C105.148181 338.26530167 105.95456512 339.07528107 106.78538513 339.9098053 C110.38892194 343.50672406 113.99461502 346.8474737 118 350 C118.33 350.66 118.66 351.32 119 352 C119.99 352.33 120.98 352.66 122 353 C122.25224303 352.42294791 122.50448606 351.84589583 122.76437283 351.25135732 C124.1557493 348.71621916 125.72606637 347.02322067 127.77003479 344.97828293 C128.56003089 344.18307133 129.35002699 343.38785974 130.16396236 342.56855083 C131.03612676 341.70084788 131.90829115 340.83314493 132.80688477 339.93914795 C133.73006532 339.01284742 134.65324587 338.08654688 135.60440159 337.13217664 C138.16827983 334.55993625 140.738375 331.99398693 143.30952883 329.42902184 C146.0806986 326.66236961 148.84611651 323.88997844 151.61227417 321.11831665 C157.03205849 315.68962993 162.45724718 310.26637522 167.8843801 304.845036 C172.29302227 300.44090605 176.69971399 296.03483342 181.10501099 291.62735748 C181.7313942 291.0006678 182.35777742 290.37397812 183.00314194 289.72829784 C184.27549389 288.45530646 185.54784135 287.18231058 186.82018435 285.90931025 C198.75591758 273.96787149 210.69777796 262.03257523 222.64173377 250.09936157 C232.89972504 239.85031037 243.15245498 229.59602048 253.40136719 219.33789062 C265.29426896 207.43429769 277.19039316 195.53394064 289.09171581 183.63876653 C290.35947775 182.37164171 291.6272355 181.1045127 292.89498901 179.83737946 C293.83071529 178.902116 293.83071529 178.902116 294.78534514 177.94795834 C299.19054307 173.54449049 303.59340927 169.1386994 307.99539185 164.73201752 C313.35517399 159.36663953 318.71847751 154.00481221 324.08639646 148.64757439 C326.8273465 145.91189793 329.56664093 143.17461478 332.30166245 140.4330101 C335.26010149 137.46755765 338.22615812 134.50984746 341.19311523 131.55291748 C342.06527963 130.67629164 342.93744402 129.79966581 343.83603764 128.89647555 C344.62603374 128.11169495 345.41602983 127.32691434 346.22996521 126.51835251 C346.91465598 125.83398644 347.59934675 125.14962038 348.30478573 124.44451594 C350 123 350 123 352 123 C349.89623472 119.19470594 347.5481519 116.29883728 344.47666931 113.22943115 C343.54987869 112.29844604 342.62308807 111.36746094 341.66821289 110.40826416 C340.64340709 109.38894101 339.61850141 108.36971828 338.59350586 107.35058594 C337.51215604 106.26816259 336.43123946 105.18530629 335.35072327 104.10205078 C332.42153985 101.16802861 329.48615871 98.24028051 326.54948115 95.31376171 C323.47749814 92.25057064 320.41079679 89.18210021 317.34339905 86.11431885 C312.19449477 80.9663504 307.04173569 75.82226628 301.88647461 70.68066406 C295.92153802 64.73147297 289.9618644 58.77705119 284.00516218 52.81961608 C278.27686252 47.09070677 272.54571412 41.36465674 266.81295967 35.64020538 C264.3716259 33.20240701 261.93114758 30.7637569 259.49131584 28.32445526 C256.6217291 25.45587075 253.74961368 22.58984216 250.875494 19.72579956 C249.81923879 18.6724723 248.76383507 17.6182904 247.70933151 16.56320953 C246.27398102 15.12737051 244.83525894 13.69490426 243.39634705 12.26263428 C242.59090926 11.45887234 241.78547148 10.6551104 240.95562649 9.82699203 C239.12662621 7.94506223 239.12662621 7.94506223 237 7 C237.40683495 4.64035727 237.89814339 3.14065912 239.3125 1.1875 C241 0 241 0 242.79304886 0.13717079 C245.89886874 1.35142155 247.64093528 3.26303614 249.99871826 5.61776733 C250.48807869 6.10244779 250.97743912 6.58712825 251.48162866 7.086496 C253.12094342 8.71383642 254.74931659 10.35170082 256.37792969 11.98974609 C257.55029707 13.15804893 258.72330184 14.32571247 259.89689636 15.49278259 C263.08336938 18.66556398 266.2602617 21.84778028 269.43513775 25.03216124 C272.75519233 28.359801 276.08254861 31.68012643 279.40875244 35.00161743 C284.99259439 40.57999927 290.57007566 46.16468225 296.14404297 51.75292969 C302.5947894 58.22001105 309.05628336 64.67620291 315.52345157 71.12685907 C321.07041215 76.66022162 326.6115248 82.19938929 332.14775968 87.74348319 C335.45672309 91.05713135 338.76769824 94.36870095 342.08394623 97.67506027 C345.19990073 100.78237161 348.30846832 103.89688608 351.41140175 107.01719856 C352.55369859 108.1634741 353.69857815 109.3071823 354.84615898 110.4481678 C356.40753251 112.00139057 357.95944363 113.56348011 359.50921631 115.12826538 C360.38156796 116.0017481 361.2539196 116.87523083 362.15270615 117.77518272 C364 120 364 120 364 123 C362.59518743 124.48207617 362.59518743 124.48207617 360.61366653 126.07924652 C355.5150519 130.35716096 350.86841478 135.01146575 346.18133545 139.73205566 C345.21230376 140.70423762 344.24303934 141.67618765 343.27356458 142.64792776 C341.17899076 144.74837823 339.08603786 146.85042576 336.9943428 148.95374298 C333.59026335 152.3767179 330.18262847 155.79613964 326.77456665 159.21514893 C322.46817031 163.53590355 318.16272968 167.85760682 313.8584154 172.1804356 C305.40916455 180.66601181 296.95367134 189.14534303 288.49591064 197.62243652 C287.1631575 198.95829992 285.83040807 200.29416703 284.49766231 201.63003778 C282.47846317 203.65396225 280.45926046 205.67788315 278.44004308 207.70178941 C270.83952187 215.32001091 263.23969805 222.93892773 255.640625 230.55859375 C254.9463944 231.25470141 254.25216379 231.95080906 253.5368959 232.66801089 C242.26329346 243.97256674 230.99707038 255.28445274 219.73306164 266.59856683 C208.16609713 278.21654772 196.58965234 289.82502215 185.00470281 301.42506933 C177.85884232 308.58091325 170.72080112 315.74438272 163.59250477 322.91772407 C158.71482892 327.82487473 153.82815248 332.72293853 148.93416879 337.6138249 C146.10800859 340.43876217 143.28616528 343.26769843 140.47500229 346.10756683 C137.90499076 348.70365454 135.32386706 351.2881113 132.73316255 353.86354464 C131.34820884 355.24639163 129.97568003 356.6416474 128.60353732 358.03720713 C127.78539215 358.84601375 126.96724699 359.65482038 126.12430954 360.48813629 C125.06683805 361.5492688 125.06683805 361.5492688 123.98800349 362.63183832 C122 364 122 364 119.87466168 363.8306365 C117.23784061 362.66229778 115.64374998 360.97930892 113.62890625 358.921875 C112.80712891 358.09042969 111.98535156 357.25898438 111.13867188 356.40234375 C110.28853516 355.52707031 109.43839844 354.65179688 108.5625 353.75 C107.71623047 352.89019531 106.86996094 352.03039062 105.99804688 351.14453125 C104.36387387 349.48348461 102.73257703 347.81960231 101.10449219 346.15258789 C98.7549949 343.7493956 96.38051945 341.37243619 94 339 C92.97083544 337.96014855 91.94222978 336.91974378 90.9140625 335.87890625 C85.44146929 330.35356516 79.9787476 324.98228967 74 320 C72.32155521 318.34519528 70.65732982 316.6759515 69 315 C67.8027607 313.80140635 66.60479336 312.60353965 65.40625 311.40625 C56.9375 302.9375 48.46875 294.46875 40 286 C39.23816406 285.25105469 38.47632813 284.50210937 37.69140625 283.73046875 C35.53938696 281.54721551 33.44677233 279.33661993 31.37109375 277.08203125 C30.72849609 276.38529297 30.08589844 275.68855469 29.42382812 274.97070312 C28.0919743 273.52360531 26.76388318 272.07303599 25.43945312 270.61914062 C24.79814453 269.92626953 24.15683594 269.23339844 23.49609375 268.51953125 C22.92044678 267.89151611 22.3447998 267.26350098 21.75170898 266.61645508 C19.93175507 264.93702443 18.23135416 264.03992481 16 263 C14.47265625 261.484375 14.47265625 261.484375 13.0625 259.75 C12.55203125 259.13382812 12.0415625 258.51765625 11.515625 257.8828125 C10.54193614 256.67322995 9.57278101 255.45997599 8.609375 254.2421875 C5.90197047 250.83036827 5.90197047 250.83036827 2 249 C0.80541992 247.57202148 0.80541992 247.57202148 -0.45703125 245.68359375 C-4.46136872 240.14036354 -9.27457163 235.42524465 -14.11450195 230.62475586 C-15.7018038 229.04829388 -17.27798378 227.46126298 -18.85351562 225.87304688 C-19.8639417 224.86394045 -20.87498696 223.85545356 -21.88671875 222.84765625 C-22.79639404 221.94023682 -23.70606934 221.03281738 -24.64331055 220.09790039 C-26.89478692 217.81585624 -26.89478692 217.81585624 -30 217 C-31.9375 214.8203125 -31.9375 214.8203125 -34 212.125 C-38.10506651 206.38172912 -38.10506651 206.38172912 -44 203 C-45.46484375 201.51171875 -45.46484375 201.51171875 -46.9375 199.6875 C-48.67371822 197.57985202 -50.37727467 195.62272533 -52.3125 193.6875 C-54 192 -54 192 -55 190 C-55.99 189.67 -56.98 189.34 -58 189 C-59.35290527 187.62091064 -59.35290527 187.62091064 -60.84960938 185.77050781 C-65.73348888 180.02035983 -71.13551169 174.81818557 -76.51203918 169.53505707 C-79.104283 166.98527636 -81.68687999 164.42581453 -84.27016449 161.86696243 C-89.06535943 157.1173642 -93.86452831 152.3719432 -98.6796875 147.64257812 C-102.04416998 144.33731092 -105.39646184 141.02010943 -108.7408905 137.69455719 C-110.01550642 136.43170501 -111.29465106 135.17340705 -112.57832336 133.91976166 C-114.36395482 132.17491622 -116.13365354 130.41531175 -117.90039062 128.65136719 C-118.43533142 128.13597382 -118.97027222 127.62058044 -119.52142334 127.08956909 C-120.9654541 125.62908936 -120.9654541 125.62908936 -123 123 C-122.81344207 118.89831931 -120.16039376 116.7830434 -117.38223267 114.00128174 C-116.89755221 113.51192131 -116.41287175 113.02256088 -115.913504 112.51837134 C-114.28616358 110.87905658 -112.64829918 109.25068341 -111.01025391 107.62207031 C-109.84195107 106.44970293 -108.67428753 105.27669816 -107.50721741 104.10310364 C-104.33443602 100.91663062 -101.15221972 97.7397383 -97.96783876 94.56486225 C-94.640199 91.24480767 -91.31987357 87.91745139 -87.99838257 84.59124756 C-82.42000073 79.00740561 -76.83531775 73.42992434 -71.24707031 67.85595703 C-64.77998895 61.4052106 -58.32379709 54.94371664 -51.87314093 48.47654843 C-46.33977838 42.92958785 -40.80061071 37.3884752 -35.25651681 31.85224032 C-31.94286865 28.54327691 -28.63129905 25.23230176 -25.32493973 21.91605377 C-22.21762839 18.80009927 -19.10311392 15.69153168 -15.98280144 12.58859825 C-14.8365259 11.44630141 -13.6928177 10.30142185 -12.5518322 9.15384102 C-10.99860943 7.59246749 -9.43651989 6.04055637 -7.87173462 4.49078369 C-6.9982519 3.61843204 -6.12476917 2.7460804 -5.22481728 1.84729385 C-3 0 -3 0 0 0 Z " fill="#E9CF66" transform="translate(145,33)"/>
<path d="M0 0 C1 1 1 1 1.328125 3.8125 C1.24067052 9.53785301 -1.2229274 14.72842583 -3.25 20 C-8.04994815 32.89904448 -11.63154178 45.6884391 -14.38671875 59.171875 C-15 62 -15 62 -16 65 C-17.31791279 74.97573402 -17.36111074 85.13857988 -17.4375 95.1875 C-17.44400574 96.01728363 -17.45051147 96.84706726 -17.45721436 97.70199585 C-17.50825666 111.9412562 -16.72368897 126.71478972 -11 140 C-10.34 140.33 -9.68 140.66 -9 141 C-8.1646875 142.546875 -8.1646875 142.546875 -7.3125 144.125 C-4.01634513 150.01445319 0.02048519 154.60109872 6.5 156.875 C9.34255712 157.67674688 11.99455163 158.1420788 14.9375 158.5625 C18 159 18 159 20 161 C19.44444444 165.55555556 19.44444444 165.55555556 18 167 C7.75667057 167.8907243 -0.20828835 164.50863735 -8.00390625 158.03515625 C-10 156 -10 156 -11.08984375 153.80859375 C-11.91678905 151.63591803 -11.91678905 151.63591803 -15 151 C-16.0625 148.92578125 -16.0625 148.92578125 -17 146.3125 C-18.07133176 143.42845861 -19.11489443 140.78399847 -20.5625 138.0625 C-25.00083721 128.60691204 -26.14811842 118.37878781 -26.203125 108.05078125 C-26.20882507 107.19808151 -26.21452515 106.34538177 -26.22039795 105.46684265 C-26.22980965 103.66239646 -26.23636662 101.85793338 -26.24023438 100.0534668 C-26.24981155 97.36539192 -26.28081659 94.67812606 -26.3125 91.99023438 C-26.41032984 76.10328846 -24.59490203 60.62569665 -20.5 45.25 C-20.20029297 44.05503906 -20.20029297 44.05503906 -19.89453125 42.8359375 C-18.58352571 37.74222172 -16.92242239 32.89547098 -15 28 C-18.07609932 30.85688593 -20.18605374 33.69121396 -22.27734375 37.32421875 C-22.87353516 38.35353516 -23.46972656 39.38285156 -24.08398438 40.44335938 C-24.69564453 41.51392578 -25.30730469 42.58449219 -25.9375 43.6875 C-26.84918945 45.2643457 -26.84918945 45.2643457 -27.77929688 46.87304688 C-29.53067554 49.90914776 -31.26793058 52.95285034 -33 56 C-33.47840332 56.8348291 -33.95680664 57.6696582 -34.44970703 58.52978516 C-36.94009099 62.92595153 -39.05342697 67.32929721 -41 72 C-42.19109628 74.49860561 -43.43609349 76.96864999 -44.6875 79.4375 C-45.00783203 80.07365234 -45.32816406 80.70980469 -45.65820312 81.36523438 C-46.43694422 82.91109357 -47.21820334 84.45568387 -48 86 C-48.66 86 -49.32 86 -50 86 C-50.12246094 86.71542969 -50.24492187 87.43085938 -50.37109375 88.16796875 C-51.01135375 91.05112713 -51.93551556 93.58592473 -53.0625 96.3125 C-53.42472656 97.19550781 -53.78695312 98.07851562 -54.16015625 98.98828125 C-54.43730469 99.65214844 -54.71445312 100.31601563 -55 101 C-55.66 101 -56.32 101 -57 101 C-57.18175781 101.54527344 -57.36351562 102.09054688 -57.55078125 102.65234375 C-58.0821616 104.24648481 -58.61481346 105.84020235 -59.1484375 107.43359375 C-59.68400056 109.04765306 -60.21127965 110.66450859 -60.7265625 112.28515625 C-62.89971073 119.05534882 -65.65854383 125.443298 -68.9375 131.75 C-71.75491519 137.30779168 -73.81486526 143.17297402 -76 149 C-76.91416055 151.39679069 -77.83074167 153.79265987 -78.75 156.1875 C-79.15734375 157.25355469 -79.5646875 158.31960937 -79.984375 159.41796875 C-81 162 -81 162 -82 164 C-84.3125 164.25 -84.3125 164.25 -87 164 C-90.09412957 160.83674677 -90.78421263 157.56652382 -91.68359375 153.3125 C-91.89428749 152.33597473 -91.89428749 152.33597473 -92.10923767 151.33972168 C-92.56203056 149.22847399 -93.00007683 147.11448058 -93.4375 145 C-93.74552057 143.54606785 -94.05428044 142.09229214 -94.36376953 140.63867188 C-95.11992953 137.07263568 -95.86329616 133.50410106 -96.60040283 129.93408203 C-96.96316443 128.17828707 -97.32883044 126.42309281 -97.69482422 124.66796875 C-98.26118573 121.94654989 -98.82109243 119.22397833 -99.375 116.5 C-99.53025146 115.73816406 -99.68550293 114.97632813 -99.84545898 114.19140625 C-100.52091444 110.78214792 -101.07316756 107.42807794 -101.4140625 103.96875 C-101.82327211 100.43348979 -102.87951113 97.5003718 -104.20214844 94.21386719 C-105.78989157 89.80822008 -106.64412667 85.19635408 -107.625 80.625 C-108.05241983 78.65835995 -108.4819984 76.69218744 -108.9140625 74.7265625 C-109.0992041 73.86627441 -109.2843457 73.00598633 -109.47509766 72.11962891 C-109.92682351 69.96376922 -109.92682351 69.96376922 -111 68 C-113.23437513 72.93195523 -115.38402013 77.89151793 -117.4453125 82.8984375 C-125.24830158 101.81424538 -133.38817318 119.7890317 -146 136 C-146.61077393 136.80606689 -146.61077393 136.80606689 -147.23388672 137.62841797 C-152.42042778 144.4443682 -157.70451111 149.72782365 -164.84765625 154.4765625 C-167.1076445 155.8222155 -167.1076445 155.8222155 -168 158 C-169.6476038 158.71247732 -171.31763529 159.37400383 -173 160 C-173.70125 160.37125 -174.4025 160.7425 -175.125 161.125 C-177 162 -177 162 -180 162 C-180 162.66 -180 163.32 -180 164 C-182.56213554 164.64730804 -185.12468485 165.29289288 -187.6875 165.9375 C-188.40873047 166.11990234 -189.12996094 166.30230469 -189.87304688 166.49023438 C-190.57880859 166.66748047 -191.28457031 166.84472656 -192.01171875 167.02734375 C-192.65584717 167.18968506 -193.29997559 167.35202637 -193.96362305 167.51928711 C-198.08219169 168.49152805 -201.88202725 169.1272713 -206.125 169.1328125 C-207.55585938 169.13474609 -207.55585938 169.13474609 -209.015625 169.13671875 C-210.00046875 169.13285156 -210.9853125 169.12898437 -212 169.125 C-213.47726563 169.13080078 -213.47726563 169.13080078 -214.984375 169.13671875 C-215.93828125 169.13542969 -216.8921875 169.13414062 -217.875 169.1328125 C-218.73867187 169.13168457 -219.60234375 169.13055664 -220.4921875 169.12939453 C-223.0797817 168.99588354 -225.4754608 168.5694917 -228 168 C-228 167.34 -228 166.68 -228 166 C-228.84175781 165.88398438 -229.68351562 165.76796875 -230.55078125 165.6484375 C-242.59715188 163.38377439 -252.84179873 158.19964402 -260 148 C-267.3544965 135.88429576 -271.59621431 123.3701675 -268.3515625 109.16015625 C-266.05659497 103.57965828 -262.16449678 99.28643025 -258 95 C-257.113125 94.071875 -256.22625 93.14375 -255.3125 92.1875 C-251.42724462 88.51225842 -248.18896738 86.51702108 -243.0625 84.875 C-241.53302734 84.37613281 -241.53302734 84.37613281 -239.97265625 83.8671875 C-225.8745569 79.75446995 -210.21297231 80.6501226 -197.1875 87.375 C-193.52768193 89.52287195 -190.7261309 91.74623086 -188 95 C-188 95.66 -188 96.32 -188 97 C-187.34 97 -186.68 97 -186 97 C-185.957279 98.66611905 -185.95936168 100.33382885 -186 102 C-187 103 -187 103 -189.125 103.4375 C-192.30600814 102.95343354 -192.90244756 102.41928594 -195.1875 100.3125 C-204.54144056 91.69380367 -215.27602481 90.41762078 -227.52734375 90.66015625 C-237.02239806 91.15173693 -245.56549847 94.64492426 -252.44921875 101.25390625 C-258.98531207 108.61318513 -259.70797936 116.11858716 -259.4375 125.66015625 C-258.79899069 134.79283473 -253.82748773 142.18986837 -247.19921875 148.25 C-240.53536066 153.55267926 -234.41595909 156.64258724 -226 158 C-226 158.66 -226 159.32 -226 160 C-203.62008855 161.19463548 -203.62008855 161.19463548 -183 154 C-178.94020276 152.07693815 -176.52526812 151 -172 151 C-171.67 150.01 -171.34 149.02 -171 148 C-169.3984375 146.640625 -169.3984375 146.640625 -167.375 145.25 C-139.23755696 124.69569763 -126.14423278 83.7494978 -116 52 C-115.34 52 -114.68 52 -114 52 C-114.2165625 50.95585938 -114.433125 49.91171875 -114.65625 48.8359375 C-116.39291447 39.88258184 -117.30041059 31.19151918 -117.3125 22.0625 C-117.32023437 20.63333252 -117.32023437 20.63333252 -117.328125 19.17529297 C-117.25946716 12.38920073 -117.25946716 12.38920073 -115 9 C-112.94140625 8.41796875 -112.94140625 8.41796875 -110.5625 8.1875 C-109.78003906 8.09855469 -108.99757813 8.00960937 -108.19140625 7.91796875 C-106 8 -106 8 -103 10 C-101.98026871 13.05919388 -101.88466398 15.12418025 -101.90234375 18.32421875 C-101.90556641 19.35224609 -101.90878906 20.38027344 -101.91210938 21.43945312 C-101.92048828 22.51130859 -101.92886719 23.58316406 -101.9375 24.6875 C-101.94201172 25.77095703 -101.94652344 26.85441406 -101.95117188 27.97070312 C-101.96296257 30.64719085 -101.97941937 33.32356777 -102 36 C-102.66 36 -103.32 36 -104 36 C-105.1903095 48.62356483 -105.1903095 48.62356483 -103 61 C-102.34958969 63.4362827 -101.70423234 65.8739171 -101.0625 68.3125 C-100.71399228 69.60298636 -100.36503507 70.89335142 -100.015625 72.18359375 C-98.81163521 76.70781691 -97.70007946 81.2510637 -96.61328125 85.8046875 C-96.20520837 87.95838461 -96.20520837 87.95838461 -95 89 C-94.52342455 91.6439313 -94.09315409 94.28250904 -93.6875 96.9375 C-92.28653583 105.74507765 -90.42264777 114.39990742 -88.43017578 123.08935547 C-87.70349274 126.31694994 -87.0699704 129.56153589 -86.4375 132.80859375 C-85.6898317 136.55361087 -84.84112815 140.27500391 -84 144 C-83.67 144 -83.34 144 -83 144 C-82.84144531 143.39414063 -82.68289063 142.78828125 -82.51953125 142.1640625 C-80.5165607 134.97107435 -77.55975586 128.64619837 -73.96484375 122.12109375 C-70.39668785 115.43260719 -68.28774184 108.2007612 -66 101 C-65.34 101 -64.68 101 -64 101 C-63.34 98.36 -62.68 95.72 -62 93 C-61.34 93 -60.68 93 -60 93 C-59.91105469 92.33226562 -59.82210937 91.66453125 -59.73046875 90.9765625 C-58.79299292 87.15647384 -57.10373644 83.84926352 -55.3125 80.375 C-54.77774048 79.31974121 -54.77774048 79.31974121 -54.23217773 78.24316406 C-51.64852787 73.17410197 -48.94610343 68.17790356 -46.12890625 63.234375 C-45.07121033 61.14094224 -44.45721042 59.2913074 -44 57 C-43.34 57 -42.68 57 -42 57 C-41.7834375 55.824375 -41.7834375 55.824375 -41.5625 54.625 C-41 52 -41 52 -40 50 C-39.34 50 -38.68 50 -38 50 C-37.7525 49.34 -37.505 48.68 -37.25 48 C-31.59471366 34.42731278 -31.59471366 34.42731278 -27.0625 30.1875 C-24.8108376 27.79937321 -23.7140683 25.34740396 -22.3203125 22.40625 C-19.46999472 17.21158801 -15.66403727 12.63739404 -12 8 C-11.35160156 7.15953125 -10.70320313 6.3190625 -10.03515625 5.453125 C-9.15150391 4.36257812 -9.15150391 4.36257812 -8.25 3.25 C-7.73953125 2.61578125 -7.2290625 1.9815625 -6.703125 1.328125 C-4.39398968 -0.47257686 -2.8526611 -0.32116052 0 0 Z " fill="#ECECEC" transform="translate(392,69)"/>
<path d="M0 0 C3.13267578 0.2329127 4.14833897 0.68222598 6.875 2.5 C14.18799425 12.94713464 13.02262586 25.99214744 10.9309082 37.99951172 C7.83032517 54.10536065 1.619396 68.16048785 -5.9375 82.625 C-7.37957941 85.50915883 -7.03144887 88.04221528 -7 91.25 C-6.99097656 92.43851563 -6.98195313 93.62703125 -6.97265625 94.8515625 C-6.96105469 95.76679687 -6.94945312 96.68203125 -6.9375 97.625 C-6.34582031 96.53960938 -5.75414062 95.45421875 -5.14453125 94.3359375 C-4.34669114 92.89043895 -3.54849506 91.44513685 -2.75 90 C-2.16895508 88.93072266 -2.16895508 88.93072266 -1.57617188 87.83984375 C5.387239 75.29419441 5.387239 75.29419441 11.0625 73.625 C14.5625 73.1875 14.5625 73.1875 18.0625 73.625 C20.68471493 75.83293322 21.90288797 77.64270363 22.45654297 81.05004883 C22.64545783 83.95467877 22.72168704 86.8394276 22.75 89.75 C22.79208557 91.73184796 22.83750915 93.71362863 22.88671875 95.6953125 C22.90351685 97.00653076 22.90351685 97.00653076 22.9206543 98.34423828 C22.97477604 100.78971311 22.97477604 100.78971311 24.0625 103.625 C29.8760866 101.79787278 32.94442245 98.31808886 36.25 93.3125 C36.848125 92.425625 37.44625 91.53875 38.0625 90.625 C38.7225 90.625 39.3825 90.625 40.0625 90.625 C41.69125999 86.1767059 42.56775722 81.94233822 43.1875 77.25 C43.35507812 76.00476563 43.52265625 74.75953125 43.6953125 73.4765625 C43.87707031 72.06503906 43.87707031 72.06503906 44.0625 70.625 C45.7125 70.295 47.3625 69.965 49.0625 69.625 C49.07708252 70.5128418 49.09166504 71.40068359 49.10668945 72.31542969 C49.16784534 75.61827962 49.24201378 78.92030915 49.32495117 82.22265625 C49.35814794 83.65027914 49.38619631 85.07803163 49.40893555 86.50585938 C49.44258013 88.56175815 49.49489562 90.61647512 49.55078125 92.671875 C49.57696533 93.90776367 49.60314941 95.14365234 49.63012695 96.41699219 C50.0875217 99.81064944 50.62585612 101.25803641 53.0625 103.625 C55.97632729 104.37560849 55.97632729 104.37560849 59.0625 103.625 C63.32071067 100.32488673 65.92975112 95.94788935 68.73046875 91.41796875 C69.17003906 90.82628906 69.60960937 90.23460937 70.0625 89.625 C70.7225 89.625 71.3825 89.625 72.0625 89.625 C72.06027939 89.06203217 72.05805878 88.49906433 72.05577087 87.91903687 C72.03360446 82.04645422 72.01854603 76.17388352 72.00756836 70.30126953 C72.0025474 68.11116045 71.99572934 65.92105471 71.98706055 63.73095703 C71.97489696 60.57844212 71.96924923 57.42597164 71.96484375 54.2734375 C71.95968246 53.29821136 71.95452118 52.32298523 71.94920349 51.31820679 C71.94912796 50.39770538 71.94905243 49.47720398 71.94897461 48.52880859 C71.946754 47.7249472 71.94453339 46.92108582 71.94224548 46.09286499 C72.08082061 43.24902408 72.59442071 40.43347574 73.0625 37.625 C63.8225 37.625 54.5825 37.625 45.0625 37.625 C44.7325 35.975 44.4025 34.325 44.0625 32.625 C45.0625 31.625 45.0625 31.625 47.92993164 31.51147461 C49.18153076 31.51671143 50.43312988 31.52194824 51.72265625 31.52734375 C52.71935585 31.52946617 52.71935585 31.52946617 53.7361908 31.53163147 C55.86583899 31.53724482 57.99538339 31.54979946 60.125 31.5625 C61.56575369 31.56751329 63.00650903 31.57207649 64.44726562 31.57617188 C67.98571102 31.58721855 71.52409539 31.60449208 75.0625 31.625 C75.18753906 30.69300781 75.31257812 29.76101563 75.44140625 28.80078125 C76.17145408 25.06789519 77.47876933 23.3653204 80.0625 20.625 C83.18127956 19.06561022 85.63505771 19.2642166 89.0625 19.625 C92.52261572 23.43112729 92.29559653 26.25667574 93.0625 31.625 C106.2625 31.625 119.4625 31.625 133.0625 31.625 C133.3925 33.275 133.7225 34.925 134.0625 36.625 C133.0625 37.625 133.0625 37.625 129.36889648 37.73852539 C127.72378708 37.73836624 126.07867269 37.73266988 124.43359375 37.72265625 C123.13724754 37.72053383 123.13724754 37.72053383 121.81471252 37.71836853 C119.04310708 37.71275239 116.2715812 37.70019719 113.5 37.6875 C111.6256522 37.68248708 109.75130315 37.67792381 107.87695312 37.67382812 C103.27210456 37.66277772 98.66731579 37.6455023 94.0625 37.625 C93.92972656 38.91535156 93.79695312 40.20570313 93.66015625 41.53515625 C93.48184123 43.25261148 93.30345187 44.97005899 93.125 46.6875 C92.99448242 47.95883789 92.99448242 47.95883789 92.86132812 49.25585938 C92.36007987 54.06412966 91.78249467 58.84449483 91.0625 63.625 C90.4025 63.625 89.7425 63.625 89.0625 63.625 C88.91554688 65.09839844 88.91554688 65.09839844 88.765625 66.6015625 C88.24613462 70.26562762 87.07351098 73.4136366 85.68701172 76.82910156 C82.31680512 84.6490694 82.31680512 84.6490694 82.9375 92.875 C83.89112235 94.88353523 83.89112235 94.88353523 85.0625 96.625 C85.660625 97.615 86.25875 98.605 86.875 99.625 C88.98966094 101.77049971 88.98966094 101.77049971 91.875 102.875 C96.10486875 102.54324559 97.45831601 101.06886539 100.26953125 98.015625 C103.0782111 94.27071854 105.18877127 90.17887541 107.2890625 86.00390625 C107.87429688 85.21886719 108.45953125 84.43382812 109.0625 83.625 C111.7734375 83.27734375 111.7734375 83.27734375 114.0625 83.625 C114.58669702 90.97467899 111.21860024 95.79242405 107.0625 101.625 C102.92080623 105.99720096 99.11611577 109.69443444 92.9375 110.125 C87.7994633 110.08356422 85.29783771 108.02217496 81.7265625 104.5078125 C77.0625 99.2306338 77.0625 99.2306338 77.0625 95.625 C74.2376507 98.36676549 71.65035136 101.11555636 69.1875 104.1875 C65.28893928 108.75410054 61.56669075 111.32277008 55.4375 112.0625 C51.68934516 111.57662808 49.95415024 111.04773399 47.0625 108.625 C44.74485294 105.42119378 43.0625 102.67987346 43.0625 98.625 C42.4025 98.625 41.7425 98.625 41.0625 98.625 C40.8046875 99.21925781 40.546875 99.81351563 40.28125 100.42578125 C38.96413023 102.802507 37.64906066 104.09285573 35.5625 105.8125 C34.9540625 106.32167969 34.345625 106.83085938 33.71875 107.35546875 C29.82693352 110.3385828 25.80234396 110.2248733 21.0625 109.625 C17.17649138 107.03432759 16.22157386 104.04241456 15.0625 99.625 C14.83136278 96.32801041 14.87283421 93.05292973 14.9375 89.75 C14.94652344 88.87085938 14.95554687 87.99171875 14.96484375 87.0859375 C14.98825423 84.9321729 15.0241199 82.77854986 15.0625 80.625 C10.48282552 82.87861838 8.2090657 85.86690414 5.625 90.125 C5.23957031 90.74141357 4.85414063 91.35782715 4.45703125 91.99291992 C1.50392732 96.76525891 -1.23281467 101.64525153 -3.84375 106.61328125 C-4.9375 108.625 -4.9375 108.625 -5.9375 109.625 C-8.875 109.875 -8.875 109.875 -11.9375 109.625 C-14.04577055 106.46259418 -14.27567465 105.11842531 -14.5625 101.4375 C-14.63726562 100.53644531 -14.71203125 99.63539063 -14.7890625 98.70703125 C-14.83804688 98.01996094 -14.88703125 97.33289063 -14.9375 96.625 C-15.4221875 96.90214844 -15.906875 97.17929687 -16.40625 97.46484375 C-20.0529988 99.4354907 -22.9494982 100.80116658 -27.125 101 C-32.08531807 101.8131669 -32.96753369 103.7171496 -35.9375 107.625 C-40.97170262 111.13723439 -45.99171236 111.45420652 -51.9375 110.625 C-56.08316255 109.30342257 -58.59263472 107.04060688 -61.375 103.6875 C-64.00831656 98.34037249 -63.86421475 92.39432192 -62.9375 86.625 C-60.93745439 81.97373115 -58.25112928 78.71435111 -54.375 75.5 C-51.46894179 74.45679962 -49.85140191 74.70920226 -46.9375 75.625 C-47.125 77.9375 -47.125 77.9375 -47.9375 80.625 C-48.72125 81.07875 -49.505 81.5325 -50.3125 82 C-54.03162128 84.30231317 -54.71315364 86.47582623 -55.9375 90.625 C-56.23048716 95.16630095 -55.45434643 97.89533446 -52.8125 101.625 C-49.15396605 104.1700671 -47.31277995 104.32816999 -42.9375 103.625 C-39.98849476 101.90123195 -39.98849476 101.90123195 -37.9375 99.625 C-37.9375 98.965 -37.9375 98.305 -37.9375 97.625 C-38.700625 96.861875 -39.46375 96.09875 -40.25 95.3125 C-44.37373435 91.18876565 -46.11491528 88.47690614 -46.375 82.625 C-46.25310549 79.2221117 -45.93146885 77.6129377 -44.375 74.5 C-41.9375 72.625 -41.9375 72.625 -38.5 72 C-34.04098084 72.78228406 -32.68889038 74.08749809 -29.9375 77.625 C-28.11049191 81.36752177 -27.71261196 84.29214619 -27.8125 88.4375 C-27.83054687 89.41332031 -27.84859375 90.38914062 -27.8671875 91.39453125 C-27.89039063 92.13058594 -27.91359375 92.86664062 -27.9375 93.625 C-22.06687512 92.65111045 -22.06687512 92.65111045 -17.5 89.125 C-15.44074049 85.83018479 -14.8099587 84.12065302 -14.76391602 80.27734375 C-14.75042618 79.37459717 -14.73693634 78.47185059 -14.72303772 77.54174805 C-14.71259933 76.55859619 -14.70216095 75.57544434 -14.69140625 74.5625 C-14.65840013 72.46353856 -14.62518989 70.36458032 -14.59179688 68.265625 C-14.54490053 64.97073186 -14.50061604 61.67584456 -14.46069336 58.38085938 C-13.74666355 2.18201009 -13.74666355 2.18201009 0 0 Z " fill="#E8CD66" transform="translate(345.9375,461.375)"/>
<path d="M0 0 C0.804375 0.4021875 0.804375 0.4021875 1.625 0.8125 C1.01433765 6.86961032 -0.73698609 12.2105013 -2.75 17.9375 C-8.10897627 33.59665184 -10.55973246 47.98454393 -10.625 64.5625 C-10.645625 65.85671875 -10.66625 67.1509375 -10.6875 68.484375 C-10.73340352 79.86844682 -9.59610839 92.53558992 -1.87890625 101.5625 C2.00080932 105.28989417 5.52154294 106.6555144 10.8046875 107.48828125 C12.625 107.8125 12.625 107.8125 13.625 108.8125 C13.75 111.3125 13.75 111.3125 13.625 113.8125 C13.295 114.1425 12.965 114.4725 12.625 114.8125 C4.19755384 114.67873101 -2.0004284 111.92918201 -8.1640625 106.12890625 C-20.44861762 91.48193669 -19.38782551 69.72132003 -18.375 51.8125 C-17.52467826 44.38526663 -16.00954682 37.10079949 -14.375 29.8125 C-14.03722987 28.14672684 -13.70106951 26.48060298 -13.375 24.8125 C-29.69176877 50.74224882 -43.51226536 79.03818259 -53.12890625 108.171875 C-54.375 110.8125 -54.375 110.8125 -56.52734375 112.203125 C-57.44193359 112.50476563 -57.44193359 112.50476563 -58.375 112.8125 C-61.22565222 110.40950704 -61.97776333 108.44273712 -62.80126953 104.84130859 C-63.03806427 103.82950531 -63.27485901 102.81770203 -63.51882935 101.77523804 C-63.76269379 100.68151886 -64.00655823 99.58779968 -64.2578125 98.4609375 C-64.51754852 97.33233307 -64.77728455 96.20372864 -65.04489136 95.04092407 C-65.59288307 92.64971941 -66.13555993 90.2572915 -66.67333984 87.86376953 C-67.49267391 84.22008011 -68.32884189 80.58058254 -69.16796875 76.94140625 C-69.69892167 74.61481246 -70.22890078 72.28799617 -70.7578125 69.9609375 C-71.0057254 68.87936371 -71.25363831 67.79778992 -71.50906372 66.68344116 C-72.84168054 60.72419207 -73.82791057 54.8955945 -74.375 48.8125 C-75.365 48.8125 -76.355 48.8125 -77.375 48.8125 C-77.49681641 50.00359375 -77.49681641 50.00359375 -77.62109375 51.21875 C-78.60573997 55.91240039 -80.44156569 59.96804381 -82.4375 64.3125 C-82.84162109 65.19671631 -83.24574219 66.08093262 -83.66210938 66.99194336 C-93.67734292 88.59169881 -105.78876699 106.04540708 -128.71484375 114.6953125 C-141.10655155 118.07270695 -154.63984594 116.44021485 -165.8671875 110.4921875 C-172.78898439 106.22724194 -179.41733742 100.23160688 -181.9375 92.27734375 C-183.29143756 84.64935623 -184.08996646 75.39924342 -179.8125 68.58203125 C-172.7088026 59.83753418 -164.87043077 55.88056716 -153.671875 54.47265625 C-143.48617929 54.07227513 -135.35661237 57.73992931 -127.375 63.8125 C-126.375 64.8125 -126.375 64.8125 -126.3125 67.875 C-126.333125 68.844375 -126.35375 69.81375 -126.375 70.8125 C-128.625 71.0625 -128.625 71.0625 -131.375 70.8125 C-131.931875 70.235 -132.48875 69.6575 -133.0625 69.0625 C-138.30326025 63.96338192 -144.85015216 62.54938653 -152 62.375 C-160.32950076 62.66863692 -166.48933527 64.78995934 -172.375 70.8125 C-175.40950364 76.07230631 -176.27976758 80.8668845 -175.375 86.8125 C-173.33498943 93.23591789 -170.36100984 99.00085376 -164.46484375 102.578125 C-163.42457031 103.06796875 -162.38429688 103.5578125 -161.3125 104.0625 C-159.74822266 104.81273437 -159.74822266 104.81273437 -158.15234375 105.578125 C-149.62137665 109.36966593 -138.24546 109.06994247 -129.18359375 107.12890625 C-126.76473802 106.19320122 -124.61563019 105.11547516 -122.375 103.8125 C-121.12203125 103.17634766 -121.12203125 103.17634766 -119.84375 102.52734375 C-109.63052743 97.00543576 -103.98919866 88.68250377 -98.18359375 78.859375 C-96.77924956 76.49352518 -95.31348848 74.25781724 -93.75 72 C-90.28498331 66.46060877 -88.33618853 60.14505789 -86.171875 54.01513672 C-85.36172973 51.77581972 -84.49986917 49.56241079 -83.625 47.34765625 C-79.7982481 37.73776101 -79.7982481 37.73776101 -79.9296875 27.55859375 C-80.56140473 23.66300415 -80.59125749 19.81546703 -80.625 15.875 C-80.64578613 15.12798828 -80.66657227 14.38097656 -80.68798828 13.61132812 C-80.7252784 8.34259491 -80.7252784 8.34259491 -79.05859375 5.8203125 C-76.52146501 4.30156722 -74.25934777 4.62021015 -71.375 4.8125 C-68.96735057 8.55244556 -69.13990748 11.8844678 -69.1875 16.25 C-69.19394531 17.54808594 -69.20039063 18.84617187 -69.20703125 20.18359375 C-69.375 23.8125 -69.375 23.8125 -69.88671875 26.34765625 C-71.44008306 34.18903927 -69.32104904 41.46211628 -67.56640625 49.11328125 C-67.28022934 50.38600388 -66.99405243 51.6587265 -66.69920349 52.97001648 C-66.09593761 55.65139535 -65.48781063 58.33160554 -64.87573242 61.01098633 C-64.0908611 64.44714888 -63.31489571 67.88524333 -62.54209995 71.3241396 C-61.80346607 74.60876152 -61.05997945 77.89227372 -60.31640625 81.17578125 C-60.0372084 82.4121785 -59.75801056 83.64857574 -59.47035217 84.92243958 C-59.21015793 86.06089828 -58.94996368 87.19935699 -58.68188477 88.37231445 C-58.33880028 89.87952812 -58.33880028 89.87952812 -57.98878479 91.41719055 C-57.46679622 93.80490594 -57.46679622 93.80490594 -56.375 95.8125 C-55.715 95.8125 -55.055 95.8125 -54.375 95.8125 C-54.46265625 95.03519531 -54.5503125 94.25789062 -54.640625 93.45703125 C-54.26318191 88.2782901 -52.253812 84.19445655 -50.125 79.5 C-49.67753418 78.49670654 -49.23006836 77.49341309 -48.76904297 76.4597168 C-47.32080472 73.23622681 -45.85094946 70.0233881 -44.375 66.8125 C-43.89385742 65.75836914 -43.41271484 64.70423828 -42.91699219 63.61816406 C-34.65039011 45.60462271 -25.28827147 28.67085054 -14 12.375 C-13.52433594 11.68277344 -13.04867187 10.99054688 -12.55859375 10.27734375 C-4.97072959 -0.39242602 -4.97072959 -0.39242602 0 0 Z " fill="#E6CC65" transform="translate(266.375,457.1875)"/>
<path d="M0 0 C2.4375 0.1875 2.4375 0.1875 5 1 C9.53769878 7.05026504 7.55715939 19.28724233 6.71142578 26.44091797 C2.20082541 55.79917459 2.20082541 55.79917459 -6 64 C-6.67787592 16.89805257 -6.67787592 16.89805257 -1 1 C-0.67 0.67 -0.34 0.34 0 0 Z " fill="#0B0A04" transform="translate(344,469)"/>
<path d="M0 0 C0.99 0.33 1.98 0.66 3 1 C2.34 1 1.68 1 1 1 C0.76565026 1.5598056 0.53130053 2.11961121 0.28984928 2.69638062 C-1.32052065 5.57243709 -3.29724649 7.53333015 -5.6375885 9.85791016 C-6.11228386 10.33219767 -6.58697922 10.80648518 -7.07605928 11.29514503 C-8.6658844 12.88124332 -10.26273504 14.46007381 -11.85961914 16.0390625 C-13.00158497 17.17555232 -14.14308877 18.31250656 -15.28416443 19.44989014 C-17.74119519 21.89721192 -20.20124868 24.34143998 -22.6636219 26.78338623 C-26.55551471 30.64347627 -30.43924693 34.51170628 -34.32164001 38.38134766 C-43.96487879 47.99049618 -53.61739799 57.59030801 -63.27471924 67.18530273 C-70.7819111 74.64407597 -78.28591764 82.10598419 -85.77942938 89.57850456 C-89.63984469 93.42738118 -93.50710746 97.26920201 -97.37959874 101.10592651 C-99.78477476 103.49194039 -102.18370199 105.88416035 -104.58091164 108.27817535 C-105.695356 109.3885934 -106.81239153 110.49641771 -107.93216324 111.60146332 C-109.4582313 113.1081775 -110.9748248 114.62383133 -112.48939514 116.14208984 C-113.3412996 116.98863129 -114.19320406 117.83517273 -115.07092381 118.70736694 C-116.93720975 120.92537619 -117.63579101 122.16701813 -118 125 C-118.66 124.34 -119.32 123.68 -120 123 C-119.8070367 118.89133844 -117.14823289 116.77868011 -114.36204529 114.00128174 C-113.87524813 113.51192131 -113.38845098 113.02256088 -112.88690239 112.51837134 C-111.25253147 110.8790557 -109.60766262 109.25069831 -107.96264648 107.62207031 C-106.78945584 106.44972579 -105.61692521 105.27672046 -104.44500732 104.10310364 C-101.25970283 100.91693719 -98.06522262 97.74011534 -94.86904407 94.56486225 C-91.53113081 91.24568231 -88.2016917 87.91802449 -84.87135315 84.59124756 C-78.56271038 78.29193508 -72.24645812 72.00030998 -65.92745215 65.71139503 C-58.73423779 58.55169401 -51.54952377 51.38348897 -44.3655194 44.21454859 C-29.58646733 29.46686783 -14.79674615 14.72992633 0 0 Z " fill="#D2BA5C" transform="translate(142,33)"/>
<path d="M0 0 C0.99 0.33 1.98 0.66 3 1 C2.93039062 2.19496094 2.93039062 2.19496094 2.859375 3.4140625 C2.63221207 10.08291706 2.65757538 13.86804363 7 19 C7.33 19.99 7.66 20.98 8 22 C8.99 22.33 9.98 22.66 11 23 C9.60478153 26.37177797 8.23717239 28.25017709 5 30 C0.88907195 30.52320903 -1.23457035 30.45925779 -4.8125 28.3125 C-7.61028053 25.35484629 -9.00454055 23.23395244 -8.99609375 19.078125 C-8.61340517 14.74641595 -7.77242423 11.46553028 -5 8 C-4.113125 7.505 -3.22625 7.01 -2.3125 6.5 C-1.549375 6.005 -0.78625 5.51 0 5 C0.41780879 2.37305578 0.41780879 2.37305578 0 0 Z " fill="#0D0C05" transform="translate(298,536)"/>
<path d="M0 0 C2.97 0 5.94 0 9 0 C9.2577255 6.09950343 9.03694684 10.62526637 6.8515625 16.29296875 C5.49073153 20.61891307 4.8831177 25.10462961 4.26635742 29.59228516 C3.94140625 31.62109375 3.94140625 31.62109375 3 35 C0.90234375 36.47265625 0.90234375 36.47265625 -1 37 C-1.12350504 24.6220506 -0.82637424 12.35134354 0 0 Z " fill="#161309" transform="translate(425,499)"/>
<path d="M0 0 C2.4375 1.0625 2.4375 1.0625 4 3 C4.5625 6.4375 4.5625 6.4375 4 10 C1.9375 12.5 1.9375 12.5 -1 14 C-4.6875 13.9375 -4.6875 13.9375 -8 13 C-10.46324069 9.30513897 -10.38991688 7.36706908 -10 3 C-7.77455145 -1.05817089 -4.20489208 -0.44262022 0 0 Z " fill="#D6BD5E" transform="translate(397,505)"/>
<path d="M0 0 C0.33 0 0.66 0 1 0 C1.02505615 0.89831543 1.0501123 1.79663086 1.07592773 2.72216797 C1.17098693 6.05074869 1.27022421 9.37914994 1.37231445 12.70751953 C1.41566231 14.1488762 1.45733752 15.59028418 1.49731445 17.03173828 C1.55502088 19.10204541 1.61871371 21.17209432 1.68359375 23.2421875 C1.72025146 24.4885498 1.75690918 25.73491211 1.79467773 27.01904297 C1.80289479 29.92636942 1.80289479 29.92636942 3 32 C2.06421005 34.35981813 1.06652192 36.69631264 0 39 C-0.33 39 -0.66 39 -1 39 C-1.02939331 34.56251426 -1.04692963 30.12505407 -1.0625 25.6875 C-1.07087891 24.44419922 -1.07925781 23.20089844 -1.08789062 21.91992188 C-1.1072306 14.55138969 -0.83903809 7.32242824 0 0 Z " fill="#3D361A" transform="translate(339,494)"/>
<path d="M0 0 C0.66 0 1.32 0 2 0 C1.32930848 4.58894201 0.23877704 8.92547207 -1.0625 13.375 C-1.42472656 14.62023437 -1.78695313 15.86546875 -2.16015625 17.1484375 C-2.57587891 18.55996094 -2.57587891 18.55996094 -3 20 C-3.33 20 -3.66 20 -4 20 C-4 17.36 -4 14.72 -4 12 C-4.99 12.495 -4.99 12.495 -6 13 C-6.33 13.99 -6.66 14.98 -7 16 C-7.66 16 -8.32 16 -9 16 C-7.56874399 12.08551482 -5.72488708 8.70866662 -3.5 5.1875 C-2.58734375 3.72376953 -2.58734375 3.72376953 -1.65625 2.23046875 C-1.1096875 1.49441406 -0.563125 0.75835937 0 0 Z " fill="#545454" transform="translate(375,97)"/>
<path d="M0 0 C0.33 0 0.66 0 1 0 C1.17291697 10.7016389 0.63149942 21.32089373 0 32 C0.66 32 1.32 32 2 32 C2 32.99 2 33.98 2 35 C1.01 35 0.02 35 -1 35 C-1.02485364 30.97982745 -1.04293238 26.95968512 -1.05493164 22.93945312 C-1.05993786 21.5738853 -1.06674482 20.20832276 -1.07543945 18.84277344 C-1.08766831 16.87176882 -1.09272866 14.9007239 -1.09765625 12.9296875 C-1.10289307 11.74616699 -1.10812988 10.56264648 -1.11352539 9.34326172 C-1.00470177 6.13846468 -0.60517483 3.14523388 0 0 Z " fill="#8D7D3E" transform="translate(424,504)"/>
<path d="M0 0 C0.33 0.99 0.66 1.98 1 3 C-0.58015623 4.60729631 -2.16425652 6.21071576 -3.75 7.8125 C-4.63171875 8.70582031 -5.5134375 9.59914062 -6.421875 10.51953125 C-8.53448851 12.55212152 -10.60794665 14.31773818 -13 16 C-13.66 15.67 -14.32 15.34 -15 15 C-10.05 10.05 -5.1 5.1 0 0 Z " fill="#C1AB55" transform="translate(440,211)"/>
<path d="M0 0 C3 1 3 1 4 3 C4.06950541 4.54023996 4.08452357 6.08334988 4.0625 7.625 C4.05347656 8.44226563 4.04445313 9.25953125 4.03515625 10.1015625 C4.02355469 10.72804688 4.01195312 11.35453125 4 12 C0.92203555 9.5177706 0.05603723 8.25432283 -0.8125 4.3125 C-0.874375 3.219375 -0.93625 2.12625 -1 1 C-0.67 0.67 -0.34 0.34 0 0 Z " fill="#25200F" transform="translate(307,540)"/>
<path d="M0 0 C0.33 0.99 0.66 1.98 1 3 C-0.62339805 4.70884005 -2.29319053 6.37446717 -4 8 C-4.66 8 -5.32 8 -6 8 C-6.2475 8.598125 -6.495 9.19625 -6.75 9.8125 C-8.16370012 12.28647521 -9.65055383 13.43370255 -12 15 C-11.58685438 10.55073948 -8.49538473 8.15899896 -5.4375 5.25 C-4.91736328 4.74339844 -4.39722656 4.23679688 -3.86132812 3.71484375 C-2.58089916 2.46965595 -1.29132446 1.23388498 0 0 Z " fill="#C7B057" transform="translate(456,195)"/>
<path d="M0 0 C0 0.33 0 0.66 0 1 C-1.299375 1.2784375 -1.299375 1.2784375 -2.625 1.5625 C-7.0769353 3.45869466 -9.08002406 6.2708741 -12 10 C-12.66 10.66 -13.32 11.32 -14 12 C-13.54726428 7.133091 -12.35474936 4.5580675 -9 1 C-6.04335481 -0.4783226 -3.25770263 -0.06032783 0 0 Z " fill="#B6A150" transform="translate(435,481)"/>
<path d="M0 0 C0.66 0.33 1.32 0.66 2 1 C-1.95825209 5.82485166 -5.59160025 9.83410746 -11 13 C-9.66342976 10.09663689 -8.15277429 7.7897189 -6.0625 5.375 C-5.55847656 4.78460938 -5.05445313 4.19421875 -4.53515625 3.5859375 C-3 2 -3 2 0 0 Z " fill="#C2C2C2" transform="translate(139,159)"/>
<path d="M0 0 C-1.55603771 3.81936528 -3.95604931 6.26044438 -7 9 C-7.66 9 -8.32 9 -9 9 C-7.45665977 5.21180126 -4.44676575 0 0 0 Z " fill="#D1B95B" transform="translate(96,518)"/>
<path d="M0 0 C0.33 0 0.66 0 1 0 C1 2.64 1 5.28 1 8 C1.99 8.33 2.98 8.66 4 9 C3.03114628 10.68496298 2.03013277 12.35178756 1 14 C0.67 14 0.34 14 0 14 C0 9.38 0 4.76 0 0 Z " fill="#3E371A" transform="translate(338,546)"/>
<path d="M0 0 C1.32 0 2.64 0 4 0 C4 1.65 4 3.3 4 5 C2.35 5 0.7 5 -1 5 C-0.67 3.35 -0.34 1.7 0 0 Z " fill="#3A3319" transform="translate(429,488)"/>
<path d="M0 0 C-4.84060277 3.06242216 -8.29290936 4.53411505 -14 5 C-3.71428571 -1.85714286 -3.71428571 -1.85714286 0 0 Z " fill="#979796" transform="translate(215,223)"/>
<path d="M0 0 C1 3 1 3 0.3125 5.5625 C-1.16086774 8.29875437 -2.13522966 8.94958421 -5 10 C-3.66511872 6.40608886 -2.03977277 3.24509304 0 0 Z " fill="#342E16" transform="translate(253,480)"/>
<path d="M0 0 C0.66 0.33 1.32 0.66 2 1 C-0.64 3.64 -3.28 6.28 -6 9 C-6 5.06368636 -4.57142871 3.87394974 -2 1 C-1.34 0.67 -0.68 0.34 0 0 Z " fill="#D0B85B" transform="translate(292,537)"/>
<path d="M0 0 C0.66 0.33 1.32 0.66 2 1 C0.88121617 2.17262904 -0.24523051 3.33795138 -1.375 4.5 C-2.00148438 5.1496875 -2.62796875 5.799375 -3.2734375 6.46875 C-5 8 -5 8 -7 8 C-5.50902342 4.2047869 -3.24299151 2.38957269 0 0 Z " fill="#373017" transform="translate(100,522)"/>
<path d="M0 0 C-1.45255699 3.82946843 -3.42895561 5.12050295 -7 7 C-3.86206897 0 -3.86206897 0 0 0 Z " fill="#3A3A3A" transform="translate(144,167)"/>
</svg>
