<?xml version="1.0" standalone="no"?>
<!DOCTYPE svg PUBLIC "-//W3C//DTD SVG 20010904//EN"
 "http://www.w3.org/TR/2001/REC-SVG-20010904/DTD/svg10.dtd">
<svg version="1.0" xmlns="http://www.w3.org/2000/svg"
 width="3015.000000pt" height="1710.000000pt" viewBox="0 0 3015.000000 1710.000000"
 preserveAspectRatio="xMidYMid meet">

<g transform="translate(0.000000,1710.000000) scale(0.100000,-0.100000)"
fill="#000000" stroke="none">
<path d="M0 16270 l0 -830 15075 0 15075 0 0 830 0 830 -15075 0 -15075 0 0
-830z m26912 490 c10 -15 24 -20 54 -20 46 0 54 -10 54 -63 0 -21 7 -36 20
-45 25 -16 26 -47 1 -64 -13 -10 -21 -28 -23 -58 l-3 -45 -135 0 -135 0 -3 42
c-2 32 2 47 17 62 27 27 27 47 0 61 -17 9 -20 19 -17 58 l3 47 45 3 c30 2 48
10 58 23 17 25 48 24 64 -1z m2206 -23 c7 -15 19 -27 26 -27 8 0 18 -19 24
-42 13 -49 -7 -102 -33 -92 -8 4 -15 1 -15 -5 0 -6 5 -11 11 -11 6 0 17 -6 24
-14 12 -12 10 -13 -16 -11 -16 1 -32 5 -35 8 -3 3 -12 3 -20 0 -8 -3 -14 -1
-14 4 0 5 -15 7 -32 4 -31 -4 -32 -5 -8 -11 20 -5 26 -13 28 -42 3 -29 -1 -38
-17 -43 -12 -3 -25 -3 -31 0 -5 3 -10 1 -10 -4 0 -6 4 -11 9 -11 6 0 9 -8 8
-19 -1 -15 -6 -17 -27 -11 -44 14 -60 22 -60 32 0 5 4 7 9 3 5 -3 12 -2 15 3
3 5 -1 9 -9 10 -8 1 -22 3 -30 4 -20 2 -19 35 2 46 15 9 15 11 0 26 -18 19
-13 46 10 46 9 0 13 8 11 22 -2 18 3 24 27 29 17 4 22 7 11 8 -19 1 -19 2 3
22 22 20 23 20 36 3 12 -16 11 -20 -3 -25 -13 -5 -11 -8 11 -14 20 -5 27 -13
27 -32 0 -13 4 -21 10 -18 6 3 10 21 10 38 0 18 7 50 14 72 12 34 12 41 1 48
-16 9 -8 40 9 34 6 -2 17 -16 24 -30z m-7877 -4 c21 -16 39 -33 39 -39 0 -6
-11 -21 -25 -34 -17 -16 -22 -27 -15 -34 20 -20 11 -39 -15 -34 -22 5 -35 -6
-93 -73 -63 -74 -69 -78 -108 -79 -38 0 -41 2 -52 37 l-11 36 77 85 c46 51 72
87 65 89 -16 6 -17 29 -3 38 6 4 17 2 24 -4 9 -8 19 -4 36 14 29 31 33 31 81
-2z m734 2 c23 -23 25 -31 25 -130 0 -99 -2 -107 -25 -130 -23 -24 -31 -25
-135 -25 -104 0 -112 1 -135 25 -23 23 -25 31 -25 130 0 99 2 107 25 130 23
24 31 25 135 25 104 0 112 -1 135 -25z m1350 12 c48 -19 74 -41 95 -83 67
-130 -66 -267 -203 -209 -91 38 -122 165 -57 240 9 11 20 28 23 37 5 15 29 21
97 26 8 0 29 -5 45 -11z m1483 -14 c51 -38 67 -70 67 -133 0 -63 -16 -95 -69
-134 -23 -18 -45 -22 -137 -24 l-109 -4 0 95 c0 130 22 180 95 213 40 19 119
12 153 -13z m1512 -133 l0 -160 -160 0 -160 0 0 160 0 160 160 0 160 0 0 -160z
m-6102 50 c28 0 52 -2 52 -5 0 -3 -18 -21 -39 -40 -36 -33 -39 -38 -30 -68 19
-65 14 -71 -35 -42 l-43 25 -47 -26 c-50 -28 -53 -25 -36 38 10 36 9 39 -31
75 l-42 38 54 5 c53 5 54 5 78 55 l23 50 22 -52 21 -53 53 0z m-17597 48 l58
-43 1 -97 0 -98 -50 0 -50 0 0 50 c0 43 -3 50 -20 50 -17 0 -20 -7 -20 -50 l0
-50 -50 0 -50 0 0 98 1 97 57 42 c31 23 59 43 61 43 2 0 30 -19 62 -42z
m27164 12 c0 -18 -6 -26 -23 -28 -13 -2 -25 3 -28 12 -10 26 4 48 28 44 17 -2
23 -10 23 -28z m-5760 4 c44 23 61 8 57 -46 -1 -10 11 -24 28 -33 42 -22 39
-49 -8 -74 -16 -8 -21 -18 -17 -34 8 -34 -8 -51 -41 -43 -35 9 -49 9 -91 0
-28 -5 -33 -3 -38 19 -4 14 -4 30 -1 36 4 6 -7 17 -24 26 -39 20 -39 50 -1 69
22 12 27 20 24 39 -3 14 2 31 12 40 15 15 19 15 45 2 24 -13 32 -13 55 -1z
m4099 0 c3 -9 6 -31 6 -50 l0 -34 -75 0 -75 0 0 35 0 35 -75 0 -75 0 0 -100 0
-100 50 0 c38 0 50 -4 50 -15 0 -22 -125 -22 -134 1 -8 21 -8 229 1 237 3 4
77 7 164 7 134 0 158 -2 163 -16z m-26228 -9 c25 -19 34 -19 34 0 0 8 7 15 15
15 11 0 15 -12 15 -50 l0 -50 -50 0 c-37 0 -50 4 -50 14 0 8 12 16 28 18 l27
4 -36 18 c-101 51 -178 -90 -81 -147 45 -27 91 -14 112 30 14 31 50 46 50 22
0 -44 -70 -99 -125 -99 -85 0 -142 106 -98 181 31 52 117 76 159 44z m1476 3
c25 -20 31 -54 13 -72 -19 -19 -56 -21 -73 -4 -20 20 -14 64 11 76 29 14 31
14 49 0z m22169 -5 c18 -21 19 -187 2 -204 -16 -16 -189 -17 -205 -1 -17 17
-16 186 1 206 20 24 183 23 202 -1z m-21161 -97 l0 -103 -49 -1 c-36 -1 -53 3
-65 17 -21 23 -24 73 -5 107 11 22 19 25 51 22 37 -3 38 -3 38 29 0 23 5 33
15 33 12 0 15 -18 15 -104z m1300 47 l0 -57 28 27 c15 15 37 27 47 27 16 0 14
-5 -13 -33 l-32 -33 30 -34 c16 -19 29 -38 30 -42 1 -19 -33 -5 -60 25 l-29
32 -1 -32 c0 -23 -5 -33 -15 -33 -12 0 -15 18 -15 105 0 87 3 105 15 105 12 0
15 -13 15 -57z m920 -48 c0 -87 -3 -105 -15 -105 -12 0 -15 18 -15 105 0 87 3
105 15 105 12 0 15 -18 15 -105z m70 90 c0 -8 -9 -15 -20 -15 -11 0 -20 7 -20
15 0 8 9 15 20 15 11 0 20 -7 20 -15z m110 7 c0 -4 -10 -16 -22 -27 l-23 -20
23 -3 c27 -4 29 -18 2 -25 -17 -4 -20 -14 -20 -66 0 -48 -3 -61 -15 -61 -12 0
-15 14 -15 64 0 42 -4 66 -12 69 -10 4 -10 7 -1 14 6 5 16 21 22 36 8 19 17
27 36 27 14 0 25 -3 25 -8z m820 -9 c-1 -39 -57 -237 -68 -241 -7 -2 -12 4
-12 13 0 15 44 201 55 233 7 18 25 15 25 -5z m50 -88 c0 -87 -3 -105 -15 -105
-12 0 -15 18 -15 105 0 87 3 105 15 105 12 0 15 -18 15 -105z m410 90 c0 -8
-7 -15 -15 -15 -8 0 -15 7 -15 15 0 8 7 15 15 15 8 0 15 -7 15 -15z m-4030
-25 c0 -11 7 -20 15 -20 8 0 15 -4 15 -10 0 -5 -7 -10 -15 -10 -11 0 -15 -12
-15 -49 0 -34 4 -51 15 -55 26 -9 16 -27 -12 -24 -26 3 -28 6 -31 58 -2 38 -8
59 -20 68 -16 12 -16 14 1 23 9 6 17 17 17 24 0 8 7 15 15 15 8 0 15 -9 15
-20z m760 0 c0 -11 7 -20 15 -20 8 0 15 -4 15 -10 0 -5 -7 -10 -15 -10 -11 0
-15 -12 -15 -49 0 -34 4 -51 15 -55 26 -9 16 -27 -12 -24 -26 3 -28 6 -31 58
-2 38 -8 59 -20 68 -16 12 -16 14 1 23 9 6 17 17 17 24 0 8 7 15 15 15 8 0 15
-9 15 -20z m380 0 c0 -11 7 -20 15 -20 8 0 15 -4 15 -10 0 -5 -7 -10 -15 -10
-11 0 -15 -12 -15 -49 0 -34 4 -51 15 -55 26 -9 16 -27 -12 -24 -26 3 -28 6
-31 58 -2 38 -8 59 -20 68 -16 12 -16 14 1 23 9 6 17 17 17 24 0 8 7 15 15 15
8 0 15 -9 15 -20z m1330 0 c0 -11 7 -20 15 -20 8 0 15 -4 15 -10 0 -5 -7 -10
-15 -10 -11 0 -15 -12 -15 -45 0 -31 5 -47 15 -51 21 -8 19 -34 -3 -34 -30 0
-42 22 -42 76 0 32 -5 55 -12 58 -10 5 -10 7 0 12 6 3 12 14 12 25 0 10 7 19
15 19 8 0 15 -9 15 -20z m-2970 -5 c0 -12 -13 -15 -55 -15 -42 0 -55 3 -55 15
0 12 13 15 55 15 42 0 55 -3 55 -15z m19160 -65 c0 -33 -4 -60 -10 -60 -6 0
-10 27 -10 60 0 33 4 60 10 60 6 0 10 -27 10 -60z m-18750 35 c18 -22 5 -30
-26 -16 -27 12 -47 6 -42 -11 2 -6 19 -16 38 -22 62 -20 50 -86 -16 -86 -38 0
-81 32 -50 38 9 2 23 -2 31 -8 17 -14 48 -5 43 12 -2 6 -20 17 -39 23 -37 13
-50 45 -29 71 16 19 74 18 90 -1z m180 -44 c0 -62 10 -76 43 -59 13 7 17 21
17 63 0 42 3 55 15 55 12 0 15 -15 15 -74 l0 -74 -52 1 c-45 2 -54 6 -65 27
-7 14 -13 46 -13 73 0 40 3 47 20 47 18 0 20 -7 20 -59z m416 34 c27 -41 15
-60 -39 -63 -49 -3 -60 -14 -29 -31 11 -6 24 -6 35 1 10 5 25 8 34 6 30 -6
-14 -38 -51 -38 -42 0 -70 30 -70 75 0 45 28 75 70 75 25 0 38 -7 50 -25z
m164 6 c5 -11 10 -45 10 -75 0 -43 -3 -56 -15 -56 -11 0 -15 13 -15 53 0 48
-12 77 -31 77 -22 0 -39 -35 -39 -81 0 -37 -4 -49 -15 -49 -12 0 -15 15 -15
74 l0 73 55 2 c44 1 56 -3 65 -18z m250 4 c18 -22 5 -30 -26 -16 -27 12 -47 6
-42 -11 2 -6 19 -16 38 -22 38 -12 51 -45 30 -72 -16 -19 -84 -18 -100 1 -18
22 -5 30 25 17 27 -12 58 -6 52 11 -2 6 -18 16 -36 22 -29 9 -50 29 -51 47 -1
33 86 52 110 23z m360 0 c0 -7 -10 -15 -22 -17 -20 -3 -23 -10 -26 -60 -2 -43
-7 -58 -17 -58 -12 0 -15 16 -15 74 l0 74 40 0 c27 1 40 -4 40 -13z m130 -4
c5 -11 10 -44 10 -74 l0 -54 -55 -2 c-45 -1 -56 2 -65 20 -18 33 11 69 55 69
37 0 44 10 21 29 -10 9 -20 9 -40 0 -31 -14 -44 -6 -26 16 19 23 87 20 100 -4z
m158 7 c17 -17 15 -38 -3 -38 -8 0 -15 4 -15 9 0 16 -40 19 -55 4 -18 -17 -20
-54 -3 -71 15 -15 58 -16 58 -2 0 6 7 10 15 10 8 0 15 -6 15 -13 0 -23 -23
-37 -61 -37 -44 0 -69 27 -69 75 0 48 25 75 69 75 20 0 42 -5 49 -12z m310
-21 c21 -43 10 -57 -43 -57 -47 0 -58 -12 -27 -29 11 -6 24 -6 33 0 7 5 23 9
33 9 18 0 18 -1 1 -20 -27 -30 -78 -27 -104 6 -26 33 -26 57 -4 95 16 26 23
30 58 27 32 -2 42 -8 53 -31z m122 18 c0 -7 -10 -15 -22 -17 -20 -3 -23 -10
-26 -60 -2 -43 -7 -58 -17 -58 -12 0 -15 16 -15 74 l0 74 40 0 c27 1 40 -4 40
-13z m219 5 c22 -13 29 -140 8 -140 -10 0 -16 15 -19 55 -6 66 -17 82 -47 66
-17 -10 -21 -21 -21 -66 0 -42 -3 -55 -15 -55 -12 0 -15 15 -15 74 l0 73 48 1
c26 1 54 -3 61 -8z m167 -15 c27 -41 15 -60 -39 -63 -49 -3 -60 -14 -29 -31
11 -6 24 -6 35 1 10 5 25 8 34 6 30 -6 -14 -38 -51 -38 -42 0 -70 30 -70 75 0
45 28 75 70 75 25 0 38 -7 50 -25z m244 -50 c0 -60 -3 -75 -15 -75 -12 0 -15
15 -15 75 0 60 3 75 15 75 12 0 15 -15 15 -75z m180 30 c7 -25 16 -48 20 -50
4 -3 13 16 20 41 12 41 33 65 45 52 6 -6 -53 -169 -67 -185 -13 -16 -48 -17
-48 -3 0 6 7 13 15 16 21 8 19 26 -10 105 -23 65 -23 69 -6 69 13 0 22 -12 31
-45z m299 36 c10 -6 16 -32 19 -74 l4 -64 -53 -1 c-57 -1 -79 10 -79 39 0 28
28 49 66 49 36 0 43 10 20 29 -10 9 -20 9 -40 0 -31 -14 -44 -6 -26 16 14 17
67 20 89 6z m173 -8 c12 -11 18 -31 18 -58 0 -55 -26 -80 -75 -72 -33 5 -35 4
-35 -24 0 -19 -5 -29 -15 -29 -12 0 -15 18 -15 98 l0 99 52 1 c36 1 58 -4 70
-15z m170 0 c12 -11 18 -31 18 -58 0 -55 -26 -80 -75 -72 -33 5 -35 4 -35 -24
0 -19 -5 -29 -15 -29 -12 0 -15 18 -15 98 l0 99 52 1 c36 1 58 -4 70 -15z
m323 -3 c11 -12 19 -36 19 -55 0 -45 -28 -75 -69 -75 -41 0 -67 29 -67 75 0
20 8 45 18 56 23 26 75 25 99 -1z m185 -59 c0 -96 -14 -121 -69 -121 -22 0
-44 6 -51 15 -18 22 -6 29 28 17 32 -11 62 0 62 23 0 10 -10 12 -39 8 -32 -4
-41 -2 -55 18 -20 29 -21 68 0 97 13 18 24 22 70 21 l54 -2 0 -76z m70 4 c0
-60 -3 -75 -15 -75 -12 0 -15 15 -15 75 0 60 3 75 15 75 12 0 15 -15 15 -75z
m147 63 c20 -16 18 -138 -2 -138 -12 0 -15 13 -15 59 0 45 -4 60 -16 65 -29
11 -44 -13 -44 -70 0 -41 -4 -54 -15 -54 -12 0 -15 15 -15 74 l0 73 47 1 c26
1 53 -4 60 -10z m14281 -36 c4 -28 -24 -40 -45 -19 -14 13 -14 19 -3 32 18 22
44 15 48 -13z m80 0 c4 -28 -24 -40 -45 -19 -14 13 -14 19 -3 32 18 22 44 15
48 -13z m80 0 c4 -28 -24 -40 -45 -19 -14 13 -14 19 -3 32 18 22 44 15 48 -13z
m7137 -2 c0 -18 -6 -26 -23 -28 -13 -2 -25 3 -28 12 -10 26 4 48 28 44 17 -2
23 -10 23 -28z m-1692 -12 c11 -14 17 -34 15 -54 -1 -21 4 -40 17 -54 14 -15
16 -23 7 -32 -9 -9 -16 -7 -30 5 -11 10 -35 17 -60 17 -42 0 -66 15 -77 51
-24 76 76 128 128 67z m-23005 -5 c2 -9 -11 -13 -47 -13 -48 0 -61 7 -44 24
12 11 86 2 91 -11z m-1560 -15 c22 -22 14 -64 -14 -76 -51 -24 -97 33 -58 72
18 19 55 21 72 4z m-108 -33 c0 -12 -13 -15 -55 -15 -42 0 -55 3 -55 15 0 12
13 15 55 15 42 0 55 -3 55 -15z m2675 -16 c0 -7 -8 -15 -17 -17 -18 -3 -25 18
-11 32 10 10 28 1 28 -15z m900 0 c0 -7 -8 -15 -17 -17 -18 -3 -25 18 -11 32
10 10 28 1 28 -15z m21887 -11 c-9 -9 -12 -7 -12 12 0 19 3 21 12 12 9 -9 9
-15 0 -24z m903 -18 c0 -18 -6 -26 -23 -28 -13 -2 -25 3 -28 12 -10 26 4 48
28 44 17 -2 23 -10 23 -28z m-28943 -468 l33 -32 0 -130 0 -130 -33 -32 -32
-33 -330 0 -330 0 -32 33 -33 32 0 129 c0 124 1 130 25 156 14 15 34 31 45 36
11 4 163 7 337 6 l318 -2 32 -33z m1378 22 c50 -30 60 -61 60 -184 0 -123 -10
-154 -60 -184 -25 -14 -86 -16 -560 -16 -584 0 -567 -2 -604 60 -23 40 -23
240 0 279 37 62 17 60 602 61 477 0 537 -2 562 -16z m14680 -44 c0 -11 -4 -20
-10 -20 -5 0 -10 -13 -10 -30 0 -16 -4 -30 -10 -30 -5 0 -10 -9 -10 -20 0 -11
-4 -20 -10 -20 -5 0 -10 -9 -10 -20 0 -11 -4 -20 -10 -20 -5 0 -10 -9 -10 -20
0 -11 -4 -20 -10 -20 -5 0 -10 -11 -10 -25 0 -31 -41 -75 -70 -75 -24 0 -70
42 -70 65 0 8 -4 15 -10 15 -5 0 -10 9 -10 20 0 11 -4 20 -10 20 -5 0 -10 14
-10 30 0 26 4 30 28 30 16 0 34 -8 42 -20 8 -11 22 -20 32 -20 11 0 18 7 18
20 0 11 5 20 10 20 6 0 10 9 10 20 0 11 5 20 10 20 6 0 10 7 10 15 0 9 15 31
33 50 38 40 87 48 87 15z m2996 -5 c34 -20 45 -33 50 -60 3 -20 16 -40 31 -50
21 -14 24 -22 21 -73 -3 -53 -5 -58 -43 -84 -30 -21 -47 -27 -70 -23 -16 3
-37 6 -45 6 -8 0 -28 -3 -45 -6 -23 -4 -40 2 -70 23 -38 26 -40 31 -43 84 -3
50 0 58 23 76 14 11 25 27 25 37 0 29 20 54 58 74 48 26 57 26 108 -4z m2255
-4 c28 -29 29 -32 29 -131 0 -99 -1 -102 -29 -131 -23 -23 -38 -29 -72 -29
-43 0 -79 21 -79 47 0 9 -15 13 -52 13 -80 0 -88 12 -88 135 0 65 4 105 12
113 8 8 52 12 131 12 118 0 119 0 148 -29z m-19451 -51 l0 -60 -60 0 -60 0 0
60 0 60 60 0 60 0 0 -60z m160 0 l0 -60 -60 0 -60 0 0 60 0 60 60 0 60 0 0
-60z m805 20 c15 -16 31 -20 90 -20 86 0 85 1 85 -110 0 -62 -3 -79 -16 -84
-9 -3 -78 -6 -154 -6 -116 0 -139 2 -144 16 -8 21 -8 209 1 217 3 4 32 7 63 7
44 0 61 -4 75 -20z m1820 0 c15 -16 31 -20 90 -20 86 0 85 1 85 -110 0 -62 -3
-79 -16 -84 -9 -3 -78 -6 -154 -6 -116 0 -139 2 -144 16 -8 21 -8 209 1 217 3
4 32 7 63 7 44 0 61 -4 75 -20z m1780 0 c15 -16 31 -20 90 -20 86 0 85 1 85
-110 0 -62 -3 -79 -16 -84 -9 -3 -78 -6 -154 -6 -116 0 -139 2 -144 16 -8 21
-8 209 1 217 3 4 32 7 63 7 44 0 61 -4 75 -20z m2440 0 c15 -16 31 -20 90 -20
86 0 85 1 85 -110 0 -62 -3 -79 -16 -84 -9 -3 -78 -6 -154 -6 -116 0 -139 2
-144 16 -8 21 -8 209 1 217 3 4 32 7 63 7 44 0 61 -4 75 -20z m1580 0 c15 -16
31 -20 90 -20 86 0 85 1 85 -110 0 -62 -3 -79 -16 -84 -9 -3 -78 -6 -154 -6
-116 0 -139 2 -144 16 -8 21 -8 209 1 217 3 4 32 7 63 7 44 0 61 -4 75 -20z
m1820 0 c15 -16 31 -20 90 -20 86 0 85 1 85 -110 0 -62 -3 -79 -16 -84 -9 -3
-78 -6 -154 -6 -116 0 -139 2 -144 16 -8 21 -8 209 1 217 3 4 32 7 63 7 44 0
61 -4 75 -20z m1860 0 c15 -16 31 -20 90 -20 86 0 85 1 85 -110 0 -62 -3 -79
-16 -84 -9 -3 -78 -6 -154 -6 -116 0 -139 2 -144 16 -8 21 -8 209 1 217 3 4
32 7 63 7 44 0 61 -4 75 -20z m-10285 -15 c0 -8 -7 -15 -15 -15 -8 0 -15 7
-15 15 0 8 7 15 15 15 8 0 15 -7 15 -15z m1830 -13 c0 -26 3 -28 31 -24 36 5
58 -18 59 -61 0 -52 -15 -67 -70 -66 l-50 2 0 88 c0 72 3 89 15 89 10 0 15
-10 15 -28z m1950 12 c0 -17 -22 -14 -28 4 -2 7 3 12 12 12 9 0 16 -7 16 -16z
m1724 -14 c34 -34 7 -39 -36 -8 -23 17 -49 1 -63 -36 -19 -53 42 -111 75 -71
13 16 40 21 40 7 0 -19 -40 -43 -70 -44 -41 -1 -70 28 -77 80 -5 36 -2 45 26
73 26 25 37 30 59 24 15 -3 36 -15 46 -25z m296 -58 l0 -89 -44 -1 c-51 -2
-70 14 -70 63 0 47 20 68 61 63 30 -4 33 -2 33 24 0 15 5 28 10 28 6 0 10 -36
10 -88z m1274 56 c8 -13 8 -23 0 -35 -9 -14 -8 -23 4 -40 13 -21 12 -26 -2
-48 -14 -21 -24 -25 -66 -25 l-50 0 0 83 c0 46 2 86 5 88 11 12 99 -7 109 -23z
m1814 10 c17 -15 15 -58 -5 -80 -9 -10 -29 -18 -45 -18 -24 0 -28 -4 -28 -30
0 -20 -5 -30 -15 -30 -12 0 -15 16 -15 83 0 46 2 86 4 88 8 8 90 -3 104 -13z
m382 -67 l0 -89 -42 0 c-50 -1 -78 20 -78 57 0 43 28 74 61 69 26 -4 29 -2 29
24 0 18 5 28 15 28 12 0 15 -17 15 -89z m124 78 c14 -7 27 -18 30 -25 8 -20
-15 -29 -26 -10 -10 18 -53 22 -63 6 -9 -15 14 -40 35 -40 10 0 28 -8 40 -18
18 -14 21 -25 16 -45 -13 -52 -126 -52 -126 -1 0 19 26 18 34 -2 4 -10 15 -14
33 -12 41 4 38 38 -4 52 -65 22 -82 75 -30 96 30 12 32 12 61 -1z m356 -79 c0
-53 -4 -90 -10 -90 -6 0 -10 37 -10 90 0 53 4 90 10 90 6 0 10 -37 10 -90z
m998 68 c17 -15 15 -58 -5 -80 -9 -10 -29 -18 -45 -18 -24 0 -28 -4 -28 -30 0
-20 -5 -30 -15 -30 -12 0 -15 16 -15 83 0 46 2 86 4 88 8 8 90 -3 104 -13z
m832 -68 c0 -73 -3 -90 -15 -90 -12 0 -15 17 -15 90 0 73 3 90 15 90 12 0 15
-17 15 -90z m907 63 c17 -23 4 -37 -16 -19 -22 20 -57 21 -65 1 -4 -10 9 -22
42 -37 36 -18 48 -29 50 -49 4 -37 -22 -54 -80 -50 -18 1 -48 27 -48 42 0 14
20 11 37 -7 21 -21 58 -14 58 10 0 13 -11 23 -34 31 -39 13 -61 39 -54 64 10
40 83 49 110 14z m1723 -1 c0 -26 2 -28 35 -24 30 4 36 1 45 -23 16 -42 13
-105 -5 -105 -11 0 -15 12 -15 50 0 38 -4 52 -16 57 -24 9 -44 -23 -44 -69 0
-21 -4 -38 -10 -38 -6 0 -10 37 -10 90 0 53 4 90 10 90 6 0 10 -13 10 -28z
m1570 -1 c0 -25 3 -28 25 -23 40 7 55 -13 55 -74 0 -30 -4 -54 -10 -54 -5 0
-10 20 -10 44 0 26 -6 48 -15 56 -25 20 -45 -5 -45 -56 0 -32 -4 -44 -15 -44
-12 0 -15 17 -15 90 0 73 3 90 15 90 10 0 15 -10 15 -29z m438 7 c17 -15 15
-58 -5 -80 -9 -10 -29 -18 -45 -18 -24 0 -28 -4 -28 -30 0 -20 -5 -30 -15 -30
-12 0 -15 16 -15 83 0 46 2 86 4 88 8 8 90 -3 104 -13z m482 -68 c0 -53 -4
-90 -10 -90 -6 0 -10 37 -10 90 0 53 4 90 10 90 6 0 10 -37 10 -90z m1903 79
c35 -19 49 -49 23 -49 -8 0 -16 7 -20 15 -7 20 -50 19 -67 -1 -7 -9 -13 -31
-13 -49 0 -57 43 -85 78 -50 15 16 36 20 36 8 -1 -31 -58 -57 -94 -43 -33 12
-48 44 -48 94 1 31 7 46 27 64 29 25 46 27 78 11z m327 -78 l0 -88 -50 -2
c-55 -1 -70 14 -70 66 1 43 23 66 59 61 28 -4 31 -2 31 24 0 18 5 28 15 28 12
0 15 -17 15 -89z m473 61 c38 -34 8 -92 -50 -92 -30 0 -33 -3 -33 -30 0 -16
-4 -30 -10 -30 -10 0 -15 162 -5 171 9 10 81 -4 98 -19z m165 16 c-6 -18 -28
-21 -28 -4 0 9 7 16 16 16 9 0 14 -5 12 -12z m1532 -16 c0 -26 3 -28 33 -24
41 5 59 -15 59 -63 0 -51 -16 -65 -73 -63 l-49 1 0 88 c0 72 3 89 15 89 10 0
15 -10 15 -28z m218 12 c22 -15 30 -44 13 -44 -5 0 -14 7 -21 15 -17 20 -54
15 -58 -7 -2 -12 8 -20 37 -28 48 -13 67 -40 51 -71 -22 -39 -91 -43 -114 -6
-15 24 1 33 24 12 13 -12 27 -15 45 -11 29 7 34 34 8 42 -65 20 -84 34 -81 61
2 17 12 32 28 40 33 16 41 16 68 -3z m362 -31 l0 -46 23 21 c24 23 47 29 47
12 0 -5 -9 -15 -20 -22 -26 -16 -25 -22 6 -64 32 -41 13 -46 -28 -7 l-28 27 0
-27 c0 -17 -5 -27 -15 -27 -12 0 -15 17 -15 90 0 73 3 90 15 90 11 0 15 -12
15 -47z m-22310 -38 l0 -75 40 0 c22 0 40 -4 40 -10 0 -5 -25 -10 -55 -10
l-55 0 0 85 c0 69 3 85 15 85 12 0 15 -15 15 -75z m1825 45 c9 -16 19 -30 23
-30 4 0 16 14 25 30 10 17 25 30 33 30 13 0 11 -7 -7 -37 -12 -21 -26 -42 -31
-47 -4 -6 -8 -27 -8 -49 0 -51 -24 -45 -28 8 -2 20 -14 55 -28 76 -28 45 -29
49 -9 49 8 0 21 -13 30 -30z m1855 20 c0 -5 -18 -10 -40 -10 -36 0 -40 -2 -40
-25 0 -22 4 -25 34 -25 19 0 38 -4 41 -10 4 -6 -10 -10 -34 -10 -39 0 -41 -2
-41 -30 0 -28 2 -30 40 -30 22 0 40 -4 40 -10 0 -5 -25 -10 -55 -10 l-55 0 0
85 0 85 55 0 c30 0 55 -4 55 -10z m4090 -25 c0 -35 0 -35 45 -35 45 0 45 0 45
35 0 24 5 35 15 35 12 0 15 -16 15 -85 0 -69 -3 -85 -15 -85 -11 0 -15 11 -15
41 l0 40 -42 -3 c-42 -3 -43 -4 -46 -40 -6 -72 -22 -38 -22 47 0 50 4 85 10
85 6 0 10 -16 10 -35z m287 -20 c21 -30 41 -55 46 -55 4 0 7 25 7 55 0 30 5
55 10 55 6 0 10 -35 10 -85 0 -104 -11 -109 -66 -27 l-39 57 -3 -57 c-2 -43
-7 -58 -17 -58 -12 0 -15 17 -15 85 0 104 12 109 67 30z m5613 -20 l0 -75 40
0 c22 0 40 -4 40 -10 0 -5 -25 -10 -55 -10 l-55 0 0 85 c0 69 3 85 15 85 12 0
15 -15 15 -75z m140 -10 c0 -69 -3 -85 -15 -85 -12 0 -15 16 -15 85 0 69 3 85
15 85 12 0 15 -16 15 -85z m71 18 l22 -68 22 65 c14 41 28 66 38 68 15 3 13
-9 -13 -78 -16 -45 -30 -84 -30 -86 0 -3 -7 -4 -16 -2 -9 2 -26 29 -39 63 -37
99 -38 105 -21 105 9 0 23 -25 37 -67z m400 12 c7 -30 15 -55 19 -55 4 0 12
25 19 56 17 75 40 71 62 -11 l16 -60 11 40 c6 22 12 49 14 60 2 11 11 21 20
23 15 3 14 -6 -6 -80 -26 -92 -49 -114 -61 -56 -4 18 -12 44 -18 58 -9 24 -11
22 -26 -30 -24 -80 -42 -76 -65 12 -10 40 -21 79 -23 86 -3 6 2 12 10 12 11 0
19 -18 28 -55z m769 -30 c0 -50 -4 -85 -10 -85 -6 0 -10 35 -10 85 0 50 4 85
10 85 6 0 10 -35 10 -85z m1160 74 c0 -6 -21 -39 -46 -75 l-46 -64 52 0 c31 0
49 -4 45 -10 -7 -11 -135 -14 -135 -3 0 3 22 37 50 75 l50 68 -45 0 c-25 0
-45 5 -45 10 0 6 27 10 60 10 36 0 60 -4 60 -11z m2090 -24 c0 -34 1 -35 40
-35 39 0 40 1 40 35 0 24 5 35 15 35 12 0 15 -16 15 -85 0 -69 -3 -85 -15 -85
-11 0 -15 11 -15 40 l0 40 -40 0 -40 0 0 -40 c0 -29 -4 -40 -15 -40 -12 0 -15
16 -15 85 0 69 3 85 15 85 10 0 15 -11 15 -35z m730 -70 c0 -87 -3 -105 -15
-105 -12 0 -15 18 -15 105 0 87 3 105 15 105 12 0 15 -18 15 -105z m2350 43
c15 -66 19 -64 40 20 16 61 36 54 58 -20 l19 -63 14 63 c8 37 18 62 26 62 15
0 16 -16 3 -56 -5 -16 -14 -48 -20 -71 -6 -24 -17 -43 -24 -43 -7 0 -21 27
-32 62 l-18 62 -19 -62 c-10 -35 -23 -62 -31 -62 -8 0 -22 32 -34 79 -26 93
-26 91 -8 91 8 0 18 -23 26 -62z m1530 27 c0 -34 1 -35 40 -35 39 0 40 1 40
35 0 24 5 35 15 35 12 0 15 -16 15 -85 0 -69 -3 -85 -15 -85 -11 0 -15 11 -15
40 l0 40 -40 0 -40 0 0 -40 c0 -29 -4 -40 -15 -40 -12 0 -15 16 -15 85 0 69 3
85 15 85 10 0 15 -11 15 -35z m-20670 10 c0 -8 7 -15 15 -15 8 0 15 -4 15 -10
0 -5 -7 -10 -15 -10 -11 0 -15 -11 -15 -40 0 -27 5 -43 15 -46 23 -9 18 -24
-9 -24 -28 0 -36 16 -36 70 0 21 -6 41 -12 44 -10 5 -10 7 0 12 6 3 12 12 12
20 0 8 7 14 15 14 8 0 15 -7 15 -15z m1640 0 c0 -8 7 -15 15 -15 8 0 15 -4 15
-10 0 -5 -7 -10 -15 -10 -10 0 -15 -10 -15 -34 0 -19 7 -41 15 -50 21 -21 19
-28 -7 -24 -20 3 -23 10 -26 53 -2 27 -9 53 -15 58 -9 7 -9 10 1 14 6 2 12 11
12 19 0 8 5 14 10 14 6 0 10 -7 10 -15z m320 0 c0 -8 7 -15 15 -15 8 0 15 -4
15 -10 0 -5 -7 -10 -15 -10 -11 0 -15 -11 -15 -40 0 -27 5 -43 15 -46 21 -8
19 -24 -3 -24 -29 0 -42 21 -42 66 0 24 -5 45 -12 48 -10 5 -10 7 0 12 6 3 12
12 12 20 0 8 7 14 15 14 8 0 15 -7 15 -15z m900 0 c0 -8 7 -15 15 -15 8 0 15
-4 15 -10 0 -5 -7 -10 -15 -10 -10 0 -15 -10 -15 -34 0 -19 7 -41 15 -50 21
-21 19 -28 -7 -24 -20 3 -23 10 -26 53 -2 27 -9 53 -15 58 -9 7 -9 10 1 14 6
2 12 11 12 19 0 8 5 14 10 14 6 0 10 -7 10 -15z m9530 0 c0 -8 7 -15 15 -15 8
0 15 -4 15 -10 0 -5 -7 -10 -15 -10 -10 0 -15 -10 -15 -34 0 -19 7 -41 15 -50
21 -21 19 -28 -7 -24 -20 3 -23 10 -26 53 -2 27 -9 53 -15 58 -9 7 -9 10 1 14
6 2 12 11 12 19 0 8 5 14 10 14 6 0 10 -7 10 -15z m6455 3 c25 -11 75 -94 75
-124 0 -10 -14 -14 -52 -15 -84 -2 -91 0 -130 44 -48 54 -46 80 5 88 20 3 40
9 44 12 10 10 29 8 58 -5z m1495 -2 c0 -8 6 -17 13 -20 10 -5 10 -7 0 -12 -15
-7 -18 -94 -3 -94 6 0 10 -5 10 -11 0 -6 -10 -9 -22 -7 -20 3 -23 10 -26 53
-2 27 -9 53 -15 58 -9 7 -9 10 1 14 6 2 12 11 12 19 0 8 7 14 15 14 8 0 15 -6
15 -14z m2815 -26 l39 -40 -41 -41 c-25 -25 -46 -39 -53 -34 -8 5 -2 18 21 41
l33 34 -32 33 c-28 29 -33 47 -12 47 3 0 24 -18 45 -40z m100 0 l39 -40 -42
-42 c-33 -33 -44 -40 -54 -30 -9 9 -6 18 17 42 l29 30 -28 29 c-25 26 -29 51
-7 51 4 0 25 -18 46 -40z m-25301 -12 c27 -38 20 -48 -29 -48 -47 0 -56 -9
-30 -30 13 -11 20 -11 40 0 29 16 43 7 25 -15 -16 -20 -74 -19 -91 1 -7 9 -13
31 -13 49 0 18 6 40 13 49 20 24 67 20 85 -6z m136 3 c5 -11 10 -40 10 -65 l0
-45 -46 2 c-76 3 -90 59 -20 73 20 3 36 10 36 15 0 16 -30 22 -45 9 -18 -15
-30 -7 -22 15 9 23 74 20 87 -4z m110 9 c0 -5 -9 -11 -19 -15 -15 -5 -21 -17
-23 -52 -2 -26 -9 -48 -15 -51 -10 -3 -13 14 -13 61 l0 64 35 1 c19 1 35 -3
35 -8z m120 -9 c16 -31 13 -111 -4 -111 -11 0 -16 15 -18 53 -3 44 -6 52 -23
52 -17 0 -21 -8 -25 -49 -8 -77 -30 -72 -30 7 l0 64 45 1 c35 2 46 -2 55 -17z
m70 -46 c0 -51 -3 -65 -15 -65 -12 0 -15 14 -15 65 0 51 3 65 15 65 12 0 15
-14 15 -65z m130 46 c16 -31 13 -111 -4 -111 -11 0 -16 15 -18 53 -3 44 -6 52
-23 52 -17 0 -21 -8 -25 -49 -8 -77 -30 -72 -30 7 l0 64 45 1 c35 2 46 -2 55
-17z m148 -60 c-3 -71 -5 -77 -30 -89 -20 -9 -32 -10 -52 -1 -38 18 -32 31 10
23 26 -5 39 -3 45 7 14 23 11 25 -25 21 -28 -3 -37 1 -51 22 -17 25 -14 57 7
84 6 7 29 11 55 10 l44 -1 -3 -76z m1113 63 c7 -9 13 -31 13 -49 0 -18 -6 -40
-13 -49 -17 -20 -74 -21 -90 -2 -16 19 -17 66 -2 94 14 27 71 31 92 6z m69
-34 c0 -37 4 -52 16 -57 23 -9 36 10 41 61 8 68 23 56 23 -17 l0 -64 -45 -1
c-53 -2 -65 13 -65 82 0 34 4 46 15 46 11 0 15 -12 15 -50z m232 -2 c3 -45 6
-53 23 -53 17 0 20 8 23 53 2 37 7 52 18 52 11 0 14 -15 14 -65 l0 -65 -43 0
c-24 0 -48 5 -55 12 -18 18 -16 118 2 118 11 0 16 -15 18 -52z m352 30 c27
-38 20 -48 -29 -48 -47 0 -56 -9 -30 -30 13 -11 20 -11 40 0 29 16 43 7 25
-15 -16 -20 -74 -19 -91 1 -7 9 -13 31 -13 49 0 18 6 40 13 49 20 24 67 20 85
-6z m1136 3 c16 -31 13 -111 -4 -111 -11 0 -16 15 -18 53 -3 44 -6 52 -23 52
-17 0 -21 -8 -25 -49 -8 -77 -30 -72 -30 7 l0 64 45 1 c35 2 46 -2 55 -17z
m217 7 c6 -7 13 -23 16 -35 5 -21 2 -23 -39 -23 -33 0 -44 -4 -44 -15 0 -22
29 -30 52 -16 25 15 35 7 18 -14 -16 -20 -59 -19 -82 2 -22 20 -23 70 -1 95
18 21 66 24 80 6z m113 2 c0 -5 -9 -12 -20 -15 -16 -5 -20 -15 -20 -56 0 -37
-4 -49 -15 -49 -12 0 -15 14 -15 64 l0 64 35 0 c19 0 35 -4 35 -8z m198 -2 c7
-7 12 -35 12 -63 l0 -52 -45 -1 c-35 -2 -46 2 -55 18 -14 26 19 60 57 60 25 0
26 1 11 16 -13 13 -20 14 -38 4 -26 -14 -38 -6 -20 15 15 18 61 20 78 3z m72
-53 c0 -51 -3 -65 -15 -65 -12 0 -15 14 -15 65 0 51 3 65 15 65 12 0 15 -14
15 -65z m127 53 c15 -12 18 -118 3 -118 -5 0 -10 20 -10 44 0 26 -6 48 -15 56
-25 20 -45 -5 -45 -56 0 -32 -4 -44 -15 -44 -12 0 -15 14 -15 64 l0 64 42 0
c23 1 48 -4 55 -10z m211 0 c7 -6 12 -33 12 -65 0 -70 -23 -68 -30 3 -4 35 -9
49 -20 49 -11 0 -16 -14 -18 -52 -2 -38 -7 -53 -18 -53 -10 0 -14 13 -14 49 0
52 -8 65 -34 55 -12 -4 -16 -20 -16 -55 0 -37 -4 -49 -15 -49 -12 0 -15 14
-15 64 l0 64 78 0 c42 0 83 -5 90 -10z m139 0 c6 -7 13 -23 16 -35 5 -21 2
-23 -39 -23 -33 0 -44 -4 -44 -15 0 -22 29 -30 52 -16 25 15 35 7 18 -14 -16
-20 -59 -19 -82 2 -22 20 -23 70 -1 95 18 21 66 24 80 6z m143 -7 c16 -31 13
-111 -4 -111 -11 0 -16 15 -18 53 -3 44 -6 52 -23 52 -17 0 -21 -8 -25 -49 -8
-77 -30 -72 -30 7 l0 64 45 1 c35 2 46 -2 55 -17z m1244 3 c18 -18 21 -66 6
-95 -13 -24 -72 -26 -91 -3 -7 9 -13 31 -13 49 0 18 6 40 13 49 17 20 65 21
85 0z m216 -11 c26 -70 26 -71 42 -23 13 40 38 67 38 41 0 -26 -43 -121 -55
-121 -12 0 -55 94 -55 120 0 21 21 9 30 -17z m204 5 c46 -66 -28 -144 -86 -91
-22 20 -23 70 -1 95 23 25 68 23 87 -4z m1570 0 c27 -38 20 -48 -29 -48 -47 0
-56 -9 -30 -30 13 -11 20 -11 40 0 29 16 43 7 25 -15 -16 -20 -74 -19 -91 1
-7 9 -13 31 -13 49 0 18 6 40 13 49 20 24 67 20 85 -6z m61 -10 c12 -53 19
-56 31 -13 14 51 35 51 49 1 12 -43 19 -40 30 12 4 18 13 32 21 32 10 0 13 -6
9 -19 -3 -10 -11 -38 -18 -62 -16 -56 -42 -64 -51 -15 -4 20 -11 36 -16 36 -5
0 -12 -16 -16 -36 -10 -54 -34 -40 -55 34 -14 50 -15 62 -4 62 7 0 17 -15 20
-32z m1305 22 c0 -5 -9 -11 -19 -15 -15 -5 -21 -17 -23 -52 -2 -26 -9 -48 -15
-51 -10 -3 -13 14 -13 61 l0 64 35 1 c19 1 35 -3 35 -8z m114 -12 c46 -66 -28
-144 -86 -91 -22 20 -23 70 -1 95 23 25 68 23 87 -4z m434 10 c5 -7 13 -23 16
-35 7 -22 4 -23 -38 -23 -33 0 -46 -4 -46 -14 0 -19 39 -31 53 -17 15 15 27
14 27 -3 0 -32 -72 -35 -94 -4 -32 46 -7 108 43 108 16 0 33 -6 39 -12z m126
6 c12 -5 16 -20 16 -64 l0 -58 -47 2 c-43 1 -48 4 -51 25 -5 29 20 51 57 51
23 0 24 1 9 16 -13 13 -19 14 -36 3 -25 -16 -40 -5 -22 16 13 15 46 20 74 9z
m1203 -6 c6 -7 13 -23 16 -35 5 -21 2 -23 -39 -23 -33 0 -44 -4 -44 -15 0 -22
29 -30 52 -16 25 15 35 7 18 -14 -16 -20 -59 -19 -82 2 -22 20 -23 70 -1 95
18 21 66 24 80 6z m113 2 c0 -5 -9 -11 -19 -15 -15 -5 -21 -17 -23 -52 -2 -26
-9 -48 -15 -51 -10 -3 -13 14 -13 61 l0 64 35 1 c19 1 35 -3 35 -8z m110 -5
c17 -21 4 -32 -20 -17 -26 16 -40 15 -40 -2 0 -7 15 -17 32 -22 59 -17 44 -74
-19 -74 -21 0 -36 6 -40 15 -7 21 4 32 19 17 16 -16 48 -15 48 2 0 7 -15 17
-32 22 -35 10 -47 36 -28 59 16 20 64 19 80 0z m132 -2 c22 -20 23 -70 1 -95
-23 -25 -68 -23 -87 4 -46 66 28 144 86 91z m148 -2 c16 -31 13 -111 -4 -111
-11 0 -16 15 -18 53 -3 44 -6 52 -23 52 -17 0 -21 -8 -25 -49 -8 -77 -30 -72
-30 7 l0 64 45 1 c35 2 46 -2 55 -17z m128 7 c7 -7 12 -35 12 -64 l0 -51 -44
-1 c-49 -1 -71 16 -61 47 4 13 18 23 41 27 19 3 34 10 34 15 0 15 -30 23 -43
10 -15 -15 -27 -14 -27 3 0 26 66 36 88 14z m1116 -4 c18 -18 21 -66 6 -95
-13 -24 -72 -26 -91 -3 -7 9 -13 31 -13 49 0 18 6 40 13 49 17 20 65 21 85 0z
m143 4 c19 -15 18 -118 -1 -118 -11 0 -16 15 -18 53 -3 44 -6 52 -23 52 -17 0
-20 -8 -23 -52 -2 -38 -7 -53 -18 -53 -11 0 -14 15 -14 64 l0 64 42 0 c23 1
48 -4 55 -10z m74 -28 c7 -22 15 -40 19 -40 4 0 12 18 19 40 7 23 18 40 26 40
19 0 19 5 -10 -76 -26 -69 -58 -110 -78 -97 -6 4 -4 11 6 18 22 16 21 33 -3
97 -24 63 -23 58 -5 58 8 0 19 -17 26 -40z m1089 21 c5 -11 10 -40 10 -65 l0
-45 -46 2 c-76 3 -90 59 -20 73 20 3 36 10 36 15 0 16 -30 22 -45 9 -18 -15
-30 -7 -22 15 9 23 74 20 87 -4z m220 4 c19 -23 4 -31 -26 -14 -23 12 -27 11
-40 -6 -8 -10 -14 -24 -14 -30 0 -6 6 -20 14 -30 13 -17 17 -18 40 -6 30 17
45 9 26 -14 -16 -19 -74 -20 -89 -1 -16 19 -17 66 -2 94 14 26 71 31 91 7z
m1564 -7 c46 -66 -28 -144 -86 -91 -22 20 -23 70 -1 95 23 25 68 23 87 -4z
m278 5 c22 -20 23 -70 1 -95 -23 -25 -68 -23 -87 4 -46 66 28 144 86 91z m350
0 c10 -9 18 -24 18 -35 0 -14 -8 -18 -39 -18 -45 0 -58 -12 -36 -30 12 -10 21
-10 42 -1 30 14 41 8 23 -14 -16 -19 -74 -20 -89 -1 -16 19 -17 66 -2 94 14
27 56 29 83 5z m142 1 c18 -18 21 -66 6 -95 -13 -24 -72 -26 -91 -3 -7 9 -13
31 -13 49 0 18 6 40 13 49 17 20 65 21 85 0z m148 -1 c21 -19 23 -71 3 -97
-10 -13 -23 -17 -44 -14 -27 4 -31 2 -31 -19 0 -14 -6 -23 -15 -23 -12 0 -15
16 -15 84 l0 84 42 0 c26 1 50 -6 60 -15z m202 -5 c27 -38 20 -48 -29 -48 -47
0 -56 -9 -30 -30 13 -11 20 -11 40 0 29 16 43 7 25 -15 -16 -20 -74 -19 -91 1
-7 9 -13 31 -13 49 0 18 6 40 13 49 20 24 67 20 85 -6z m1080 0 c46 -66 -28
-144 -86 -91 -22 20 -23 70 -1 95 23 25 68 23 87 -4z m214 -45 c2 -37 -1 -63
-7 -63 -5 0 -11 24 -13 53 -3 44 -6 52 -23 52 -17 0 -20 -8 -23 -52 -2 -38 -7
-53 -18 -53 -10 0 -14 13 -14 49 0 28 -5 53 -10 56 -21 13 -40 -17 -40 -61 0
-24 -4 -44 -10 -44 -6 0 -10 28 -10 64 l0 63 83 -1 82 -1 3 -62z m130 55 c5
-7 13 -23 16 -35 7 -22 4 -23 -38 -23 -33 0 -46 -4 -46 -14 0 -19 39 -31 53
-17 15 15 27 14 27 -3 0 -32 -72 -35 -94 -4 -32 46 -7 108 43 108 16 0 33 -6
39 -12z m513 -4 c7 -9 13 -31 13 -49 0 -18 -6 -40 -13 -49 -17 -20 -74 -21
-90 -2 -16 19 -17 66 -2 94 14 27 71 31 92 6z m220 -24 c7 -22 15 -40 19 -40
4 0 12 18 19 40 7 24 18 40 27 40 9 0 13 -6 11 -12 -3 -7 -14 -37 -23 -65 -12
-35 -23 -53 -34 -53 -11 0 -22 18 -34 53 -9 28 -20 58 -23 65 -2 6 2 12 11 12
9 0 20 -16 27 -40z m191 23 c22 -20 23 -70 1 -95 -23 -25 -68 -23 -87 4 -46
66 28 144 86 91z m338 9 c0 -4 -10 -12 -22 -17 -19 -8 -24 -19 -26 -57 -5 -71
-22 -58 -22 15 l0 64 35 1 c19 1 35 -2 35 -6z m50 -57 c0 -51 -3 -65 -15 -65
-12 0 -15 14 -15 65 0 51 3 65 15 65 12 0 15 -14 15 -65z m60 19 c14 -50 22
-48 40 9 6 20 18 37 26 37 11 0 9 -13 -10 -62 -30 -82 -49 -86 -71 -16 -10 29
-20 59 -23 66 -2 6 3 12 11 12 9 0 19 -18 27 -46z m1398 34 c5 -7 13 -23 16
-35 7 -22 4 -23 -38 -23 -33 0 -46 -4 -46 -14 0 -19 39 -31 53 -17 15 15 27
14 27 -3 0 -32 -72 -35 -94 -4 -32 46 -7 108 43 108 16 0 33 -6 39 -12z m446
-10 c46 -66 -28 -144 -86 -91 -22 20 -23 70 -1 95 23 25 68 23 87 -4z m136 7
c17 -21 4 -32 -20 -17 -23 14 -50 6 -51 -17 -4 -52 12 -69 46 -51 29 16 43 7
25 -15 -16 -20 -59 -19 -82 2 -22 20 -23 70 -1 95 20 22 66 24 83 3z m257 3
c6 -7 13 -23 16 -35 5 -21 2 -23 -39 -23 -33 0 -44 -4 -44 -15 0 -22 29 -30
52 -16 25 15 35 7 18 -14 -16 -20 -59 -19 -82 2 -22 20 -23 70 -1 95 18 21 66
24 80 6z m657 -10 c46 -66 -28 -144 -86 -91 -22 20 -23 70 -1 95 23 25 68 23
87 -4z m147 6 c17 -21 17 -78 -1 -99 -9 -11 -25 -15 -47 -13 -29 4 -33 1 -33
-19 0 -13 -4 -23 -10 -23 -6 0 -10 34 -10 83 l0 84 44 1 c29 2 48 -3 57 -14z
m-541 -44 c0 -23 -13 -32 -34 -24 -19 7 -21 40 -3 47 20 7 37 -4 37 -23z
m-8610 0 c0 -5 -18 -10 -40 -10 -22 0 -40 5 -40 10 0 6 18 10 40 10 22 0 40
-4 40 -10z m-15500 -70 l0 -60 -60 0 -60 0 0 60 0 60 60 0 60 0 0 -60z m160 0
l0 -60 -60 0 -60 0 0 60 0 60 60 0 60 0 0 -60z m16313 15 c1 -5 -6 -11 -15
-13 -11 -2 -18 3 -18 13 0 17 30 18 33 0z m58 0 c-1 -15 -24 -12 -29 3 -3 9 2
13 12 10 10 -1 17 -7 17 -13z m64 6 c7 -12 -12 -24 -25 -16 -11 7 -4 25 10 25
5 0 11 -4 15 -9z m5148 -6 c1 -5 -6 -11 -15 -13 -11 -2 -18 3 -18 13 0 17 30
18 33 0z m58 0 c-1 -15 -24 -12 -29 3 -3 9 2 13 12 10 10 -1 17 -7 17 -13z
m64 6 c7 -12 -12 -24 -25 -16 -11 7 -4 25 10 25 5 0 11 -4 15 -9z m2865 -6 c0
-8 -7 -15 -15 -15 -8 0 -15 7 -15 15 0 8 7 15 15 15 8 0 15 -7 15 -15z m60 0
c0 -8 -7 -15 -15 -15 -8 0 -15 7 -15 15 0 8 7 15 15 15 8 0 15 -7 15 -15z m60
0 c0 -8 -7 -15 -15 -15 -8 0 -15 7 -15 15 0 8 7 15 15 15 8 0 15 -7 15 -15z"/>
<path d="M26770 16690 c0 -11 9 -29 20 -40 11 -11 20 -33 20 -50 0 -17 -9 -39
-20 -50 -11 -11 -20 -29 -20 -40 0 -19 7 -20 110 -20 l110 0 0 110 0 110 -110
0 c-103 0 -110 -1 -110 -20z"/>
<path d="M29128 16652 c5 -9 12 -24 15 -32 3 -9 6 -4 6 11 1 15 -6 29 -14 33
-12 4 -13 2 -7 -12z"/>
<path d="M28955 16600 c3 -5 8 -10 11 -10 2 0 4 5 4 10 0 6 -5 10 -11 10 -5 0
-7 -4 -4 -10z"/>
<path d="M29020 16590 c0 -5 5 -10 10 -10 6 0 10 5 10 10 0 6 -4 10 -10 10 -5
0 -10 -4 -10 -10z"/>
<path d="M28965 16550 c-3 -5 -1 -10 4 -10 6 0 11 5 11 10 0 6 -2 10 -4 10 -3
0 -8 -4 -11 -10z"/>
<path d="M28993 16543 c3 -16 0 -23 -9 -23 -8 0 -14 -4 -14 -10 0 -5 5 -10 11
-10 6 0 9 -9 6 -20 -7 -26 -3 -25 17 4 14 22 14 27 0 53 -13 23 -15 24 -11 6z"/>
<path d="M21072 16580 c-58 -72 -71 -106 -38 -98 7 2 41 36 76 76 51 60 60 75
50 87 -7 8 -15 15 -19 14 -3 0 -34 -36 -69 -79z"/>
<path d="M21719 16713 c-10 -11 -14 -46 -14 -113 0 -131 -1 -130 135 -130 136
0 135 -1 135 130 0 131 1 130 -135 130 -88 0 -110 -3 -121 -17z m41 -13 c0
-11 5 -20 10 -20 6 0 10 9 10 20 0 22 15 27 24 8 5 -10 7 -10 12 0 9 19 24 14
24 -8 0 -11 5 -20 10 -20 6 0 10 9 10 20 0 22 15 27 24 8 5 -10 7 -10 12 0 9
19 24 14 24 -8 0 -11 5 -20 10 -20 6 0 10 7 10 15 0 8 4 15 9 15 26 0 25 -205
-1 -222 -18 -11 -200 -10 -218 2 -13 9 -13 11 0 20 10 6 11 10 3 10 -22 0 -14
28 10 33 20 4 20 4 -4 6 -22 1 -26 6 -26 31 0 25 4 30 26 31 l26 1 -24 7 c-30
8 -40 31 -14 32 10 0 13 3 6 6 -27 10 -12 49 20 52 4 1 7 -8 7 -19z"/>
<path d="M23235 16719 c-4 -5 -18 -14 -30 -19 -59 -22 -78 -120 -35 -180 62
-87 186 -75 233 23 43 86 -21 187 -119 187 -23 0 -46 -5 -49 -11z m73 -25 c36
-10 25 -26 -13 -18 -30 5 -39 2 -65 -24 -37 -37 -39 -74 -5 -107 51 -52 135
-15 135 60 0 24 4 34 11 29 20 -12 3 -87 -26 -111 -36 -32 -95 -31 -132 1 -54
47 -28 156 41 169 11 2 23 5 26 6 3 0 15 -2 28 -5z m7 -93 c0 -41 -25 -62 -52
-45 -41 26 -21 87 26 82 22 -3 26 -8 26 -37z"/>
<path d="M24643 16720 c-50 -30 -63 -66 -63 -170 l0 -90 90 0 c104 0 140 13
170 63 24 39 26 107 5 148 -22 42 -71 69 -125 69 -27 0 -58 -8 -77 -20z m127
-25 c32 -16 33 -53 1 -39 -9 4 -30 9 -48 12 -40 5 -73 -25 -73 -68 0 -63 77
-93 123 -47 l22 22 -27 3 c-31 4 -31 4 -22 26 4 11 19 16 45 16 33 0 39 -3 39
-20 0 -53 -57 -110 -110 -110 -53 0 -110 57 -110 110 0 33 28 78 58 94 35 20
66 20 102 1z"/>
<path d="M20105 16659 c-5 -20 -15 -28 -37 -33 -31 -6 -31 -6 -12 -27 10 -12
17 -32 16 -45 -4 -27 0 -29 29 -13 16 8 26 7 46 -6 l26 -17 -6 30 c-4 22 -1
34 13 47 24 21 17 35 -16 35 -13 0 -24 4 -24 8 0 5 -6 17 -14 28 -14 18 -15
18 -21 -7z"/>
<path d="M2513 16667 l-42 -32 -1 -72 c0 -66 2 -73 20 -73 17 0 20 7 20 50 l0
50 50 0 50 0 0 -50 c0 -43 3 -50 20 -50 18 0 20 7 20 73 l-1 72 -44 33 c-24
17 -45 32 -47 31 -2 0 -22 -15 -45 -32z"/>
<path d="M23926 16695 c-6 -16 2 -45 13 -45 4 0 17 7 29 16 18 13 21 19 11 30
-15 18 -45 18 -53 -1z"/>
<path d="M24021 16696 c-10 -11 -7 -17 11 -30 32 -22 38 -20 38 14 0 23 -5 30
-19 30 -10 0 -24 -6 -30 -14z"/>
<path d="M23965 16626 c-23 -34 -5 -66 35 -66 40 0 58 32 35 66 -8 13 -24 24
-35 24 -11 0 -27 -11 -35 -24z m53 -24 c3 -16 -2 -22 -17 -22 -26 0 -36 17
-20 36 16 19 33 13 37 -14z"/>
<path d="M23885 16615 c-20 -15 -20 -15 0 -30 25 -20 40 -14 40 15 0 29 -15
35 -40 15z"/>
<path d="M24072 16603 c4 -33 20 -39 43 -17 16 17 16 18 -1 31 -29 21 -46 16
-42 -14z"/>
<path d="M23930 16520 c0 -32 9 -36 41 -19 20 10 20 11 3 30 -26 28 -44 24
-44 -11z"/>
<path d="M24026 16531 c-17 -19 -17 -20 3 -30 32 -17 41 -13 41 19 0 35 -18
39 -44 11z"/>
<path d="M3333 16674 c-7 -19 2 -28 22 -21 19 8 19 23 0 31 -9 3 -18 -1 -22
-10z"/>
<path d="M25370 16600 l0 -74 33 32 c18 18 36 32 40 32 4 0 7 -15 7 -32 l0
-33 37 38 38 37 -38 37 -37 38 0 -33 c0 -17 -3 -32 -7 -32 -4 0 -22 14 -40 32
l-33 32 0 -74z"/>
<path d="M4296 16617 c-12 -9 -17 -24 -14 -47 3 -31 6 -35 33 -35 27 0 30 3
33 37 4 44 -23 66 -52 45z"/>
<path d="M4467 16618 c-28 -15 -19 -28 18 -28 26 0 33 4 29 14 -8 20 -27 26
-47 14z"/>
<path d="M5383 16563 c-13 -2 -23 -10 -23 -18 0 -20 28 -26 45 -9 16 16 20 35
8 33 -5 -1 -18 -4 -30 -6z"/>
<path d="M5837 16618 c-26 -14 -20 -28 13 -28 19 0 30 5 30 14 0 19 -22 26
-43 14z"/>
<path d="M6347 16618 c-28 -15 -19 -28 18 -28 26 0 33 4 29 14 -8 20 -27 26
-47 14z"/>
<path d="M7095 16563 c-30 -7 -42 -22 -26 -32 20 -13 51 -1 51 20 0 11 -1 18
-2 18 -2 -1 -12 -3 -23 -6z"/>
<path d="M7248 16617 c-21 -17 -27 -38 -17 -65 7 -18 15 -23 36 -20 24 3 28 8
31 40 4 43 -23 67 -50 45z"/>
<path d="M7418 16617 c-21 -17 -27 -38 -17 -65 7 -18 15 -23 36 -20 24 3 28 8
31 40 4 43 -23 67 -50 45z"/>
<path d="M7737 16619 c-24 -14 -23 -75 2 -88 31 -17 56 11 52 61 -1 24 -32 39
-54 27z"/>
<path d="M7896 16614 c-30 -30 -16 -74 24 -74 27 0 40 15 40 45 0 15 -27 45
-40 45 -5 0 -16 -7 -24 -16z"/>
<path d="M28007 16573 c-12 -12 -7 -50 8 -63 32 -26 78 25 49 54 -16 16 -46
21 -57 9z"/>
<path d="M3474 16539 c-7 -12 15 -31 28 -23 4 3 8 12 8 20 0 17 -26 19 -36 3z"/>
<path d="M151 16026 c-13 -7 -30 -24 -37 -37 -17 -31 -19 -218 -2 -254 24 -52
41 -55 368 -55 327 0 344 3 368 55 7 14 12 69 12 125 0 110 -11 145 -51 166
-39 20 -622 20 -658 0z m161 -135 l38 -54 0 56 c0 44 3 57 15 57 12 0 15 -16
15 -85 0 -105 -11 -109 -69 -28 l-41 58 0 -58 c0 -44 -3 -57 -15 -57 -12 0
-15 16 -15 86 0 75 2 85 17 82 10 -2 34 -28 55 -57z m200 2 c10 -9 18 -27 18
-40 0 -21 -4 -23 -47 -23 -43 -1 -46 -2 -30 -15 15 -10 25 -11 43 -3 29 13 42
4 24 -17 -17 -20 -69 -19 -92 2 -22 20 -23 70 -1 95 20 22 61 23 85 1z m76
-25 l9 -43 12 43 c15 55 39 53 56 -3 l12 -40 7 43 c6 33 12 42 28 42 14 0 18
-5 13 -19 -3 -10 -11 -38 -18 -62 -17 -60 -42 -63 -58 -8 l-13 41 -11 -38 c-7
-28 -16 -39 -29 -39 -15 0 -23 14 -36 63 -16 59 -16 62 1 62 13 0 20 -12 27
-42z"/>
<path d="M445 15870 c-4 -6 7 -10 25 -10 18 0 29 4 25 10 -3 6 -15 10 -25 10
-10 0 -22 -4 -25 -10z"/>
<path d="M1094 16006 l-34 -34 0 -112 0 -112 34 -34 34 -34 532 0 532 0 34 34
34 34 0 112 0 112 -34 34 -34 34 -532 0 -532 0 -34 -34z m796 -74 c0 -26 3
-28 33 -24 41 5 59 -15 59 -63 0 -51 -16 -65 -73 -63 l-49 1 0 88 c0 72 3 89
15 89 10 0 15 -10 15 -28z m-650 -12 c15 -37 21 -37 42 0 10 18 25 30 37 30
20 0 19 -3 -9 -49 -19 -30 -30 -62 -30 -85 0 -29 -4 -36 -20 -36 -16 0 -20 7
-20 38 0 22 -10 53 -25 77 -30 48 -30 55 -6 55 11 0 23 -12 31 -30z m420 10
c0 -11 7 -20 15 -20 8 0 15 -7 15 -15 0 -8 -7 -15 -15 -15 -10 0 -15 -10 -15
-30 0 -18 6 -33 15 -36 27 -11 17 -36 -12 -32 -25 3 -28 7 -31 48 -2 24 -8 51
-15 58 -7 9 -7 16 -1 20 6 4 13 15 17 25 9 23 27 22 27 -3z m-212 -51 c13 -25
8 -64 -10 -86 -15 -18 -68 -16 -90 4 -10 9 -18 30 -18 48 0 69 86 94 118 34z
m670 -3 c18 -35 8 -46 -39 -46 -26 0 -38 -4 -33 -11 4 -6 20 -8 40 -4 43 8 48
-18 6 -33 -36 -12 -70 1 -82 34 -31 81 70 137 108 60z m-606 -13 c3 -40 6 -48
23 -48 17 0 20 8 23 48 3 39 6 48 20 45 13 -2 18 -16 20 -57 2 -30 -1 -58 -5
-62 -15 -15 -94 -14 -104 2 -5 8 -9 38 -9 67 0 39 4 52 14 52 11 0 16 -14 18
-47z m238 -3 c0 -42 3 -50 19 -50 22 0 31 19 31 66 0 24 5 34 15 34 12 0 15
-14 15 -64 l0 -63 -50 -2 c-58 -1 -70 13 -70 83 0 39 3 46 20 46 17 0 20 -7
20 -50z"/>
<path d="M1896 15862 c-10 -30 4 -53 28 -50 31 4 30 62 -1 66 -14 2 -23 -3
-27 -16z"/>
<path d="M1366 15862 c-10 -30 4 -53 28 -50 31 4 30 62 -1 66 -14 2 -23 -3
-27 -16z"/>
<path d="M2045 15870 c-4 -6 5 -10 19 -10 14 0 26 5 26 10 0 6 -9 10 -19 10
-11 0 -23 -4 -26 -10z"/>
<path d="M19823 15934 c-7 -19 11 -39 26 -30 16 10 13 33 -4 40 -9 3 -18 -1
-22 -10z m27 -14 c0 -5 -4 -10 -10 -10 -5 0 -10 5 -10 10 0 6 5 10 10 10 6 0
10 -4 10 -10z"/>
<path d="M19737 15878 c-25 -20 -28 -29 -25 -68 3 -40 7 -47 40 -65 36 -19 36
-19 72 0 29 16 36 25 36 50 0 23 8 37 30 53 39 30 41 57 3 47 -35 -9 -70 -9
-103 -1 -18 5 -33 0 -53 -16z m78 -4 c23 -15 27 -15 50 0 30 19 35 20 35 3 0
-8 -11 -20 -25 -27 -19 -10 -25 -21 -25 -47 0 -18 -4 -33 -10 -33 -5 0 -10 15
-10 33 0 26 -6 36 -30 51 -17 9 -28 22 -25 27 8 12 12 12 40 -7z m-31 -25 c30
-17 36 -27 36 -54 0 -48 -22 -62 -62 -38 -25 14 -34 27 -36 52 -3 27 11 61 24
61 1 0 19 -9 38 -21z"/>
<path d="M21891 15982 c-12 -22 -15 -150 -5 -176 5 -12 21 -16 75 -16 l69 0 0
-29 c0 -34 22 -46 64 -35 49 12 66 48 66 135 0 68 -3 81 -24 106 -23 27 -28
28 -129 31 -97 4 -106 2 -116 -16z m231 -19 c40 -36 11 -89 -52 -95 -30 -3
-36 -7 -40 -33 -5 -29 -6 -30 -65 -30 l-60 0 -3 88 -3 87 102 0 c81 0 106 -3
121 -17z m2 -205 c-12 -12 -28 -18 -48 -16 -30 3 -31 5 -31 52 l0 49 45 11 45
11 3 -44 c2 -30 -2 -49 -14 -63z"/>
<path d="M21945 15940 c-4 -6 7 -10 25 -10 18 0 29 4 25 10 -3 6 -15 10 -25
10 -10 0 -22 -4 -25 -10z"/>
<path d="M21948 15893 c6 -2 18 -2 25 0 6 3 1 5 -13 5 -14 0 -19 -2 -12 -5z"/>
<path d="M2610 15940 c0 -27 3 -30 30 -30 27 0 30 3 30 30 0 27 -3 30 -30 30
-27 0 -30 -3 -30 -30z"/>
<path d="M2770 15940 c0 -27 3 -30 30 -30 27 0 30 3 30 30 0 27 -3 30 -30 30
-27 0 -30 -3 -30 -30z"/>
<path d="M3550 15860 l0 -90 130 0 130 0 0 70 0 70 -73 0 c-61 0 -77 3 -92 20
-12 13 -31 20 -57 20 l-38 0 0 -90z"/>
<path d="M5370 15860 l0 -90 130 0 130 0 0 70 0 70 -73 0 c-61 0 -77 3 -92 20
-12 13 -31 20 -57 20 l-38 0 0 -90z"/>
<path d="M7150 15860 l0 -90 130 0 130 0 0 70 0 70 -73 0 c-61 0 -77 3 -92 20
-12 13 -31 20 -57 20 l-38 0 0 -90z"/>
<path d="M9590 15860 l0 -90 130 0 130 0 0 70 0 70 -73 0 c-61 0 -77 3 -92 20
-12 13 -31 20 -57 20 l-38 0 0 -90z"/>
<path d="M11170 15860 l0 -90 130 0 130 0 0 70 0 70 -73 0 c-61 0 -77 3 -92
20 -12 13 -31 20 -57 20 l-38 0 0 -90z"/>
<path d="M12990 15860 l0 -90 130 0 130 0 0 70 0 70 -73 0 c-61 0 -77 3 -92
20 -12 13 -31 20 -57 20 l-38 0 0 -90z"/>
<path d="M14850 15860 l0 -90 130 0 130 0 0 70 0 70 -73 0 c-61 0 -77 3 -92
20 -12 13 -31 20 -57 20 l-38 0 0 -90z"/>
<path d="M6520 15876 c-26 -32 13 -97 41 -69 16 16 14 63 -2 74 -19 12 -25 11
-39 -5z"/>
<path d="M10400 15876 c-26 -32 13 -97 41 -69 16 16 14 63 -2 74 -19 12 -25
11 -39 -5z"/>
<path d="M11670 15905 c0 -20 5 -25 25 -25 29 0 45 28 24 41 -27 17 -49 10
-49 -16z"/>
<path d="M11670 15830 c0 -25 4 -30 24 -30 13 0 30 7 37 16 11 14 10 18 -6 30
-33 24 -55 18 -55 -16z"/>
<path d="M13490 15896 c0 -28 4 -36 18 -36 28 0 44 16 40 41 -2 18 -10 25 -30
27 -26 3 -28 1 -28 -32z"/>
<path d="M13872 15878 c-28 -28 -3 -85 32 -72 27 10 15 84 -14 84 -3 0 -11 -5
-18 -12z"/>
<path d="M15350 15896 c0 -28 4 -36 18 -36 28 0 44 16 40 41 -2 18 -10 25 -30
27 -26 3 -28 1 -28 -32z"/>
<path d="M20820 15896 c0 -28 4 -36 18 -36 28 0 44 16 40 41 -2 18 -10 25 -30
27 -26 3 -28 1 -28 -32z"/>
<path d="M23531 15881 c-16 -11 -18 -58 -2 -74 28 -28 67 37 41 69 -14 16 -20
17 -39 5z"/>
<path d="M24000 15900 c0 -34 23 -49 49 -33 37 24 21 63 -26 63 -19 0 -23 -5
-23 -30z"/>
<path d="M25792 15878 c-25 -25 -8 -78 25 -78 22 0 36 40 24 66 -12 26 -30 31
-49 12z"/>
<path d="M25065 15910 c-3 -5 -19 -10 -36 -10 -54 0 -27 -33 61 -74 56 -26
110 -34 110 -16 0 6 -20 25 -45 42 -43 31 -56 48 -35 48 6 0 10 5 10 10 0 6
-13 10 -29 10 -17 0 -33 -4 -36 -10z m95 -80 c0 -5 -4 -10 -10 -10 -5 0 -10 5
-10 10 0 6 5 10 10 10 6 0 10 -4 10 -10z"/>
<path d="M4180 15875 c-11 -13 -8 -15 19 -15 33 0 42 14 15 24 -21 8 -20 8
-34 -9z"/>
<path d="M4328 15833 c-10 -2 -18 -11 -18 -19 0 -22 44 -14 48 9 4 17 1 18
-30 10z"/>
<path d="M4880 15875 c-15 -18 -10 -45 13 -59 15 -9 21 -7 33 8 18 25 18 31
-2 50 -19 20 -28 20 -44 1z"/>
<path d="M5999 15869 c-13 -25 2 -69 24 -69 19 0 37 21 37 45 0 43 -41 60 -61
24z"/>
<path d="M6660 15875 c-11 -13 -8 -15 19 -15 33 0 42 14 15 24 -21 8 -20 8
-34 -9z"/>
<path d="M8017 15884 c-14 -14 -6 -24 19 -24 16 0 24 5 22 13 -5 14 -31 21
-41 11z"/>
<path d="M8337 15833 c-10 -3 -16 -10 -14 -16 6 -19 41 -14 45 6 4 17 1 18
-31 10z"/>
<path d="M8877 15884 c-14 -14 -6 -24 19 -24 16 0 24 5 22 13 -5 14 -31 21
-41 11z"/>
<path d="M10262 15878 c-25 -25 -8 -78 25 -78 22 0 36 40 24 66 -12 26 -30 31
-49 12z"/>
<path d="M10681 15881 c-16 -11 -18 -58 -2 -74 28 -28 67 37 41 69 -14 16 -20
17 -39 5z"/>
<path d="M12250 15875 c-11 -13 -8 -15 19 -15 33 0 42 14 15 24 -21 8 -20 8
-34 -9z"/>
<path d="M13731 15881 c-16 -11 -18 -58 -2 -74 28 -28 67 37 41 69 -14 16 -20
17 -39 5z"/>
<path d="M14170 15875 c-11 -13 -8 -15 20 -15 28 0 31 2 20 15 -7 8 -16 15
-20 15 -4 0 -13 -7 -20 -15z"/>
<path d="M14313 15833 c-17 -6 -17 -33 0 -33 14 0 37 20 37 32 0 9 -18 9 -37
1z"/>
<path d="M15497 15884 c-14 -14 -6 -24 19 -24 16 0 24 5 22 13 -5 14 -31 21
-41 11z"/>
<path d="M15852 15878 c-28 -28 -2 -88 33 -74 21 8 20 72 -1 80 -20 8 -18 8
-32 -6z"/>
<path d="M16137 15833 c-10 -3 -16 -10 -14 -16 6 -19 41 -14 45 6 4 17 1 18
-31 10z"/>
<path d="M17242 15878 c-25 -25 -8 -78 25 -78 22 0 36 40 24 66 -12 26 -30 31
-49 12z"/>
<path d="M18558 15833 c-10 -2 -18 -11 -18 -19 0 -22 44 -14 48 9 4 17 1 18
-30 10z"/>
<path d="M20331 15881 c-16 -11 -18 -58 -2 -74 28 -28 67 37 41 69 -14 16 -20
17 -39 5z"/>
<path d="M20612 15878 c-28 -28 -2 -88 33 -74 21 8 20 72 -1 80 -20 8 -18 8
-32 -6z"/>
<path d="M20967 15884 c-14 -14 -6 -24 19 -24 16 0 24 5 22 13 -5 14 -31 21
-41 11z"/>
<path d="M21102 15878 c-25 -25 -8 -78 25 -78 22 0 36 40 24 66 -12 26 -30 31
-49 12z"/>
<path d="M21252 15878 c-28 -28 -2 -88 33 -74 21 8 20 72 -1 80 -20 8 -18 8
-32 -6z"/>
<path d="M21450 15875 c-11 -13 -8 -15 19 -15 33 0 42 14 15 24 -21 8 -20 8
-34 -9z"/>
<path d="M22531 15881 c-16 -11 -18 -58 -2 -74 28 -28 67 37 41 69 -14 16 -20
17 -39 5z"/>
<path d="M22880 15875 c-11 -13 -8 -15 20 -15 28 0 31 2 20 15 -7 8 -16 15
-20 15 -4 0 -13 -7 -20 -15z"/>
<path d="M23379 15869 c-13 -25 2 -69 24 -69 19 0 37 21 37 45 0 43 -41 60
-61 24z"/>
<path d="M23802 15878 c-28 -28 -2 -88 33 -74 21 8 20 72 -1 80 -20 8 -18 8
-32 -6z"/>
<path d="M25650 15875 c-11 -13 -8 -15 20 -15 28 0 31 2 20 15 -7 8 -16 15
-20 15 -4 0 -13 -7 -20 -15z"/>
<path d="M26091 15881 c-16 -11 -18 -58 -2 -74 28 -28 67 37 41 69 -14 16 -20
17 -39 5z"/>
<path d="M26487 15884 c-14 -14 -6 -24 19 -24 16 0 24 5 22 13 -5 14 -31 21
-41 11z"/>
<path d="M27141 15881 c-16 -11 -18 -58 -2 -74 28 -28 67 37 41 69 -14 16 -20
17 -39 5z"/>
<path d="M27279 15869 c-13 -25 2 -69 24 -69 19 0 37 21 37 45 0 43 -41 60
-61 24z"/>
<path d="M2610 15780 c0 -27 3 -30 30 -30 27 0 30 3 30 30 0 27 -3 30 -30 30
-27 0 -30 -3 -30 -30z"/>
<path d="M2770 15780 c0 -27 3 -30 30 -30 27 0 30 3 30 30 0 27 -3 30 -30 30
-27 0 -30 -3 -30 -30z"/>
<path d="M28855 15107 c-63 -21 -97 -42 -142 -89 -122 -125 -119 -325 6 -446
67 -65 122 -87 221 -87 101 0 153 21 225 91 84 80 115 205 79 319 -23 76 -103
163 -176 195 -64 27 -158 35 -213 17z m100 -162 c0 -28 -29 -25 -33 3 -3 19 0
23 15 20 10 -2 18 -12 18 -23z m-103 -57 c-17 -17 -47 9 -30 29 10 12 13 12
27 -1 11 -12 12 -19 3 -28z m204 3 c-22 -21 -46 0 -26 24 10 12 16 13 27 3 12
-10 12 -13 -1 -27z m-56 -18 c19 -18 33 -41 36 -64 5 -30 1 -41 -22 -68 -42
-46 -92 -52 -133 -15 -43 39 -51 89 -21 127 42 53 95 60 140 20z m-185 -73 c0
-8 -10 -16 -22 -18 -22 -3 -32 16 -16 32 12 11 38 2 38 -14z m295 5 c0 -9 -7
-18 -16 -22 -18 -7 -39 11 -30 26 11 17 46 13 46 -4z m-255 -95 c4 -6 1 -17
-5 -26 -10 -11 -16 -12 -26 -3 -11 9 -11 15 -3 25 14 17 25 18 34 4z m204 -4
c8 -10 8 -16 -3 -25 -10 -9 -16 -8 -26 3 -12 15 -6 36 9 36 5 0 14 -6 20 -14z
m-101 -54 c2 -14 -2 -22 -12 -22 -19 0 -29 17 -22 36 8 22 30 12 34 -14z"/>
<path d="M28902 14853 c-47 -40 -31 -104 29 -118 53 -13 97 61 62 103 -26 31
-65 37 -91 15z"/>
<path d="M722 15078 c-23 -11 -38 -48 -33 -80 2 -13 -5 -18 -24 -18 -41 0 -85
-50 -85 -97 0 -44 14 -69 78 -135 43 -45 47 -47 64 -31 17 15 15 19 -37 74
-51 54 -60 71 -55 109 2 17 28 40 47 40 7 0 28 -14 48 -31 l35 -31 35 31 c42
36 58 38 85 11 21 -21 60 -27 60 -9 0 21 -58 69 -85 69 -19 0 -26 5 -24 18 5
33 -11 69 -36 80 -31 14 -43 14 -73 0z"/>
<path d="M5990 14820 l0 -240 45 0 45 0 0 68 c0 62 10 92 31 92 4 0 28 -36 54
-80 l47 -80 44 0 c24 0 44 2 44 5 0 2 -29 50 -65 105 -36 55 -65 104 -65 107
0 4 28 36 62 70 l62 63 -49 0 c-49 0 -52 -1 -107 -62 l-57 -63 -1 128 0 127
-45 0 -45 0 0 -240z"/>
<path d="M4400 15005 l0 -35 60 0 60 0 0 -195 0 -195 45 0 45 0 0 195 0 195
55 0 55 0 0 35 0 35 -160 0 -160 0 0 -35z"/>
<path d="M4860 14755 l0 -175 39 0 39 0 4 114 c3 105 5 117 27 140 19 20 34
26 68 26 25 0 53 -5 64 -10 17 -10 19 -7 19 29 0 44 -10 51 -75 51 -32 0 -51
-7 -74 -26 l-31 -26 0 26 c0 24 -4 26 -40 26 l-40 0 0 -175z"/>
<path d="M5250 14921 c-20 -5 -26 -14 -28 -44 l-3 -36 35 14 c43 18 127 20
144 3 7 -7 12 -19 12 -29 0 -13 -14 -17 -69 -22 -75 -6 -124 -26 -141 -56 -5
-11 -10 -41 -10 -66 0 -38 5 -52 29 -76 25 -25 37 -29 84 -29 40 0 61 6 81 21
l26 20 0 -20 c0 -18 6 -21 46 -21 l47 0 -6 133 c-6 144 -16 181 -58 203 -29
15 -143 18 -189 5z m160 -196 c0 -58 -51 -105 -99 -90 -22 7 -35 40 -29 71 4
25 44 44 91 44 33 0 37 -3 37 -25z"/>
<path d="M5676 14911 c-51 -34 -71 -77 -71 -156 0 -119 54 -177 165 -176 78 0
100 12 100 56 l0 34 -37 -15 c-45 -19 -103 -6 -128 29 -20 28 -19 111 1 142
24 37 81 51 127 31 l37 -15 0 35 c0 28 -5 36 -26 44 -44 17 -136 12 -168 -9z"/>
<path d="M6436 14911 c-46 -31 -68 -75 -73 -144 -6 -80 23 -143 79 -170 43
-21 140 -24 194 -7 30 10 34 16 34 46 0 19 -2 34 -4 34 -2 0 -23 -7 -46 -15
-87 -31 -170 -6 -170 51 l0 24 115 0 115 0 0 40 c0 51 -20 98 -54 130 -37 34
-147 41 -190 11z m143 -67 c37 -47 29 -54 -54 -54 -84 0 -95 12 -53 57 30 33
80 31 107 -3z"/>
<path d="M6810 14755 l0 -175 45 0 45 0 0 115 c0 111 1 117 26 142 23 23 31
25 85 21 l59 -4 0 32 c0 36 -13 44 -70 44 -27 0 -48 -8 -69 -26 l-31 -26 0 26
c0 24 -3 26 -45 26 l-45 0 0 -175z"/>
<path d="M885 14853 c-94 -21 -125 -34 -125 -54 0 -17 5 -20 23 -17 12 3 50
11 84 18 55 12 64 12 87 -3 16 -11 26 -27 26 -41 0 -24 -28 -56 -49 -56 -7 0
-21 -4 -31 -10 -16 -8 -17 -14 -7 -45 15 -51 -2 -85 -45 -85 -43 0 -70 -35
-35 -44 43 -11 67 -6 99 23 30 27 33 27 59 12 32 -18 69 -6 94 33 15 22 15 28
1 61 -9 20 -24 39 -35 42 -16 4 -17 9 -8 39 15 48 -11 100 -58 120 -35 14 -44
15 -80 7z"/>
<path d="M517 14822 c-22 -24 -31 -71 -19 -102 8 -21 5 -27 -18 -41 -50 -31
-43 -98 13 -129 25 -14 30 -13 57 2 29 17 30 16 60 -14 27 -27 36 -30 73 -25
55 7 90 48 113 133 17 65 15 94 -9 94 -9 0 -21 -25 -32 -65 -28 -106 -76 -144
-120 -95 -16 18 -17 25 -7 58 10 32 9 39 -5 50 -9 6 -24 12 -33 12 -40 0 -65
65 -35 90 11 9 12 17 4 31 -12 24 -21 24 -42 1z"/>
<path d="M0 7080 l0 -7080 15075 0 15075 0 0 1410 c0 776 -2 1410 -5 1410 -14
0 -45 -69 -45 -98 0 -25 -14 -52 -54 -105 -30 -40 -63 -81 -73 -92 -10 -11
-30 -36 -45 -57 -27 -37 -128 -118 -147 -118 -6 0 -30 -13 -54 -30 -25 -16
-57 -30 -71 -30 -15 0 -43 -8 -64 -19 -76 -38 -264 -48 -317 -16 -11 7 -45 17
-75 24 -30 6 -76 26 -101 44 -57 39 -193 149 -197 158 -1 3 -21 33 -42 65 -22
33 -51 75 -64 95 -13 20 -31 60 -40 89 -9 29 -20 58 -24 64 -21 27 -34 120
-33 248 0 153 6 197 31 248 93 188 107 211 166 271 34 35 77 76 96 90 47 38
152 91 231 117 114 39 397 68 397 41 0 -5 13 -15 30 -20 17 -6 30 -16 30 -22
0 -6 11 0 25 13 23 21 28 22 63 12 22 -7 60 -32 87 -56 26 -24 62 -55 80 -68
35 -24 90 -95 125 -161 12 -21 31 -49 43 -63 12 -14 27 -48 34 -77 8 -40 11
526 12 2416 l1 2467 -95 0 c-77 0 -101 4 -127 20 -20 12 -51 20 -78 20 -29 0
-58 8 -82 23 -62 38 -268 218 -268 235 0 5 -7 15 -15 22 -9 7 -35 52 -59 99
-24 47 -51 100 -60 118 -10 18 -21 58 -26 90 -5 32 -14 87 -20 123 -15 87 -15
95 -1 170 6 36 14 89 17 118 2 30 15 75 29 100 13 26 35 70 50 99 24 49 150
193 168 193 9 0 181 113 209 137 9 8 36 19 60 25 24 5 52 17 63 27 24 23 67
36 163 51 l72 12 0 806 0 807 -24 -29 c-12 -16 -23 -41 -24 -56 0 -14 -2 -32
-4 -39 -2 -8 8 -17 22 -21 24 -6 24 -7 -7 -11 -34 -6 -43 7 -43 65 0 21 -4 27
-16 22 -9 -3 -18 -6 -20 -6 -8 0 -4 -56 6 -66 14 -14 -4 -35 -35 -39 -15 -1
-32 -10 -37 -19 -5 -9 -18 -16 -28 -16 -27 0 -36 -20 -11 -27 31 -8 25 -23 -9
-23 -20 0 -30 -5 -30 -15 0 -9 9 -15 25 -15 34 0 33 -31 -2 -66 -19 -19 -37
-27 -59 -26 -32 1 -32 1 -32 -43 1 -25 7 -50 15 -56 17 -15 17 -29 -1 -29 -8
0 -16 -7 -20 -15 -3 -8 -12 -15 -20 -15 -8 0 -21 -11 -28 -24 -54 -99 -67
-129 -62 -137 3 -5 -2 -9 -10 -9 -9 0 -16 -8 -16 -19 0 -11 -8 -26 -17 -33
-10 -7 -22 -20 -28 -29 -41 -65 -67 -99 -75 -99 -15 0 -12 -36 5 -50 8 -7 15
-22 15 -34 0 -19 -5 -21 -34 -18 -30 4 -36 0 -51 -28 -21 -40 -89 -70 -159
-70 -68 0 -131 -6 -144 -14 -7 -4 -33 0 -59 9 -69 24 -92 22 -152 -15 -55 -32
-61 -32 -133 -14 -21 5 -29 2 -34 -11 -4 -9 -2 -20 5 -24 17 -11 -12 -33 -33
-25 -10 4 -26 -5 -44 -23 -16 -16 -34 -27 -41 -25 -6 2 -11 -1 -11 -6 0 -10
-77 -17 -255 -24 -58 -2 -60 -2 -57 21 3 21 1 23 -28 19 -17 -3 -33 -1 -36 4
-3 4 -14 4 -24 -2 -25 -14 -33 1 -24 46 6 34 5 37 -12 29 -44 -17 -89 -24
-101 -13 -7 6 -10 14 -7 19 11 18 -29 22 -42 4 -7 -9 -24 -17 -38 -17 -28 -1
-48 -18 -44 -38 3 -12 -40 -44 -74 -56 -10 -4 -18 -10 -18 -15 0 -5 -6 -9 -13
-9 -8 0 -22 -9 -32 -20 -10 -11 -36 -23 -58 -27 -32 -5 -42 -12 -51 -35 -6
-15 -14 -28 -18 -28 -21 0 -97 -63 -102 -86 -9 -36 -50 -30 -54 9 -2 15 -9 27
-18 27 -17 0 -18 -12 -2 -28 10 -10 10 -15 -2 -22 -8 -6 -22 -7 -30 -4 -8 3
-32 8 -52 11 -34 5 -36 4 -31 -16 3 -13 0 -22 -8 -23 -8 0 -19 -2 -25 -2 -23
-2 -84 -41 -84 -53 0 -7 -15 -16 -32 -21 -33 -9 -35 -13 -23 -43 5 -13 0 -15
-23 -11 -25 3 -31 -1 -42 -28 -19 -46 -39 -63 -56 -49 -11 9 -17 5 -28 -22
-17 -40 -76 -89 -106 -89 -29 0 -77 -27 -90 -50 -9 -16 -15 -17 -39 -9 -41 14
-96 -17 -114 -65 -6 -15 -14 -17 -52 -11 -38 5 -55 2 -103 -21 -31 -16 -76
-33 -99 -40 -37 -9 -47 -8 -74 8 -33 20 -66 16 -85 -10 -10 -13 -18 -14 -48
-5 -34 11 -36 10 -36 -12 0 -22 -3 -23 -148 -30 -159 -7 -220 -1 -239 24 -8
12 -26 15 -67 14 -30 -2 -58 2 -61 7 -3 6 -31 10 -61 10 -30 0 -54 4 -54 8 0
5 -17 27 -37 48 -21 22 -46 54 -55 72 -15 27 -21 32 -42 26 -17 -4 -37 1 -59
15 -19 12 -42 21 -51 21 -17 0 -19 8 -16 53 1 21 -3 27 -19 27 -11 0 -31 12
-44 26 -14 14 -35 27 -49 27 -18 2 -24 7 -20 20 3 11 -2 17 -14 17 -18 1 -18
1 -1 11 9 5 17 16 17 23 0 14 -78 59 -90 51 -5 -3 -12 0 -16 7 -5 8 -10 6 -15
-8 -6 -16 -9 -14 -23 19 -16 36 -36 42 -36 11 0 -8 -7 -14 -15 -14 -9 0 -15 9
-15 25 0 16 6 25 15 25 8 0 15 4 15 9 0 6 -9 9 -20 8 -11 -1 -20 -6 -20 -12 0
-6 -12 -12 -26 -13 -24 -2 -26 0 -20 28 6 34 -11 80 -31 80 -7 0 -13 -8 -13
-18 0 -10 -5 -23 -12 -30 -18 -18 -48 4 -48 38 0 22 -5 30 -22 33 -13 2 -3 5
22 7 38 2 41 3 20 10 -19 6 -20 8 -6 9 30 2 -1 31 -33 31 -35 0 -114 38 -105
51 4 6 14 5 27 -4 12 -8 40 -17 62 -20 39 -7 39 -7 17 9 -20 15 -20 18 -7 28
26 19 8 46 -31 46 -27 0 -36 6 -49 30 -8 16 -14 33 -13 37 1 4 -2 36 -6 71 -6
49 -11 62 -24 60 -9 -2 -22 8 -28 22 -11 20 -11 27 1 41 17 18 20 49 5 49 -5
0 -12 -11 -16 -24 -7 -30 -21 -36 -53 -25 -18 7 -22 14 -17 32 10 32 17 69 19
97 2 21 -3 25 -34 30 -19 4 -52 19 -72 34 -20 16 -37 23 -37 17 0 -6 -4 -11
-10 -11 -5 0 -2 13 7 28 14 24 23 29 51 28 48 -1 51 19 7 40 -32 15 -36 21
-33 48 2 25 -1 31 -17 32 -11 1 -28 2 -38 3 -10 0 -24 16 -33 36 -9 23 -21 35
-34 35 -21 0 -25 14 -21 81 2 33 0 37 -29 42 -17 4 -38 14 -47 23 -12 12 -27
14 -60 9 -41 -6 -43 -5 -43 18 0 14 -6 30 -14 36 -8 7 -12 20 -9 30 6 24 -13
61 -31 61 -8 0 -16 8 -19 18 -2 12 -17 22 -36 25 -28 6 -31 9 -21 27 9 17 5
25 -24 55 -20 19 -42 35 -50 35 -8 0 -18 9 -21 20 -7 21 -30 27 -40 10 -11
-18 -24 -10 -41 25 -13 28 -14 38 -4 50 9 11 8 19 -4 37 l-16 22 0 -22 c0 -12
-4 -22 -10 -22 -5 0 -10 7 -10 16 0 8 -3 13 -7 11 -18 -10 -48 11 -48 34 0 14
-9 28 -23 35 -38 19 -46 32 -44 67 1 18 -4 41 -12 52 -14 19 -15 19 -33 2 -11
-9 -23 -17 -26 -17 -13 0 -7 48 8 60 16 13 20 40 7 40 -5 0 -17 -9 -27 -20
-10 -11 -24 -20 -31 -20 -22 0 -27 20 -10 39 24 26 19 48 -14 64 -28 14 -30
14 -45 -10 -21 -31 -43 -17 -25 16 6 12 8 31 5 41 -8 25 13 27 30 3 12 -17 40
-9 29 8 -3 5 0 17 7 25 10 13 10 17 -2 25 -8 5 -21 6 -29 2 -8 -3 -45 -7 -82
-7 -47 -1 -72 -7 -86 -19 -14 -13 -21 -14 -31 -4 -11 9 -14 9 -18 0 -3 -7 -13
-13 -24 -13 -19 0 -19 1 3 31 18 24 28 29 48 24 14 -3 20 -2 15 2 -20 15 -45
62 -36 67 5 3 12 -1 15 -10 9 -24 26 -6 26 29 0 93 30 144 45 77 14 -65 33
-23 34 79 1 29 4 57 6 62 3 4 -3 12 -12 18 -14 8 -8 9 25 5 28 -4 42 -2 42 5
0 7 -7 14 -15 17 -21 8 -19 54 3 70 13 10 14 15 5 25 -14 14 -2 45 28 69 11 9
20 34 23 62 8 71 17 101 36 123 20 23 40 74 38 95 -3 42 4 60 30 72 16 8 28
23 30 38 2 14 10 32 18 41 10 11 13 26 8 43 -5 23 0 33 35 66 22 22 41 46 41
55 0 9 9 15 25 15 18 0 25 5 25 20 0 11 -6 20 -14 20 -7 0 -19 7 -26 15 -11
13 -11 20 0 39 7 13 11 42 8 65 -2 23 0 41 4 41 18 0 6 21 -16 30 -29 11 -46
38 -46 76 0 21 -4 25 -19 21 -30 -7 -48 8 -32 27 11 13 9 17 -12 27 -14 6 -31
25 -38 41 -6 16 -20 33 -30 39 -25 13 -24 29 1 29 11 0 20 5 20 10 0 6 -9 10
-20 10 -14 0 -20 7 -20 23 0 12 -12 33 -26 46 -18 17 -24 32 -21 48 3 16 -3
29 -19 42 -13 10 -24 23 -24 29 0 5 -6 12 -14 15 -8 3 -17 25 -21 49 -4 24
-16 53 -27 64 -19 22 -19 22 1 36 21 15 21 15 -3 26 -13 6 -27 20 -31 31 l-6
21 -3745 0 c-3694 0 -3744 0 -3744 -19 0 -14 -8 -21 -27 -23 -20 -2 -29 -10
-35 -33 -4 -18 -4 -31 2 -33 19 -7 10 -20 -17 -27 -34 -8 -63 -33 -63 -53 0
-8 -8 -21 -18 -28 -16 -12 -15 -13 6 -14 12 0 22 -5 22 -11 0 -7 -11 -9 -27
-6 -36 7 -90 -21 -102 -52 -19 -49 -38 -64 -71 -58 -31 7 -43 -9 -15 -19 17
-7 20 -40 5 -49 -6 -3 -14 4 -19 17 -5 13 -16 30 -25 37 -14 12 -16 7 -16 -50
0 -60 -14 -74 -22 -21 -5 38 -21 30 -33 -18 -11 -45 -11 -45 -55 -45 -26 -1
-57 -9 -72 -19 -31 -21 -58 -15 -58 11 -1 11 -9 3 -21 -19 -22 -43 -34 -47
-49 -18 -6 11 -15 20 -20 20 -6 0 -18 -9 -27 -20 -19 -22 -48 -25 -89 -10 -33
13 -42 6 -19 -16 15 -16 16 -18 0 -26 -10 -6 -21 -5 -31 2 -8 8 -27 10 -46 6
-22 -4 -37 -1 -50 11 -18 16 -19 16 -25 -5 -6 -24 -33 -30 -33 -7 0 8 -9 19
-19 25 -25 13 -98 13 -106 0 -3 -5 -14 -10 -24 -10 -14 0 -23 13 -32 45 -17
57 -39 60 -39 4 0 -45 -20 -51 -30 -8 -4 18 -16 26 -46 34 -46 11 -144 97
-144 127 0 10 -7 18 -14 18 -8 0 -27 16 -42 35 -25 34 -28 35 -45 19 -18 -16
-19 -16 -19 4 0 41 -22 72 -50 72 -24 0 -28 5 -39 58 -7 31 -15 63 -17 70 -2
6 -15 12 -29 12 -20 0 -30 9 -47 45 l-22 45 -7078 0 -7078 0 0 -7080z m17315
7041 c3 -5 1 -12 -5 -16 -5 -3 -10 1 -10 9 0 18 6 21 15 7z m-1342 -36 c8 -18
-11 -31 -25 -17 -11 11 -3 32 12 32 4 0 10 -7 13 -15z m-1723 -49 c0 -24 -12
-46 -21 -40 -15 9 -10 54 6 54 8 0 15 -6 15 -14z m200 -266 c0 -5 -4 -10 -10
-10 -5 0 -10 5 -10 10 0 6 5 10 10 10 6 0 10 -4 10 -10z m9317 -272 c-3 -8 -6
-5 -6 6 -1 11 2 17 5 13 3 -3 4 -12 1 -19z m-182 -777 c3 -5 1 -12 -5 -16 -5
-3 -10 1 -10 9 0 18 6 21 15 7z m-65 -197 c0 -17 -22 -14 -28 4 -2 7 3 12 12
12 9 0 16 -7 16 -16z m-42 -67 c2 -10 -3 -17 -12 -17 -10 0 -16 9 -16 21 0 24
23 21 28 -4z m-33 -106 c0 -19 -6 -24 -32 -26 -37 -3 -42 9 -16 37 22 25 48
19 48 -11z m44 -330 c11 -7 10 -10 -6 -15 -24 -8 -55 2 -47 15 7 11 35 11 53
0z m-69 -55 c0 -3 -4 -8 -10 -11 -5 -3 -10 -1 -10 4 0 6 5 11 10 11 6 0 10 -2
10 -4z m155 -75 c7 -12 -12 -24 -25 -16 -11 7 -4 25 10 25 5 0 11 -4 15 -9z
m579 -592 c-3 -5 -10 -7 -15 -3 -5 3 -7 10 -3 15 3 5 10 7 15 3 5 -3 7 -10 3
-15z m5711 -179 c-3 -5 -11 -10 -16 -10 -6 0 -7 5 -4 10 3 6 11 10 16 10 6 0
7 -4 4 -10z m-23737 -459 c9 -6 47 -19 84 -31 36 -12 71 -27 77 -34 6 -7 29
-21 51 -31 22 -10 40 -22 40 -27 0 -4 5 -8 11 -8 15 0 140 -106 154 -130 6 -9
27 -32 48 -50 20 -18 40 -43 43 -56 3 -13 10 -24 14 -24 4 0 13 -13 20 -29 6
-16 22 -39 36 -52 13 -12 24 -30 24 -40 0 -9 7 -22 15 -29 8 -7 15 -26 15 -42
0 -16 6 -44 14 -63 8 -19 15 -61 14 -92 0 -32 2 -76 6 -99 9 -54 -20 -274 -43
-327 -61 -138 -77 -169 -93 -184 -10 -9 -18 -22 -18 -30 0 -48 -202 -253 -249
-253 -6 0 -34 -14 -63 -31 -75 -44 -257 -102 -318 -100 -65 1 -282 30 -293 39
-6 5 -30 12 -52 15 -54 6 -101 26 -155 64 -25 18 -60 43 -78 55 -122 85 -230
247 -287 433 -38 124 -46 347 -16 458 39 147 93 270 156 353 44 58 173 182
198 190 9 3 17 9 17 13 0 4 21 18 48 31 26 13 58 32 72 41 14 10 43 23 65 28
22 5 65 19 95 30 44 16 82 20 193 20 75 1 145 -3 155 -8z m18619 -238 c-3 -10
-5 -4 -5 12 0 17 2 24 5 18 2 -7 2 -21 0 -30z m-11217 -326 c0 -218 3 -227 81
-227 l49 0 0 -35 0 -35 -60 0 c-71 0 -123 19 -141 52 -9 16 -15 78 -17 196
l-4 172 -44 0 c-42 0 -44 1 -44 30 l0 30 90 0 90 0 0 -183z m2270 98 c0 -47 3
-85 7 -85 4 0 17 10 30 22 29 27 87 29 125 4 57 -37 78 -187 38 -274 -34 -75
-113 -91 -172 -34 l-28 26 0 -27 c0 -25 -3 -27 -40 -27 l-40 0 0 240 0 240 40
0 40 0 0 -85z m1180 -35 c0 -68 4 -120 9 -120 6 0 31 25 58 55 47 54 49 55
103 55 l54 0 -62 -63 c-34 -34 -62 -66 -62 -71 0 -8 31 -58 118 -193 14 -23
14 -23 -35 -23 -48 0 -50 1 -73 43 -13 23 -34 59 -47 80 -24 37 -25 38 -44 21
-15 -13 -19 -31 -19 -81 l0 -63 -40 0 -40 0 0 240 0 240 40 0 40 0 0 -120z
m488 60 c2 -25 1 -96 -3 -158 l-7 -113 -32 3 -31 3 -5 75 c-3 41 -4 112 -1
158 l4 83 36 -3 c35 -3 36 -4 39 -48z m-4839 -92 c18 -202 23 -213 45 -90 l18
102 38 0 39 0 11 -57 c21 -104 28 -134 33 -139 4 -4 9 47 23 229 l7 87 38 0
c22 0 39 -2 39 -4 0 -3 -11 -100 -25 -216 -14 -116 -25 -218 -25 -226 0 -10
-12 -14 -43 -14 l-43 0 -24 115 c-13 63 -27 115 -30 115 -4 0 -12 -30 -19 -67
-7 -38 -17 -90 -23 -116 l-10 -48 -41 3 -41 3 -27 220 c-16 121 -28 223 -28
228 -1 4 16 7 38 7 l39 0 11 -132z m15951 82 c0 -5 -4 -10 -10 -10 -5 0 -10 5
-10 10 0 6 5 10 10 10 6 0 10 -4 10 -10z m-750 -50 c0 -5 -4 -10 -10 -10 -5 0
-10 5 -10 10 0 6 5 10 10 10 6 0 10 -4 10 -10z m-14616 -28 c40 -23 66 -77 66
-134 l0 -48 -115 0 c-98 0 -115 -2 -115 -16 0 -67 104 -93 192 -48 l28 15 0
-41 c0 -35 -4 -42 -27 -51 -16 -6 -59 -11 -98 -12 -78 -2 -121 16 -158 65 -43
58 -30 205 23 253 49 45 141 52 204 17z m804 7 c18 -7 22 -16 22 -49 l0 -40
-25 16 c-34 22 -100 22 -125 -1 -45 -40 -45 -140 0 -180 25 -23 91 -23 125 -1
l25 16 0 -39 c0 -45 -11 -55 -75 -64 -119 -18 -198 53 -197 179 1 123 74 192
187 177 22 -3 50 -9 63 -14z m324 11 c23 0 75 -46 94 -82 9 -17 15 -56 15 -94
0 -114 -56 -178 -158 -178 -59 0 -93 19 -130 74 -18 26 -23 47 -23 102 0 74
12 108 53 147 28 25 80 42 112 35 11 -2 28 -4 37 -4z m331 -1 c12 -7 25 -17
29 -23 5 -7 11 -5 20 6 13 18 33 23 76 20 40 -3 52 -53 52 -212 l0 -140 -35 0
-35 0 0 129 c0 142 -4 161 -30 161 -26 0 -30 -19 -30 -161 l0 -129 -35 0 -35
0 0 129 c0 142 -4 161 -30 161 -26 0 -30 -19 -30 -161 l0 -129 -35 0 -35 0 0
175 0 175 30 0 c21 0 30 -5 30 -17 0 -14 2 -15 18 -1 14 13 33 23 50 27 2 1
13 -4 25 -10z m500 -17 c35 -21 67 -87 67 -140 l0 -42 -115 0 c-114 0 -115 0
-115 -23 0 -13 9 -32 21 -43 27 -25 121 -25 167 0 l33 17 -3 -43 -3 -43 -65
-13 c-111 -23 -188 6 -229 85 -15 30 -14 137 3 176 37 87 150 120 239 69z
m1177 -1 c43 -31 50 -57 50 -198 l0 -133 -45 0 c-34 0 -45 4 -45 15 0 13 -4
13 -26 -2 -34 -22 -113 -21 -148 3 -66 42 -61 156 8 191 17 9 61 18 98 21 55
4 68 8 68 21 0 10 -5 22 -12 29 -17 17 -91 15 -135 -3 -46 -19 -43 -20 -43 19
0 41 5 45 68 56 63 11 131 3 162 -19z m408 8 c18 -7 22 -16 22 -49 l0 -40 -25
16 c-34 22 -100 22 -125 -1 -45 -40 -45 -140 0 -180 25 -23 91 -23 125 -1 l25
16 0 -39 c0 -45 -11 -55 -75 -64 -119 -18 -196 52 -196 178 0 69 14 106 54
144 42 39 123 47 195 20z m710 -296 l3 -43 -40 0 -41 0 0 46 0 45 38 -3 c36
-3 37 -4 40 -45z m-5448 -884 c0 -5 -4 -9 -10 -9 -5 0 -10 7 -10 16 0 8 5 12
10 9 6 -3 10 -10 10 -16z m152 -66 c3 -83 4 -88 26 -91 33 -5 27 -22 -8 -22
-39 0 -50 23 -50 109 0 56 -3 71 -15 71 -8 0 -15 5 -15 10 0 6 13 10 30 10
l29 0 3 -87z m518 -13 c0 -111 8 -100 -70 -101 -31 0 -50 25 -50 69 0 60 32
92 71 72 17 -10 19 -7 19 25 0 24 4 35 15 35 12 0 15 -18 15 -100z m160 0 c0
-111 8 -100 -70 -101 -31 0 -50 25 -50 69 0 60 32 92 71 72 17 -10 19 -7 19
25 0 24 4 35 15 35 12 0 15 -18 15 -100z m-1270 80 c0 -5 -20 -10 -45 -10 -41
0 -45 -2 -45 -25 0 -22 4 -25 40 -25 22 0 40 -4 40 -10 0 -5 -18 -10 -40 -10
l-40 0 0 -40 0 -40 45 0 c25 0 45 -4 45 -10 0 -5 -25 -10 -55 -10 l-55 0 0 95
0 95 55 0 c30 0 55 -4 55 -10z m940 -85 c15 -49 26 -92 24 -94 -9 -10 -34 11
-34 29 0 16 -6 20 -34 20 -28 0 -35 -4 -40 -25 -4 -14 -14 -25 -22 -25 -9 0
-14 6 -12 13 3 6 15 49 29 95 20 68 27 82 43 80 14 -2 25 -25 46 -93z m484 49
c28 -11 19 -32 -11 -26 -35 7 -53 -19 -53 -75 0 -32 -4 -43 -15 -43 -12 0 -15
14 -15 70 0 56 3 70 15 70 8 0 15 -5 15 -11 0 -6 7 -3 16 5 17 18 24 19 48 10z
m146 -14 c11 -11 20 -29 20 -40 0 -17 -7 -20 -50 -20 -53 0 -58 -5 -36 -35 10
-14 21 -17 50 -12 42 7 47 -13 5 -23 -38 -10 -76 8 -88 41 -25 73 48 140 99
89z m144 14 c28 -11 18 -31 -13 -26 -44 6 -47 -15 -4 -35 47 -22 53 -61 13
-80 -30 -14 -80 -6 -80 12 0 10 11 12 41 8 36 -5 41 -4 37 13 -2 10 -12 20
-23 22 -22 4 -55 30 -55 44 0 13 39 48 54 48 8 0 21 -3 30 -6z m160 0 c26 -10
18 -24 -13 -24 -45 0 -46 -17 -4 -37 47 -22 53 -61 13 -80 -30 -14 -80 -6 -80
12 0 10 11 12 41 8 36 -5 41 -4 37 13 -2 10 -12 20 -23 22 -22 4 -55 30 -55
44 0 13 39 48 54 48 8 0 21 -3 30 -6z m-1716 -76 c2 -41 -1 -68 -7 -68 -6 0
-11 28 -13 63 -2 34 -7 62 -13 62 -5 0 -11 -28 -13 -62 -4 -80 -22 -83 -22 -4
0 97 -36 89 -43 -9 -3 -52 -3 -50 -5 16 l-2 71 58 -1 57 -1 3 -67z m140 60
c14 -14 16 -128 2 -128 -5 0 -10 5 -10 10 0 6 -7 6 -18 -1 -11 -7 -31 -9 -45
-5 -22 5 -27 12 -27 36 0 32 22 50 64 50 14 0 26 4 26 9 0 18 -29 32 -54 25
-16 -4 -26 -2 -26 5 0 15 73 14 88 -1z m142 -48 c0 -53 2 -60 19 -60 11 0 23
-4 26 -10 4 -6 -17 -10 -54 -10 -34 0 -61 4 -61 10 0 6 9 10 20 10 17 0 20 7
20 50 0 38 -4 50 -15 50 -8 0 -15 5 -15 10 0 6 14 10 30 10 l30 0 0 -60z
m6695 -710 l0 -355 -3635 0 -3635 0 -3 345 c-1 190 0 351 3 357 3 11 727 13
3637 11 l3633 -3 0 -355z m1740 -311 c17 -6 41 -12 55 -15 26 -5 84 -26 135
-50 36 -17 83 -51 137 -99 22 -19 45 -35 50 -35 4 0 13 -11 18 -25 5 -14 15
-25 22 -25 25 -1 160 -224 183 -302 4 -12 13 -37 20 -53 38 -84 60 -339 37
-425 -35 -134 -56 -191 -100 -279 -68 -137 -218 -285 -394 -389 -209 -124
-595 -103 -815 44 -97 64 -182 141 -244 224 -58 74 -139 238 -139 278 0 16 -4
32 -9 38 -30 31 -35 324 -8 449 13 61 61 175 100 240 53 88 185 221 288 291
62 42 176 93 259 115 111 30 338 40 405 18z m-7765 -308 l0 -98 -50 -2 c-56
-1 -70 13 -70 69 0 58 33 90 71 70 17 -10 19 -7 19 25 0 24 4 35 15 35 12 0
15 -18 15 -99z m-1119 68 c13 -20 11 -63 -3 -77 -7 -7 -27 -12 -45 -12 -32 0
-33 -1 -33 -40 0 -22 -4 -40 -10 -40 -6 0 -10 39 -10 96 l0 97 46 -6 c26 -2
50 -11 55 -18z m787 -41 c18 -15 15 -93 -4 -112 -20 -21 -68 -20 -85 0 -7 9
-14 34 -14 56 0 65 54 94 103 56z m180 2 c2 -11 -6 -15 -30 -15 l-33 0 -3 -57
c-2 -43 -7 -58 -17 -58 -12 0 -15 16 -15 71 0 65 2 71 19 66 10 -2 25 -1 32 4
19 12 43 7 47 -11z m511 -75 c-7 -18 -8 -18 -8 -2 -1 11 -6 15 -12 11 -8 -5
-8 -1 0 14 6 11 12 33 12 49 1 23 3 20 9 -12 4 -22 4 -49 -1 -60z m-1331 73
c14 -14 17 -128 3 -128 -13 0 -20 25 -14 50 5 19 2 21 -28 18 -26 -2 -34 -8
-34 -23 0 -14 8 -21 28 -23 32 -4 27 -22 -7 -22 -28 0 -46 18 -46 47 0 25 26
43 64 43 16 0 26 6 26 14 0 18 -26 27 -56 20 -14 -4 -24 -2 -24 5 0 15 73 14
88 -1z m162 3 c0 -5 -14 -8 -32 -7 -48 2 -50 -28 -4 -44 20 -6 36 -13 36 -15
0 -2 3 -10 6 -18 3 -8 -2 -22 -11 -31 -18 -17 -85 -22 -85 -6 0 6 15 10 34 10
56 0 57 29 1 47 -30 10 -42 31 -31 59 6 15 86 21 86 5z m160 0 c0 -5 -14 -8
-32 -7 -48 2 -50 -28 -4 -44 20 -6 36 -13 36 -15 0 -2 3 -10 6 -18 3 -8 -2
-22 -11 -31 -18 -17 -85 -22 -85 -6 0 6 15 10 34 10 56 0 57 29 1 47 -30 10
-42 31 -31 59 6 15 86 21 86 5z m71 -48 l12 -58 10 38 c9 39 29 45 35 11 8
-40 21 -35 27 10 7 43 20 65 31 53 9 -9 -29 -138 -39 -134 -6 2 -16 19 -22 38
l-12 34 -12 -37 c-16 -48 -28 -48 -40 0 -20 73 -24 102 -13 102 6 0 16 -26 23
-57z m905 22 c10 -8 14 -15 8 -15 -5 0 -19 7 -30 15 -10 8 -14 15 -8 15 5 0
19 -7 30 -15z m94 10 c0 -2 -10 -9 -22 -15 -22 -11 -22 -10 -4 4 21 17 26 19
26 11z m9895 -125 c84 -18 162 -51 231 -97 23 -16 59 -40 80 -54 44 -29 89
-73 119 -113 11 -15 27 -34 36 -44 29 -31 112 -184 135 -246 41 -113 48 -154
70 -431 5 -72 14 -101 14 -48 0 17 6 36 14 42 8 7 17 27 20 45 4 19 13 39 20
45 8 7 17 24 21 38 3 15 15 38 26 51 10 14 19 31 19 39 0 33 200 228 285 278
91 53 188 94 250 106 28 6 77 15 110 22 33 6 110 10 172 9 93 -3 123 -7 175
-28 35 -14 70 -32 78 -39 9 -8 33 -22 56 -32 60 -27 170 -129 223 -207 25 -38
54 -81 64 -95 9 -14 33 -60 52 -101 53 -116 81 -165 93 -165 6 0 44 27 84 61
40 34 83 66 95 73 12 6 42 29 67 50 25 22 56 43 68 46 13 4 30 13 38 20 43 37
236 78 420 89 115 7 256 -50 378 -153 61 -51 122 -113 122 -123 0 -9 43 -70
68 -96 6 -7 12 -18 12 -24 0 -5 8 -22 18 -36 27 -40 71 -181 83 -269 6 -43 12
-80 13 -83 11 -19 -15 -255 -34 -310 -42 -125 -142 -285 -227 -360 -127 -113
-215 -168 -328 -207 -70 -24 -95 -27 -200 -27 -101 0 -136 5 -220 28 -139 39
-175 45 -203 35 -37 -14 -52 -11 -64 17 -11 23 -15 25 -52 18 -47 -8 -76 -24
-76 -41 0 -10 -4 -11 -19 -1 -11 6 -22 28 -25 50 -3 21 -8 38 -10 38 -3 0 -12
3 -22 7 -15 5 -16 2 -11 -26 7 -34 -9 -71 -30 -71 -7 0 -21 -7 -30 -16 -10 -8
-29 -23 -43 -34 l-25 -18 28 -29 c34 -36 35 -78 4 -124 -30 -45 -61 -60 -97
-46 -25 9 -27 13 -17 34 13 29 -7 58 -23 33 -5 -8 -10 -22 -10 -31 0 -9 -11
-24 -26 -33 -14 -10 -24 -25 -22 -34 1 -9 -4 -32 -11 -51 -14 -32 -16 -33 -58
-28 -54 6 -58 9 -55 52 2 19 -2 36 -8 37 -36 5 -37 4 -43 -69 -2 -17 -7 -21
-23 -17 -14 4 -23 0 -27 -10 -9 -23 -20 -20 -39 14 -19 33 -39 38 -58 15 -17
-21 -37 -19 -43 5 -3 12 -14 20 -25 20 -11 0 -30 12 -41 26 -11 14 -24 23 -28
21 -5 -3 -31 1 -58 8 -28 8 -46 14 -41 14 5 1 1 10 -8 20 -22 24 -13 41 20 41
13 0 24 5 24 11 0 8 -16 9 -52 5 -28 -4 -54 -8 -57 -9 -3 -1 -7 3 -9 8 -2 6 5
12 15 13 35 7 38 22 10 45 -28 23 -36 60 -22 110 5 20 4 27 -7 27 -21 0 -57
-42 -40 -47 15 -6 16 -33 1 -33 -8 0 -9 -11 -5 -31 5 -27 4 -30 -12 -24 -9 4
-30 10 -45 13 -33 5 -45 26 -27 47 10 11 7 19 -13 38 -22 20 -24 28 -17 57 4
19 8 29 9 21 1 -9 9 -6 26 11 16 17 22 31 18 46 -6 25 -18 29 -27 7 -3 -8 -10
-15 -16 -15 -6 0 -9 4 -6 9 9 14 -22 34 -40 27 -10 -4 -14 -14 -11 -25 9 -35
-8 -42 -27 -10 -18 30 -18 30 5 36 l23 6 -23 8 c-12 5 -27 23 -33 40 -24 70
-67 129 -153 209 -49 47 -102 103 -116 125 -14 22 -33 46 -42 54 -68 56 -157
360 -157 538 0 28 -5 55 -12 59 -12 8 -48 -30 -48 -51 0 -15 -76 -153 -95
-171 -6 -7 -36 -45 -65 -86 -81 -113 -235 -224 -394 -285 -177 -68 -255 -70
-481 -10 -44 11 -92 29 -106 39 -15 10 -46 27 -70 38 -120 58 -180 107 -266
224 -155 209 -207 415 -178 696 12 116 89 305 168 410 47 62 179 191 207 202
10 4 36 18 57 31 21 13 49 28 63 32 14 4 43 16 65 26 22 10 67 23 100 30 218
42 261 45 380 19z m-4290 -615 l0 -350 -3635 0 -3635 0 -3 340 c-1 187 0 346
3 352 3 11 726 13 3637 11 l3633 -3 0 -350z m9660 -489 c17 -3 39 -8 50 -11
29 -6 173 -90 204 -118 14 -13 42 -33 62 -45 19 -12 41 -32 47 -46 6 -13 31
-50 55 -83 25 -32 69 -106 99 -163 56 -111 79 -139 115 -140 16 0 28 -12 42
-39 24 -46 44 -56 82 -39 23 10 29 19 29 45 0 28 14 52 25 41 2 -2 10 -26 17
-52 10 -39 10 -50 1 -53 -7 -3 -13 -11 -13 -20 0 -8 -20 -33 -44 -56 -38 -36
-44 -47 -43 -79 1 -41 15 -48 41 -22 15 14 16 14 16 0 0 -9 6 -16 13 -17 6 -1
23 -2 37 -2 23 -2 25 -6 27 -58 2 -41 -1 -60 -12 -69 -12 -10 -15 -9 -16 6 -1
11 -7 1 -15 -21 l-13 -40 2 35 c2 29 -2 36 -20 38 -14 2 -23 -3 -28 -17 -8
-26 2 -61 18 -61 7 0 18 -9 25 -20 24 -38 92 -13 92 34 0 17 -2 18 -10 6 -5
-8 -12 -11 -16 -7 -12 12 19 39 39 33 11 -2 28 0 38 7 25 16 36 1 16 -21 -13
-14 -14 -21 -5 -30 9 -9 8 -25 -2 -67 -7 -30 -17 -55 -22 -55 -4 0 -8 -5 -8
-12 0 -7 -12 -25 -27 -40 -21 -22 -24 -31 -15 -40 20 -20 14 -45 -15 -68 -20
-16 -27 -29 -25 -49 4 -37 -14 -48 -68 -40 -25 3 -38 7 -29 7 9 1 21 8 27 15
15 18 -31 36 -88 34 -45 -2 -45 -2 -44 -37 2 -65 9 -100 20 -104 8 -3 12 -63
5 -98 -3 -18 -22 -6 -36 22 -18 34 -33 38 -42 13 -10 -27 -57 -83 -69 -83 -6
0 -29 14 -50 31 -49 39 -79 34 -148 -24 -46 -39 -75 -57 -181 -110 -32 -16
-116 -47 -180 -66 -54 -17 -218 -10 -275 12 -25 9 -57 19 -73 22 -15 3 -37 15
-48 26 -11 11 -30 24 -42 30 -61 28 -114 68 -195 149 -65 66 -76 79 -118 144
-65 98 -77 125 -140 316 -67 205 -67 417 0 609 84 241 289 431 551 512 16 5
43 9 60 9 16 0 53 9 80 20 39 16 67 19 130 16 44 -2 94 -6 110 -10z m-12669
-201 c25 -4 49 -3 61 4 24 12 189 -11 238 -34 17 -7 43 -16 59 -19 16 -3 45
-17 65 -31 21 -14 45 -25 54 -25 10 0 27 -9 38 -19 12 -11 33 -22 47 -26 14
-3 41 -18 59 -33 49 -41 84 -66 128 -92 22 -14 47 -34 56 -45 9 -11 42 -29 73
-39 36 -13 58 -26 62 -39 3 -11 24 -39 46 -63 22 -24 48 -59 58 -76 9 -18 32
-40 51 -49 19 -9 33 -21 31 -25 -2 -5 7 -11 20 -14 13 -3 23 -12 23 -20 0 -13
-203 -15 -1560 -17 l-1560 -3 30 29 c17 15 42 42 58 60 15 17 34 31 42 31 9 0
20 11 25 25 5 14 15 25 23 25 7 0 20 13 29 28 10 16 35 37 58 47 22 10 40 22
40 27 0 4 15 8 34 8 18 0 39 7 46 15 7 8 20 15 30 15 10 0 23 7 30 15 7 8 17
15 22 15 5 0 22 9 36 21 83 64 143 104 192 128 31 15 70 37 87 49 19 13 46 22
68 22 20 0 73 9 117 20 44 12 87 20 96 19 29 -4 82 12 90 28 8 13 18 14 78 4
59 -10 82 -9 149 5 44 9 123 19 175 20 52 2 115 7 140 12 51 10 194 8 256 -3z
m-4167 -235 c9 0 26 -7 37 -15 12 -8 25 -11 29 -7 3 4 5 3 4 -3 -5 -14 128
-151 137 -142 10 10 34 -13 34 -33 0 -9 10 -28 23 -41 13 -13 31 -44 41 -68 9
-24 24 -54 32 -65 8 -11 14 -28 14 -38 0 -17 -15 -18 -209 -18 -177 0 -212 2
-225 16 -14 13 -16 51 -16 255 l0 239 41 -40 c23 -22 49 -40 58 -40z m-3862
-63 c90 -3 105 -6 126 -25 13 -12 32 -22 43 -22 11 0 29 -6 39 -14 11 -8 25
-12 32 -9 6 3 22 -2 35 -11 12 -9 31 -16 41 -16 25 0 77 -28 77 -42 0 -6 15
-26 33 -43 80 -79 109 -116 103 -130 -3 -9 1 -18 9 -21 8 -4 15 -12 15 -19 0
-7 9 -24 21 -39 14 -17 22 -44 24 -76 1 -28 10 -61 20 -76 12 -19 17 -47 16
-107 0 -45 5 -104 11 -132 8 -36 8 -50 -1 -53 -6 -2 -11 -16 -11 -31 0 -14 -7
-37 -16 -49 -9 -13 -14 -32 -11 -42 3 -10 -6 -36 -19 -57 -13 -21 -24 -44 -24
-51 0 -8 -20 -32 -45 -55 -25 -24 -45 -49 -45 -57 -1 -18 -45 -70 -60 -70 -6
0 -15 -11 -21 -24 -11 -24 -47 -46 -75 -46 -22 0 -131 -69 -138 -86 -3 -8 -13
-14 -23 -14 -10 0 -57 -10 -105 -22 -85 -22 -88 -22 -118 -4 -24 13 -37 15
-58 8 -33 -11 -67 0 -92 31 -21 26 -37 18 -21 -11 9 -18 6 -20 -32 -25 -23 -3
-46 -2 -51 4 -6 5 -17 9 -26 9 -9 0 -27 11 -40 25 -13 14 -32 25 -42 25 -10 0
-40 10 -67 22 -40 17 -53 29 -65 59 -12 29 -26 42 -59 57 -35 16 -45 26 -56
60 -12 36 -12 43 4 58 13 14 19 14 25 4 4 -7 13 -9 19 -6 18 11 13 24 -11 28
-15 2 -25 13 -32 36 -5 17 -13 32 -17 32 -5 0 -9 7 -9 15 0 20 -10 19 -25 -2
-24 -33 -42 0 -44 78 -2 89 -2 88 -28 119 -26 28 -27 43 -12 142 8 54 8 72 -1
78 -8 5 -3 10 14 14 23 6 26 12 27 49 1 91 7 123 28 160 13 20 29 37 37 37 8
0 14 7 14 15 0 8 5 15 10 15 6 0 18 16 27 35 9 19 20 35 24 35 4 0 12 13 17
29 7 19 19 31 33 33 15 2 26 12 30 28 4 14 7 20 8 13 2 -20 31 -3 47 28 10 20
22 29 38 29 13 0 26 7 29 14 3 8 23 18 44 22 21 3 53 15 71 26 21 13 43 18 60
15 15 -3 36 -1 47 4 11 4 38 6 60 3 22 -3 86 -6 142 -7z m21893 -108 c0 -35
-13 -31 -33 11 -17 33 -12 43 14 29 12 -6 19 -21 19 -40z m-48 -91 c5 -7 7
-24 4 -38 -8 -48 6 -58 69 -47 49 9 59 8 82 -9 35 -27 34 -38 -4 -42 -26 -3
-33 -9 -38 -32 -3 -16 -18 -41 -31 -56 -16 -16 -26 -40 -27 -60 -3 -46 -20
-42 -51 11 -15 25 -29 45 -32 45 -3 0 -31 -18 -62 -40 l-56 -41 -27 53 -27 53
34 28 c19 16 34 37 34 48 0 11 9 21 25 25 l25 6 -22 17 c-17 14 -20 24 -14 54
4 21 14 38 24 41 27 7 85 -2 94 -16z m-207 -28 c0 -7 -6 -15 -12 -17 -8 -3
-13 4 -13 17 0 13 5 20 13 18 6 -3 12 -11 12 -18z m569 -111 c5 -5 7 -11 4
-15 -10 -10 -46 5 -52 22 -5 12 -1 14 17 9 12 -4 26 -11 31 -16z m-46 -122
c26 -39 28 -65 7 -93 -8 -10 -15 -29 -15 -42 0 -19 -5 -23 -27 -20 -17 2 -27
8 -25 16 1 8 -7 16 -19 19 -19 5 -21 11 -17 61 4 43 10 59 29 73 33 25 41 24
67 -14z m127 -122 c1 -26 -2 -35 -14 -35 -13 -1 -13 -3 3 -15 22 -16 15 -45
-11 -45 -10 -1 -31 -11 -46 -24 l-28 -22 15 -116 c8 -64 17 -121 20 -126 3 -5
-1 -15 -9 -22 -18 -15 -45 2 -45 29 0 25 -23 71 -36 71 -15 0 -36 -42 -39 -79
-2 -30 -12 -45 -62 -92 -28 -28 -20 -51 16 -42 55 13 94 54 71 77 -14 14 -12
26 5 26 8 0 15 -7 15 -15 0 -8 7 -15 15 -15 8 0 15 -7 15 -15 0 -16 -88 -115
-102 -115 -6 0 -18 10 -28 23 l-18 22 -7 -30 c-20 -87 -21 -90 -41 -90 -12 0
-20 8 -22 23 -6 37 -19 25 -45 -40 -32 -83 -72 -108 -171 -108 -54 0 -72 -4
-82 -17 -13 -17 -13 -17 -14 0 0 10 -11 22 -25 27 -14 5 -25 17 -25 25 0 9 -7
30 -16 48 -9 17 -19 47 -21 67 -2 19 -6 41 -8 48 -6 18 -80 15 -95 -4 -11 -13
-8 -20 21 -48 19 -18 42 -35 52 -39 9 -3 17 -16 17 -27 0 -32 -37 -40 -95 -20
-48 16 -50 18 -57 63 -3 25 -9 50 -12 55 -3 6 1 15 9 22 9 8 12 22 8 41 -14
73 103 107 121 35 8 -32 49 -39 81 -14 28 22 62 17 83 -13 7 -11 22 -19 33
-19 14 0 19 -7 19 -29 0 -17 4 -32 9 -35 4 -3 6 -17 3 -31 -2 -14 -1 -25 3
-25 15 0 124 125 125 142 0 9 9 19 20 23 22 7 50 57 50 91 0 13 4 25 8 28 15
9 52 -6 52 -20 0 -17 2 -17 35 -2 18 8 24 17 19 30 -3 10 2 39 12 63 13 34 14
48 5 59 -12 14 -8 28 26 90 9 17 16 45 17 63 1 44 29 63 72 50 47 -14 66 -4
54 28 -9 23 -7 30 12 45 28 22 30 20 33 -25z m-408 -37 c-3 -7 -5 -2 -5 12 0
14 2 19 5 13 2 -7 2 -19 0 -25z m-13 -24 c3 -8 1 -25 -5 -36 -6 -11 -9 -22 -6
-24 9 -10 57 16 57 31 0 8 2 15 4 15 2 0 11 3 19 6 17 6 47 -21 47 -42 0 -10
-13 -14 -45 -14 -25 0 -45 -4 -45 -10 0 -5 -7 -10 -16 -10 -9 0 -21 -13 -27
-30 -12 -33 -37 -39 -57 -15 -10 13 -9 19 6 36 17 19 17 21 2 30 -17 9 -20 72
-5 96 9 14 62 -10 71 -33z m-15384 -13 c0 -6 -17 -11 -37 -13 -30 -2 -38 -7
-38 -23 0 -15 8 -21 33 -23 43 -4 41 -22 -3 -22 -34 0 -35 -1 -35 -40 0 -22
-4 -40 -10 -40 -6 0 -10 35 -10 85 l0 85 50 0 c28 0 50 -4 50 -9z m1940 -74
l0 -84 -40 -1 c-30 -1 -42 3 -50 17 -28 54 9 129 51 103 17 -11 19 -9 19 18 0
16 5 30 10 30 6 0 10 -34 10 -83z m-1300 58 c0 -8 9 -15 19 -15 11 0 23 -4 26
-10 4 -6 -5 -10 -20 -10 -25 0 -26 -3 -23 -42 2 -36 7 -44 26 -46 29 -4 29
-22 -1 -22 -34 0 -47 19 -47 67 0 32 -4 43 -15 43 -8 0 -15 5 -15 10 0 6 7 10
15 10 8 0 15 7 15 15 0 8 5 15 10 15 6 0 10 -7 10 -15z m-530 -25 c50 -27 27
-120 -30 -120 -50 0 -69 71 -30 110 23 23 33 24 60 10z m122 1 c21 11 48 6 48
-10 0 -5 -8 -7 -17 -5 -30 7 -45 -11 -50 -60 -8 -65 -23 -57 -23 12 0 54 10
88 18 63 3 -8 10 -8 24 0z m143 -1 c3 -5 12 -7 20 -3 12 4 15 -7 15 -64 0 -56
-4 -73 -19 -87 -21 -19 -62 -18 -68 0 -2 7 6 10 23 6 16 -3 29 1 35 9 14 22
11 27 -16 21 -14 -2 -32 1 -40 8 -20 16 -19 84 1 104 17 18 40 21 49 6z m159
-6 c19 -18 21 -85 4 -102 -7 -7 -24 -12 -38 -12 -35 0 -50 17 -50 59 0 59 49
91 84 55z m426 -4 c15 -23 12 -86 -5 -100 -8 -7 -26 -10 -40 -8 -22 5 -25 2
-25 -23 0 -16 -4 -29 -10 -29 -10 0 -15 162 -5 172 11 11 77 1 85 -12z m128 4
c17 -12 22 -25 22 -62 l0 -48 -45 -2 c-34 -1 -47 3 -54 17 -15 27 13 61 51 61
27 0 29 2 17 16 -9 11 -22 14 -41 10 -28 -5 -40 8 -15 17 23 10 42 7 65 -9z
m136 10 c28 -11 17 -24 -14 -17 -41 8 -41 -21 1 -36 25 -9 30 -15 27 -38 -3
-24 -8 -29 -37 -31 -18 -2 -38 1 -44 7 -8 8 0 11 26 11 46 0 48 19 5 40 -38
18 -44 32 -23 54 17 17 34 20 59 10z m140 0 c25 -10 18 -22 -11 -20 -40 2 -41
-16 -4 -34 25 -11 31 -19 29 -40 -3 -22 -8 -25 -45 -28 -26 -2 -43 1 -43 7 0
6 16 11 35 11 19 0 35 5 35 11 0 5 -16 17 -35 25 -39 16 -47 46 -17 63 20 12
34 13 56 5z m72 -39 c7 -39 19 -45 27 -15 7 26 27 26 27 1 0 -11 5 -23 10 -26
6 -3 10 3 10 14 0 27 19 75 27 68 3 -4 0 -34 -7 -67 -14 -67 -34 -79 -46 -27
l-7 32 -10 -32 c-6 -18 -15 -33 -22 -33 -7 0 -15 15 -18 33 -3 17 -9 47 -13
66 -5 24 -4 32 4 27 6 -4 14 -22 18 -41z m214 25 c39 -39 20 -110 -30 -110
-33 0 -60 31 -60 67 0 26 32 63 55 63 8 0 24 -9 35 -20z m122 11 c22 12 48 5
48 -11 0 -7 -8 -9 -20 -5 -32 10 -50 -12 -50 -61 0 -24 -4 -44 -10 -44 -6 0
-10 29 -10 67 0 51 3 64 12 55 8 -8 17 -8 30 -1z m14045 -7 c-3 -3 -12 -4 -19
-1 -8 3 -5 6 6 6 11 1 17 -2 13 -5z m-4607 -39 c10 -12 9 -15 -8 -15 -11 0
-25 7 -32 15 -10 12 -9 15 8 15 11 0 25 -7 32 -15z m4041 -22 c28 -17 40 -55
20 -67 -5 -3 -12 -22 -16 -42 -3 -20 -12 -45 -18 -56 -10 -16 -9 -21 4 -31 19
-15 9 -54 -17 -64 -24 -9 -44 23 -44 69 0 21 -4 38 -10 38 -5 0 -10 10 -10 21
0 18 3 19 15 9 21 -17 38 -4 24 21 -7 15 -7 24 1 34 7 8 9 28 4 49 -7 41 2 45
47 19z m559 -27 c0 -8 -4 -18 -10 -21 -5 -3 -10 3 -10 14 0 12 5 21 10 21 6 0
10 -6 10 -14z m-314 -110 c-7 -27 -58 -61 -79 -52 -7 2 -4 5 5 5 10 1 20 12
24 26 6 24 43 59 52 50 2 -2 2 -15 -2 -29z m-106 -42 c18 -46 -15 -68 -57 -39
-19 13 -21 19 -11 40 16 35 55 34 68 -1z m-12810 -484 c0 -17 -6 -33 -13 -35
-8 -4 -11 -21 -8 -51 3 -39 -1 -51 -28 -84 -17 -21 -31 -45 -31 -53 0 -16 -26
-41 -52 -50 -18 -6 -21 -22 -18 -88 1 -39 -25 -69 -62 -69 -21 0 -33 -21 -42
-74 -5 -26 -14 -40 -27 -43 -10 -3 -19 -11 -19 -18 0 -14 -29 -48 -106 -124
-13 -13 -24 -31 -24 -40 0 -22 -19 -41 -36 -34 -17 6 -59 -23 -45 -31 15 -9
-20 -43 -40 -38 -8 2 -40 -11 -70 -28 -30 -18 -61 -36 -69 -40 -8 -4 -15 -13
-15 -21 0 -15 -35 -18 -71 -6 -16 6 -30 1 -51 -17 -20 -17 -37 -23 -51 -19
-15 3 -24 0 -28 -11 -3 -9 -14 -16 -23 -16 -24 0 -42 -15 -45 -36 -4 -24 -34
-31 -42 -10 -8 22 -26 20 -47 -4 -11 -13 -29 -20 -51 -20 -19 0 -38 -4 -41
-10 -3 -5 -25 -10 -48 -10 -58 -1 -128 -16 -136 -29 -10 -16 -71 -26 -71 -12
0 16 -60 13 -94 -4 -15 -8 -38 -15 -51 -15 -32 0 -88 20 -101 36 -9 12 -19 11
-64 -2 -37 -11 -56 -12 -63 -5 -6 6 -35 11 -64 11 -44 0 -58 5 -87 31 -23 19
-40 28 -48 23 -19 -13 -48 -5 -83 22 -18 13 -37 24 -43 24 -7 0 -12 4 -12 10
0 5 -15 9 -32 8 -20 0 -52 10 -78 26 -25 15 -53 29 -62 33 -12 3 -16 12 -12
27 3 15 -1 24 -18 31 -13 6 -29 22 -36 38 -8 16 -21 27 -33 27 -11 0 -17 4
-14 10 3 5 0 7 -7 5 -8 -3 -21 7 -31 24 -25 43 -70 91 -84 91 -7 0 -13 11 -13
25 0 16 -6 25 -16 25 -10 0 -14 6 -11 14 3 8 -1 20 -9 26 -8 7 -14 19 -14 26
0 8 -18 32 -40 54 -22 22 -40 45 -40 50 0 6 -4 10 -9 10 -5 0 -11 10 -15 23
-3 13 -21 43 -41 68 -52 65 -88 145 -82 179 4 15 3 31 -1 34 -14 14 -12 59 3
83 11 16 14 34 10 54 l-7 29 1406 0 1406 0 0 -30z m12575 10 c-3 -5 -12 -7
-20 -3 -21 7 -19 13 6 13 11 0 18 -4 14 -10z m-15 -40 c0 -5 -9 -10 -19 -10
-11 0 -23 5 -26 10 -4 6 5 10 19 10 14 0 26 -4 26 -10z m144 -5 c4 -11 -1 -15
-19 -15 -24 0 -32 10 -18 23 11 12 31 8 37 -8z m-8674 -36 c19 -6 64 -16 100
-24 85 -16 211 -70 293 -125 63 -41 122 -108 166 -190 123 -225 147 -318 142
-535 -2 -72 -31 -202 -58 -260 -56 -119 -172 -276 -240 -325 -171 -124 -247
-161 -385 -189 -139 -28 -312 -22 -428 16 -41 14 -77 28 -80 32 -3 4 -30 19
-60 34 -167 82 -314 279 -372 497 -16 60 -20 109 -21 250 -1 183 7 231 54 320
11 19 19 38 19 42 0 4 18 36 40 70 51 77 126 152 251 247 27 21 112 61 194 92
46 18 135 31 278 43 32 2 61 7 64 10 8 7 2 8 43 -5z m2845 -74 c33 -8 83 -19
110 -25 79 -18 158 -43 186 -60 61 -36 109 -78 134 -116 15 -23 40 -55 56 -72
16 -16 38 -50 49 -75 11 -24 26 -50 34 -57 18 -14 63 -147 84 -245 37 -178 2
-415 -83 -565 -8 -14 -23 -41 -34 -61 -26 -47 -165 -194 -215 -228 -88 -59
-154 -95 -209 -112 -32 -10 -67 -24 -80 -30 -27 -15 -121 -28 -252 -35 -86 -5
-109 -3 -165 16 -36 12 -69 25 -75 30 -5 4 -32 15 -60 25 -27 10 -55 22 -61
26 -15 12 -126 41 -150 40 -12 0 -27 6 -34 14 -10 13 -8 15 14 15 39 0 31 18
-15 31 -22 7 -45 21 -50 31 -5 10 -18 18 -29 18 -14 0 -21 9 -26 38 -8 48 -28
79 -56 88 -12 3 -28 12 -35 19 -7 7 -17 15 -23 17 -12 4 -24 68 -23 126 0 36
-3 43 -23 48 -26 7 -30 14 -14 30 5 5 13 31 16 56 l7 47 -36 6 c-33 7 -36 10
-35 41 1 18 4 31 8 29 4 -2 14 1 23 8 15 10 15 17 4 49 -17 49 -26 57 -34 30
-5 -22 -18 -29 -27 -14 -10 16 21 83 55 118 29 30 32 37 21 54 -18 30 -15 65
9 86 32 29 50 71 43 100 -5 20 -2 26 15 31 25 6 72 86 61 104 -10 15 22 42 81
68 24 10 53 28 63 40 11 11 25 21 32 21 7 0 28 13 46 28 18 15 44 33 58 40 14
6 32 16 40 21 46 26 81 40 130 51 30 7 67 17 81 22 14 5 90 17 170 27 79 11
146 19 149 20 3 0 32 -6 65 -14z m2481 -99 c45 -4 87 -17 156 -50 l94 -45 105
4 c57 1 141 6 186 10 69 6 87 5 108 -9 14 -10 34 -16 43 -15 9 2 31 -1 49 -5
20 -5 39 -3 52 6 19 11 24 10 46 -14 17 -18 25 -39 25 -63 0 -23 5 -35 14 -35
8 0 17 -11 20 -24 9 -37 34 -56 72 -56 32 0 34 2 28 28 -9 36 -13 42 -28 42
-8 0 -19 7 -26 15 -7 8 -25 15 -41 15 -26 0 -29 4 -29 30 0 35 9 38 33 10 9
-11 24 -20 33 -20 9 0 34 -16 55 -35 22 -19 45 -35 52 -35 22 0 64 -51 103
-125 20 -38 47 -83 60 -98 13 -16 24 -41 24 -57 0 -16 8 -48 19 -72 10 -24 22
-70 26 -103 13 -92 6 -273 -12 -330 -26 -86 -140 -309 -177 -348 -20 -21 -36
-42 -36 -47 0 -5 -27 -41 -59 -78 -33 -38 -68 -84 -79 -101 -21 -35 -94 -113
-142 -151 -17 -14 -41 -35 -54 -47 -13 -13 -27 -23 -31 -23 -4 0 -45 -23 -91
-50 -46 -28 -98 -53 -116 -56 -18 -3 -49 -12 -69 -19 -19 -7 -91 -16 -160 -20
-142 -8 -249 9 -309 49 -19 13 -64 41 -100 62 -35 22 -82 57 -105 78 -22 22
-42 40 -45 41 -3 1 -29 24 -59 52 -30 28 -72 57 -95 64 -52 17 -126 60 -251
146 -26 18 -50 33 -53 35 -8 4 -55 60 -97 118 -16 22 -44 58 -62 80 -32 41
-68 144 -98 281 -18 82 -16 241 3 334 18 86 67 216 91 243 13 14 26 34 30 45
13 35 202 216 232 222 16 4 42 17 57 30 16 13 51 29 78 35 27 7 63 18 79 25
37 17 124 37 133 31 4 -2 16 0 27 5 20 7 170 5 291 -5z m-3618 -1084 c2 -7 -3
-12 -12 -12 -9 0 -16 7 -16 16 0 17 22 14 28 -4z"/>
<path d="M15824 10055 c-22 -34 -23 -125 0 -160 21 -33 68 -34 90 -3 19 27 21
122 3 158 -18 37 -70 40 -93 5z"/>
<path d="M13075 10065 c-44 -43 -34 -55 45 -55 68 0 70 1 70 24 0 29 -33 56
-68 56 -12 0 -34 -11 -47 -25z"/>
<path d="M14268 10076 c-48 -24 -59 -137 -19 -187 19 -24 63 -28 86 -9 21 17
37 86 30 123 -14 68 -51 96 -97 73z"/>
<path d="M15036 10069 c-14 -11 -26 -29 -26 -40 0 -17 8 -19 70 -19 63 0 70 2
70 20 0 27 -35 60 -64 60 -13 0 -35 -9 -50 -21z"/>
<path d="M16237 9963 c-54 -8 -72 -79 -27 -103 46 -25 100 17 100 77 0 35 -3
36 -73 26z"/>
<path d="M12607 8893 c-14 -13 -7 -84 8 -89 33 -13 56 35 39 80 -6 16 -35 22
-47 9z"/>
<path d="M12767 8893 c-14 -13 -7 -84 8 -89 33 -13 56 35 39 80 -6 16 -35 22
-47 9z"/>
<path d="M12462 8896 c-13 -45 -12 -49 16 -44 17 3 18 6 7 43 l-12 40 -11 -39z"/>
<path d="M13087 8894 c-15 -15 -6 -24 24 -24 20 0 29 4 27 13 -5 14 -40 21
-51 11z"/>
<path d="M11807 8843 c-17 -16 -6 -43 16 -43 25 0 47 17 47 37 0 13 -51 19
-63 6z"/>
<path d="M11460 8150 l0 -340 3620 0 3620 0 0 340 0 340 -3620 0 -3620 0 0
-340z m6842 183 c16 -14 18 -34 18 -183 0 -217 13 -204 -200 -209 l-159 -3
-26 27 -27 26 3 159 c5 213 -8 200 207 200 140 0 168 -3 184 -17z m-5052 -94
c0 -24 -23 -21 -28 4 -2 10 3 17 12 17 10 0 16 -9 16 -21z m160 -69 c5 -79 7
-85 28 -88 35 -5 26 -22 -13 -22 -44 0 -55 23 -55 116 0 50 -3 64 -15 64 -8 0
-15 5 -15 11 0 6 14 9 33 7 l32 -3 5 -85z m-1560 70 c0 -5 -5 -10 -11 -10 -5
0 -7 5 -4 10 3 6 8 10 11 10 2 0 4 -4 4 -10z m270 -10 c0 -15 7 -20 25 -20 16
0 25 -6 25 -15 0 -9 -10 -15 -26 -15 -24 0 -25 -2 -22 -47 3 -41 6 -48 26 -51
32 -5 27 -22 -6 -22 -40 0 -52 17 -52 72 0 41 -3 48 -20 48 -11 0 -20 5 -20
11 0 6 9 13 20 16 11 3 20 14 20 24 0 11 7 19 15 19 8 0 15 -9 15 -20z m698 8
c-3 -7 -23 -14 -46 -16 -34 -3 -42 -7 -42 -23 0 -16 7 -19 40 -19 29 0 40 -4
40 -15 0 -11 -11 -15 -40 -15 -38 0 -40 -2 -40 -29 0 -28 3 -30 42 -33 23 -2
43 -9 46 -15 3 -10 -13 -13 -57 -13 l-61 0 0 95 0 95 61 0 c44 0 60 -3 57 -12z
m928 -78 c23 -84 27 -130 5 -77 -9 22 -17 27 -45 27 -28 0 -35 -4 -40 -25 -4
-14 -14 -25 -22 -25 -10 0 -14 6 -11 14 3 7 15 47 27 87 27 89 28 91 47 87 11
-2 24 -32 39 -88z m-1742 28 c22 -30 22 -128 1 -128 -11 0 -15 12 -15 48 0 55
-10 75 -36 70 -16 -3 -20 -14 -22 -61 -4 -69 -22 -77 -22 -9 0 26 -3 58 -7 71
-5 21 -3 23 14 19 12 -3 27 -2 34 3 22 14 37 10 53 -13z m316 2 c11 -11 20
-29 20 -40 0 -17 -7 -20 -50 -20 -54 0 -55 -1 -39 -32 9 -17 17 -19 50 -14 23
4 39 2 39 -4 0 -17 -40 -31 -71 -25 -59 13 -79 86 -34 130 29 30 58 32 85 5z
m105 10 c5 -8 11 -7 21 1 17 14 67 3 61 -14 -2 -7 -14 -11 -26 -9 -36 5 -51
-15 -51 -69 0 -37 -4 -49 -15 -49 -12 0 -15 15 -15 75 0 69 9 91 25 65z m543
-3 c7 -5 12 -32 12 -73 0 -50 -3 -64 -15 -64 -12 0 -15 13 -15 60 0 33 -4 60
-10 60 -6 0 -10 -27 -10 -60 0 -46 -3 -60 -15 -60 -10 0 -15 15 -17 57 -4 81
-28 85 -28 4 0 -48 -3 -61 -15 -61 -12 0 -15 14 -15 68 0 38 2 71 5 74 9 8
108 4 123 -5z m140 -3 c19 -13 22 -24 22 -75 0 -52 -2 -60 -17 -58 -10 2 -28
-1 -40 -5 -33 -11 -63 10 -63 42 0 37 17 52 58 52 23 0 32 4 29 13 -2 7 -19
12 -41 11 -23 -1 -36 3 -36 12 0 26 55 32 88 8z m142 -49 c0 -63 1 -65 25 -65
14 0 25 -4 25 -10 0 -6 -27 -10 -60 -10 -33 0 -60 4 -60 10 0 6 9 10 20 10 17
0 20 7 20 50 0 38 -4 50 -15 50 -8 0 -15 7 -15 15 0 10 10 15 30 15 l30 0 0
-65z"/>
<path d="M13697 8195 c-3 -17 -9 -38 -12 -47 -6 -14 -2 -18 19 -18 29 0 30 8
12 60 l-13 34 -6 -29z"/>
<path d="M12250 8165 c-11 -13 -8 -15 25 -15 25 0 35 4 33 13 -7 18 -43 20
-58 2z"/>
<path d="M13043 8114 c-3 -8 0 -21 6 -27 14 -14 44 2 49 27 5 22 -46 22 -55 0z"/>
<path d="M12600 7525 c-13 -34 3 -75 30 -75 23 0 36 36 26 75 -4 16 -13 25
-26 25 -13 0 -24 -10 -30 -25z"/>
<path d="M11490 7566 c0 -33 2 -36 30 -36 55 0 51 62 -4 68 -24 3 -26 0 -26
-32z"/>
<path d="M12284 7536 c-3 -8 -4 -29 -2 -48 2 -28 7 -34 30 -36 22 -3 29 2 34
22 11 44 -3 76 -32 76 -13 0 -27 -6 -30 -14z"/>
<path d="M25160 5460 c0 -11 4 -20 9 -20 5 0 7 9 4 20 -3 11 -7 20 -9 20 -2 0
-4 -9 -4 -20z"/>
<path d="M25063 5318 c-6 -7 -18 -39 -26 -70 -15 -57 -9 -82 18 -72 7 3 25
-11 41 -31 15 -20 33 -34 40 -31 7 3 14 0 17 -7 4 -12 77 61 77 77 0 8 -17 5
-50 -8 -27 -11 -42 8 -29 36 9 21 8 35 -3 70 -12 37 -19 43 -45 46 -16 2 -35
-3 -40 -10z"/>
<path d="M24732 5121 c2 -7 7 -12 11 -12 12 1 9 15 -3 20 -7 2 -11 -2 -8 -8z"/>
<path d="M24526 5105 c-6 -17 54 -85 75 -85 8 0 19 11 25 24 11 23 9 26 -27
40 -22 9 -39 20 -39 26 0 16 -27 12 -34 -5z"/>
<path d="M24904 5081 c5 -34 3 -41 -14 -46 -27 -9 -25 -28 4 -41 18 -8 28 -8
35 -1 14 14 14 37 0 37 -7 0 -8 11 -4 29 3 17 2 32 -5 36 -5 3 -8 11 -5 16 4
5 1 9 -6 9 -8 0 -10 -12 -5 -39z"/>
<path d="M24790 5070 c0 -5 7 -10 16 -10 8 0 12 5 9 10 -3 6 -10 10 -16 10 -5
0 -9 -4 -9 -10z"/>
<path d="M25039 5040 c-3 -8 -19 -14 -35 -15 -42 0 -38 -27 6 -36 19 -4 36 -6
38 -4 2 2 2 18 0 37 -2 18 -6 26 -9 18z"/>
<path d="M25160 4935 c0 -8 7 -15 15 -15 8 0 15 7 15 15 0 8 -7 15 -15 15 -8
0 -15 -7 -15 -15z"/>
<path d="M24560 4896 c0 -22 24 -36 58 -33 18 1 32 3 32 4 0 1 -10 11 -22 23
-25 23 -68 27 -68 6z"/>
<path d="M11460 6805 l0 -335 3620 0 3620 0 0 335 0 335 -3620 0 -3620 0 0
-335z m6215 190 c24 -24 25 -27 25 -185 0 -158 -1 -161 -25 -185 -24 -24 -27
-25 -185 -25 -158 0 -161 1 -185 25 -24 24 -25 27 -25 185 0 158 1 161 25 185
24 24 27 25 185 25 158 0 161 -1 185 -25z m728 -85 c6 -5 27 -22 45 -36 47
-38 56 -58 38 -91 -16 -32 -50 -65 -84 -82 -23 -12 -98 -16 -141 -7 -33 7 -88
52 -106 85 -14 27 -13 31 15 69 44 61 92 82 173 76 26 -2 53 -8 60 -14z"/>
<path d="M18270 6858 c-50 -54 -1 -145 72 -131 62 12 85 97 36 135 -32 25 -82
23 -108 -4z m96 -35 c9 -34 -6 -57 -41 -61 -31 -4 -45 11 -45 50 0 29 10 36
52 37 22 1 29 -5 34 -26z"/>
<path d="M29034 4997 c-17 -31 -11 -47 16 -47 10 0 20 -6 23 -12 4 -10 7 -10
18 0 7 6 32 12 56 12 55 0 57 20 6 52 -54 33 -101 31 -119 -5z"/>
<path d="M28932 4705 c0 -16 2 -22 5 -12 2 9 2 23 0 30 -3 6 -5 -1 -5 -18z"/>
<path d="M29506 5513 c-3 -4 -16 -8 -29 -10 -29 -5 -39 -16 -31 -36 11 -29 50
-21 64 13 12 30 10 47 -4 33z"/>
<path d="M29416 4551 c-11 -17 13 -32 45 -29 49 4 46 33 -4 35 -20 0 -39 -2
-41 -6z"/>
<path d="M29450 4490 c0 -5 10 -10 23 -10 18 0 19 2 7 10 -19 13 -30 13 -30 0z"/>
<path d="M16032 5098 c-26 -26 -8 -83 24 -76 23 4 31 52 13 74 -14 17 -21 18
-37 2z"/>
<path d="M14220 5090 c-18 -33 -4 -72 23 -68 18 3 22 9 22 43 0 46 -26 60 -45
25z"/>
<path d="M14494 5086 c-9 -38 -1 -61 23 -64 27 -4 41 35 23 67 -15 28 -38 27
-46 -3z"/>
<path d="M14641 5096 c-7 -8 -11 -27 -9 -43 2 -22 8 -28 28 -28 27 0 36 20 26
61 -7 27 -27 31 -45 10z"/>
<path d="M15060 5089 c-18 -32 -4 -71 23 -67 24 3 32 26 23 64 -8 30 -31 31
-46 3z"/>
<path d="M15197 5053 c-4 -3 -7 -12 -7 -20 0 -20 38 -15 50 7 9 17 8 20 -13
20 -13 0 -27 -3 -30 -7z"/>
<path d="M15754 5096 c-3 -8 -4 -27 -2 -43 4 -38 44 -46 53 -10 12 45 -35 93
-51 53z"/>
<path d="M27176 3695 c-8 -31 -4 -38 17 -33 11 2 12 8 2 32 l-12 29 -7 -28z"/>
<path d="M27208 3634 c-11 -10 3 -34 19 -34 8 0 13 7 11 17 -3 18 -20 27 -30
17z"/>
<path d="M27243 3502 c-7 -28 -6 -43 4 -58 17 -26 34 -193 22 -216 -11 -21
-12 -95 0 -102 10 -7 30 36 36 77 16 121 15 142 -3 172 -14 22 -16 36 -9 55
10 28 -10 101 -29 107 -6 2 -16 -13 -21 -35z"/>
<path d="M15482 13700 c0 -14 2 -19 5 -12 2 6 2 18 0 25 -3 6 -5 1 -5 -13z"/>
<path d="M30132 13332 c-7 -12 -10 -32 -7 -42 7 -23 -22 -40 -35 -20 -9 15
-30 -40 -30 -81 0 -15 -5 -29 -12 -31 -17 -6 -2 -38 18 -38 13 0 15 6 11 30
-4 16 -2 32 3 35 14 8 13 -54 -1 -94 -6 -17 -8 -43 -5 -56 5 -21 12 -25 41
-25 37 0 49 22 19 34 -12 5 -15 15 -11 39 3 17 10 65 17 105 6 40 10 94 8 120
-3 44 -4 46 -16 24z"/>
<path d="M29950 13075 c0 -8 8 -15 18 -15 10 0 23 -5 30 -12 17 -17 15 -57 -3
-64 -17 -7 -20 -30 -5 -39 5 -3 18 -2 28 4 11 6 24 6 35 0 14 -8 17 -6 17 14
0 14 -7 27 -14 30 -12 5 -13 13 -6 37 8 30 7 32 -25 46 -45 18 -75 18 -75 -1z"/>
<path d="M30010 12899 c0 -5 5 -7 10 -4 6 3 10 8 10 11 0 2 -4 4 -10 4 -5 0
-10 -5 -10 -11z"/>
<path d="M29958 12863 c7 -3 16 -2 19 1 4 3 -2 6 -13 5 -11 0 -14 -3 -6 -6z"/>
<path d="M30020 12820 c-32 -17 -33 -19 -15 -26 11 -4 35 -19 53 -32 18 -14
34 -23 36 -21 2 2 6 20 9 40 9 60 -20 73 -83 39z m50 -20 c0 -5 -4 -10 -9 -10
-6 0 -13 5 -16 10 -3 6 1 10 9 10 9 0 16 -4 16 -10z"/>
<path d="M23650 12790 c0 -5 7 -10 15 -10 8 0 15 5 15 10 0 6 -7 10 -15 10 -8
0 -15 -4 -15 -10z"/>
<path d="M30088 12693 c-23 -26 -48 -91 -48 -124 0 -24 4 -29 24 -29 20 0 25
7 36 60 7 33 16 60 20 60 3 0 11 -17 17 -37 11 -37 11 -36 10 22 -2 52 -5 60
-23 63 -11 2 -27 -5 -36 -15z"/>
<path d="M30021 12516 c-8 -9 -8 -21 -1 -40 10 -28 25 -31 93 -20 31 6 37 11
37 30 0 21 -5 24 -34 24 -19 0 -38 5 -41 10 -9 14 -41 12 -54 -4z"/>
<path d="M23548 12283 c7 -3 16 -2 19 1 4 3 -2 6 -13 5 -11 0 -14 -3 -6 -6z"/>
<path d="M30130 12280 c0 -5 5 -10 10 -10 6 0 10 5 10 10 0 6 -4 10 -10 10 -5
0 -10 -4 -10 -10z"/>
<path d="M23590 12170 c0 -5 5 -10 10 -10 6 0 10 5 10 10 0 6 -4 10 -10 10 -5
0 -10 -4 -10 -10z"/>
<path d="M23462 12138 c3 -25 25 -33 48 -18 13 8 12 11 -5 24 -29 22 -47 20
-43 -6z"/>
<path d="M23595 12130 c3 -5 8 -10 11 -10 2 0 4 5 4 10 0 6 -5 10 -11 10 -5 0
-7 -4 -4 -10z"/>
<path d="M30125 11690 c-3 -5 1 -10 9 -10 9 0 16 5 16 10 0 6 -4 10 -9 10 -6
0 -13 -4 -16 -10z"/>
<path d="M30127 11642 c-22 -24 -21 -29 3 -35 17 -4 20 0 20 24 0 34 -2 35
-23 11z"/>
<path d="M29515 10590 c-3 -6 1 -7 9 -4 18 7 21 14 7 14 -6 0 -13 -4 -16 -10z"/>
<path d="M27940 10341 c0 -5 7 -12 16 -15 22 -9 24 -8 24 9 0 8 -9 15 -20 15
-11 0 -20 -4 -20 -9z"/>
<path d="M25495 9730 c-3 -5 3 -10 14 -10 11 0 23 5 26 10 3 6 -3 10 -14 10
-11 0 -23 -4 -26 -10z"/>
<path d="M29820 3645 c0 -8 7 -15 15 -15 9 0 12 6 9 15 -4 8 -10 15 -15 15 -5
0 -9 -7 -9 -15z"/>
<path d="M30060 3115 c0 -22 2 -24 24 -14 28 13 24 39 -5 39 -14 0 -19 -7 -19
-25z"/>
<path d="M30080 2996 c0 -9 5 -16 10 -16 6 0 10 4 10 9 0 6 -4 13 -10 16 -5 3
-10 -1 -10 -9z"/>
<path d="M30070 2930 c0 -33 11 -38 30 -15 10 12 10 18 0 30 -19 23 -30 18
-30 -15z"/>
<path d="M29957 2683 c-6 -33 -3 -38 18 -30 19 8 20 57 1 57 -7 0 -16 -12 -19
-27z"/>
</g>
</svg>
